<svg viewBox="0 0 490 485" fill="none" xmlns="http://www.w3.org/2000/svg">
<g opacity="0.3">
<path opacity="0.3" d="M103.613 234.109H292.542V0.872803H103.613V234.109ZM288.06 229.63H108.092V5.34867H288.06V229.63Z" fill="#EBEBEB"/>
<path opacity="0.3" d="M195.905 6.52881H200.384V231.866H195.905V6.52881Z" fill="#EBEBEB"/>
<path opacity="0.3" d="M99.5469 9.93311H296.597V16.1849H99.5469V9.93311Z" fill="#EBEBEB"/>
<path d="M99.5469 16.9434H296.597V23.1831H99.5469V16.9434Z" fill="#A8B2B7"/>
<path d="M99.5469 23.9656H296.597V30.2053H99.5469V23.9656Z" fill="#A8B2B7"/>
<path d="M99.5469 30.988H296.597V37.2248H99.5469V30.988Z" fill="#A8B2B7"/>
<path d="M99.5469 37.9983H296.597V44.238H99.5469V37.9983Z" fill="#A8B2B7"/>
<path d="M99.5469 45.0205H296.597V51.2572H99.5469V45.0205Z" fill="#A8B2B7"/>
<path d="M99.5469 52.043H296.597V58.2797H99.5469V52.043Z" fill="#A8B2B7"/>
<path d="M99.5469 59.0532H296.597V65.2899H99.5469V59.0532Z" fill="#A8B2B7"/>
<path d="M99.5469 66.0754H296.597V72.3122H99.5469V66.0754Z" fill="#A8B2B7"/>
<path opacity="0.3" d="M112.862 8.65967H113.982V130.056H112.862V8.65967Z" fill="#263238"/>
<path opacity="0.3" d="M111.43 135.263H115.406L114.41 129.544H112.426L111.43 135.263Z" fill="#263238"/>
<path opacity="0.3" d="M108.82 8.65967H109.94V194.271H108.82V8.65967Z" fill="#263238"/>
<path opacity="0.3" d="M107.396 198.47H111.373L110.376 192.751H108.396L107.396 198.47Z" fill="#263238"/>
<path d="M92.6055 0H303.549V13.0484H92.6055V0Z" fill="#919496"/>
<path opacity="0.3" d="M442.822 269.148H472.477V281.667H442.822V269.148Z" fill="#EBEBEB"/>
<path opacity="0.3" d="M459.362 284.948H489.017V297.481H459.362V284.948Z" fill="#EBEBEB"/>
</g>
<path d="M488.279 403.075L427.242 402.807L366.209 402.708L244.138 402.527L122.071 402.708L61.0338 402.807L0 403.075L61.0338 403.355L122.071 403.457L244.138 403.635L366.209 403.457L427.242 403.355L488.279 403.075Z" fill="#263238"/>
<path d="M244.138 438.039C120.78 438.039 20.7754 448.433 20.7754 461.255C20.7754 474.078 120.78 484.472 244.138 484.472C367.497 484.472 467.504 474.078 467.504 461.255C467.504 448.433 367.5 438.039 244.138 438.039Z" fill="#505050" fill-opacity="0.12"/>
<path d="M445.666 425.756C427.507 425.756 412.785 422.144 412.785 417.713C412.785 413.282 427.507 409.673 445.666 409.673C463.826 409.673 478.545 413.285 478.545 417.713C478.545 422.141 463.826 425.756 445.666 425.756Z" fill="#EBEBEB"/>
<path d="M441.028 342.168C441.99 345.686 442.628 349.285 442.934 352.92C442.831 353.109 442.856 353.771 442.934 353.591C442.934 354.172 443.837 354.072 443.837 353.491V352.369C445.944 349.762 448.999 348.103 451.464 345.84C453.447 344.052 454.89 341.744 455.63 339.179C457.668 332.123 455.753 324.619 458.216 317.618C460.323 311.55 464.139 306.286 467.366 300.819C470.725 295.007 473.269 288.906 473.515 282.097C473.717 276.89 473.1 269.946 469.124 266.048C464.91 261.903 459.705 265.006 456.482 268.703C447.151 279.418 442.831 292.96 441.086 306.779C440.122 314.44 439.114 322.154 439.349 329.893C439.5 334.029 440.058 338.141 441.016 342.168H441.028Z" fill="#FE5621"/>
<path d="M442.888 355.737C442.38 348.504 442.467 341.241 443.147 334.023V333.944C443.024 328.066 442.563 322.205 442.786 316.351C443.075 309.996 443.942 303.68 445.375 297.481C445.375 297.403 445.51 297.481 445.486 297.481C444.349 303.573 443.667 309.742 443.448 315.936C443.325 319.295 443.346 322.579 443.526 325.893C443.526 327.012 443.683 328.054 443.761 329.14C446.196 312.66 452.151 296.897 461.219 282.922C461.343 282.732 461.677 282.922 461.565 283.136C455.087 293.758 450.29 305.317 447.343 317.404C451.822 309.082 458.619 302.24 463.648 294.227H463.727C459.248 303.131 451.744 310.153 446.928 318.909C446.109 322.482 445.423 326.088 444.923 329.718C444.243 334.696 443.869 339.711 443.803 344.735C446.668 339.733 449.28 334.591 451.629 329.327C451.699 329.18 451.9 329.327 451.855 329.426C449.95 335.025 447.376 341.096 443.803 345.888C443.803 349.44 443.894 353.001 444.104 356.55C444.664 366.025 446.278 375.386 447.027 384.844C447.024 384.895 447.004 384.944 446.97 384.982C446.934 385.02 446.886 385.046 446.834 385.054C446.782 385.06 446.729 385.049 446.684 385.021C446.641 384.992 446.608 384.95 446.591 384.901C444.699 375.274 443.462 365.531 442.888 355.737Z" fill="#263238"/>
<path d="M452.957 282.618C452.957 282.611 452.958 282.603 452.96 282.597C452.963 282.59 452.967 282.584 452.972 282.579C452.977 282.574 452.983 282.57 452.99 282.567C452.997 282.564 453.004 282.563 453.011 282.564C453.024 282.559 453.038 282.559 453.05 282.564C453.061 282.574 453.068 282.588 453.068 282.603C451.332 287.398 450.359 292.235 449.104 297.162C449.105 297.186 449.1 297.209 449.091 297.231C449.081 297.253 449.068 297.273 449.05 297.289C449.017 297.323 448.971 297.342 448.924 297.343C448.876 297.342 448.831 297.322 448.797 297.289C448.781 297.272 448.768 297.252 448.759 297.231C448.75 297.209 448.746 297.186 448.746 297.162C449.438 292.131 450.858 287.226 452.96 282.603L452.957 282.618Z" fill="#263238"/>
<path d="M408.99 302.688C410.142 305.498 411.469 308.232 412.963 310.876C416.091 316.474 419.336 321.712 419.932 328.313C420.03 331.259 420.449 334.186 421.184 337.042C422.002 339.482 423.176 341.788 424.666 343.886C428.028 348.802 432.273 353.046 435.397 358.154C438.656 363.481 441.063 369.285 442.531 375.356C442.609 375.69 443.133 375.6 443.057 375.266C443.054 375.24 443.054 375.213 443.057 375.187C443.063 375.165 443.063 375.141 443.057 375.118C443.548 360.971 442.428 346.731 438.106 333.192C436.208 327.238 433.927 321.414 431.276 315.755C429.102 310.751 425.957 306.228 422.023 302.448C419.393 300.076 413.692 295.585 409.941 297.969C408.15 299.125 408.283 300.931 408.99 302.688Z" fill="#FE5621"/>
<path d="M423.2 334.694C425.689 338.799 428.431 342.745 431.408 346.511L435.529 351.851C436.179 352.703 436.907 353.542 437.5 354.451C437.121 352.946 436.763 351.472 436.381 349.97C434.714 342.792 432.596 335.727 430.042 328.815C427.257 322.164 423.974 315.732 420.22 309.575C420.133 309.407 420.389 309.295 420.491 309.452C423.48 314.358 426.511 319.274 429.024 324.448C430.406 327.34 431.612 330.314 432.636 333.351C431.485 326.899 429.875 320.537 427.82 314.313C427.82 314.256 427.82 314.211 427.899 314.313C430.595 320.601 432.285 327.275 432.904 334.089V334.089C433.506 335.928 434.024 337.785 434.605 339.69C436.847 347.607 438.783 355.592 440.598 363.623C440.63 358.366 440.177 353.117 439.243 347.944C439.243 347.82 439.4 347.796 439.421 347.944C440.799 353.353 441.261 358.955 440.787 364.517C441.468 367.563 442.136 370.617 442.792 373.679C444.183 380.196 445.883 386.827 446.705 393.446C446.695 393.473 446.679 393.497 446.657 393.515C446.633 393.533 446.605 393.542 446.576 393.542C446.546 393.542 446.518 393.533 446.494 393.515C446.472 393.497 446.456 393.473 446.446 393.446C445.471 389.873 444.89 386.177 444.095 382.559C443.301 378.941 442.482 375.335 441.63 371.723C440.411 366.458 439.123 361.206 437.813 355.965C436.74 354.078 435.45 352.323 433.97 350.734C432.582 348.964 431.194 347.197 429.837 345.394C427.296 342.065 425.02 338.543 423.028 334.859C423.025 334.836 423.027 334.813 423.035 334.791C423.043 334.769 423.055 334.749 423.072 334.733C423.089 334.717 423.109 334.705 423.131 334.698C423.153 334.691 423.177 334.69 423.2 334.694V334.694Z" fill="#263238"/>
<path d="M422.595 328.692C425.697 332.67 428.392 336.951 430.637 341.469C430.637 341.527 430.568 341.593 430.535 341.527C427.826 337.295 425.171 333.014 422.471 328.77C422.426 328.704 422.54 328.623 422.595 328.692Z" fill="#263238"/>
<path d="M482.78 316.092C480.944 319.253 478.849 323.036 479.644 326.832C480.138 329.24 481.883 331.178 482.208 333.619C482.925 339.019 477.54 342.58 473.642 345.145C463.944 351.493 450.627 357.185 448.858 370.197C448.791 370.654 447.997 370.543 448.051 370.095C448.045 370.065 448.045 370.034 448.051 370.004V369.926C446.782 363.358 446.846 356.602 448.241 350.06C449.832 343.473 452.48 337.187 456.082 331.446C461.915 321.48 468.122 311.279 476.944 303.628C479.385 301.521 484.394 297.728 486.341 302.508C488.289 307.288 485.008 312.296 482.78 316.092Z" fill="#FE5621"/>
<path d="M473.889 337.225C467.459 344.19 457.222 348.1 451.681 355.905C454.775 344.027 460.622 333.043 468.747 323.843C468.771 323.821 468.79 323.795 468.802 323.765C468.816 323.735 468.823 323.702 468.823 323.668C468.823 323.635 468.817 323.603 468.805 323.572C468.792 323.542 468.775 323.515 468.754 323.491C468.73 323.467 468.703 323.449 468.672 323.436C468.643 323.422 468.611 323.415 468.579 323.415C468.546 323.413 468.513 323.42 468.483 323.433C468.452 323.445 468.425 323.462 468.401 323.485C462.48 329.233 457.739 336.084 454.447 343.652C455.977 338.358 457.986 333.215 460.449 328.286C460.464 328.247 460.464 328.204 460.449 328.165C460.443 328.145 460.433 328.125 460.42 328.109C460.406 328.092 460.39 328.079 460.371 328.069C460.353 328.058 460.333 328.051 460.312 328.049C460.291 328.046 460.27 328.048 460.25 328.054C460.21 328.065 460.175 328.092 460.154 328.129C457.099 333.505 454.914 339.33 453.679 345.388C446.377 363.072 445.706 383.79 447.229 402.425C447.229 402.681 447.656 402.693 447.656 402.425C447.229 387.742 447.476 372.803 451.016 358.479C451.082 358.178 451.172 357.877 451.238 357.576C457.276 349.175 467.456 345.256 474.006 337.307C474.066 337.258 473.967 337.147 473.889 337.225Z" fill="#263238"/>
<path d="M475.375 331.245C472.016 334.336 468.657 337.517 465.298 340.609V340.675C469.12 338.088 472.565 334.982 475.532 331.446C475.7 331.332 475.523 331.112 475.375 331.245Z" fill="#263238"/>
<path d="M475.959 317.808C472.981 322.709 469.61 327.361 465.879 331.717C465.868 331.727 465.862 331.741 465.861 331.756C465.857 331.763 465.855 331.771 465.855 331.779C465.855 331.787 465.857 331.794 465.861 331.801C465.865 331.807 465.871 331.812 465.878 331.815C465.885 331.818 465.892 331.82 465.9 331.819C465.906 331.823 465.914 331.825 465.921 331.825C465.928 331.825 465.936 331.823 465.942 331.819C470.12 327.821 473.552 323.111 476.08 317.91C476.078 317.895 476.073 317.881 476.065 317.868C476.058 317.854 476.048 317.841 476.035 317.832H475.989C475.975 317.828 475.959 317.828 475.944 317.832L475.959 317.808Z" fill="#263238"/>
<path d="M460.705 415.612H431.107L435.093 375.79H456.148L460.705 415.612Z" fill="#7A5C52"/>
<path d="M456.888 382.246H434.439L435.087 375.774H456.142L456.888 382.246Z" fill="#263238"/>
<path d="M459.777 377.722H432.031V371.365H459.771L459.777 377.722Z" fill="#7A5C52"/>
<path d="M324.012 66.7197H473.642V77.4925H324.012V66.7197Z" fill="#DBDBDB"/>
<path d="M336.295 52.1602H402.045C403.968 52.1562 405.81 51.39 407.168 50.0295C408.526 48.6691 409.29 46.8255 409.29 44.9031C409.291 42.9802 408.529 41.1357 407.17 39.7749C405.811 38.4141 403.968 37.6484 402.045 37.646H336.328L336.295 52.1602Z" fill="#FE5621"/>
<path d="M329.767 52.1602H373.084C375.006 52.157 376.85 51.3911 378.208 50.0306C379.567 48.6701 380.331 46.826 380.332 44.9031V44.9031C380.332 42.9797 379.569 41.1348 378.21 39.7739C376.851 38.413 375.007 37.6476 373.084 37.646H329.767V52.1602Z" fill="#FE5621"/>
<path opacity="0.1" d="M329.767 52.1602H373.084C375.006 52.157 376.85 51.3911 378.208 50.0306C379.567 48.6701 380.331 46.826 380.332 44.9031V44.9031C380.332 42.9797 379.569 41.1348 378.21 39.7739C376.851 38.413 375.007 37.6476 373.084 37.646H329.767V52.1602Z" fill="#10253F"/>
<path opacity="0.1" d="M329.767 47.4465H366.365C366.699 47.4468 367.03 47.3802 367.337 47.2509C367.646 47.1232 367.926 46.936 368.162 46.7C368.398 46.4639 368.585 46.1837 368.713 45.8753C368.842 45.5675 368.909 45.237 368.909 44.9031V44.9031C368.909 44.5692 368.842 44.2386 368.713 43.9308C368.585 43.6224 368.398 43.3422 368.162 43.1062C367.926 42.8701 367.646 42.6829 367.337 42.5553C367.03 42.4259 366.699 42.3594 366.365 42.3596H329.767V47.4465Z" fill="#10253F"/>
<path d="M336.295 37.646H402.045C403.968 37.646 405.813 36.882 407.173 35.5222C408.533 34.1623 409.296 32.318 409.296 30.3949C409.296 28.4718 408.533 26.6274 407.173 25.2676C405.813 23.9078 403.968 23.1438 402.045 23.1438H336.328L336.295 37.646Z" fill="#EBEBEB"/>
<path d="M329.767 37.646H373.084C375.007 37.646 376.851 36.882 378.211 35.5222C379.571 34.1623 380.335 32.318 380.335 30.3949C380.335 28.4718 379.571 26.6274 378.211 25.2676C376.851 23.9078 375.007 23.1438 373.084 23.1438H329.767V37.646Z" fill="#DBDBDB"/>
<path d="M329.767 32.9416H366.365C366.699 32.9413 367.029 32.8759 367.337 32.7489C367.801 32.5557 368.198 32.2299 368.477 31.8122C368.757 31.3945 368.907 30.9037 368.909 30.4011V30.4011C368.909 30.0672 368.842 29.7367 368.713 29.4289C368.587 29.1195 368.4 28.8389 368.162 28.6041C367.927 28.3666 367.646 28.1784 367.337 28.0503C367.029 27.9233 366.699 27.8579 366.365 27.8577H329.767V32.9416Z" fill="#C7C7C7"/>
<path d="M336.295 66.6626H402.045C403.968 66.6602 405.811 65.8945 407.17 64.5337C408.529 63.1729 409.291 61.3283 409.29 59.4055V59.4055C409.29 57.484 408.527 55.6412 407.168 54.2824C405.81 52.9237 403.967 52.1604 402.045 52.1604H336.328L336.295 66.6626Z" fill="#7A5C52"/>
<path d="M329.767 66.6626H373.084C375.007 66.661 376.851 65.8956 378.21 64.5347C379.569 63.1738 380.332 61.3289 380.332 59.4055V59.4055C380.332 58.4538 380.144 57.5114 379.78 56.6322C379.416 55.753 378.882 54.9542 378.208 54.2814C377.535 53.6086 376.736 53.075 375.857 52.711C374.978 52.3471 374.035 52.16 373.084 52.1604H329.767V66.6626Z" fill="#455A64"/>
<path d="M329.767 61.9609H366.365C367.041 61.9585 367.688 61.6881 368.165 61.2091C368.642 60.73 368.909 60.0813 368.909 59.4054V59.4054C368.909 58.73 368.644 58.0813 368.171 57.5994C367.934 57.3615 367.653 57.1724 367.343 57.0426C367.034 56.9132 366.701 56.8467 366.365 56.8469H329.767V61.9609Z" fill="#263238"/>
<path d="M395.324 66.6626H461.042C461.994 66.6631 462.937 66.476 463.817 66.1118C464.696 65.7443 465.495 65.2096 466.171 64.5375C466.843 63.8622 467.375 63.0614 467.739 62.1807C468.103 61.3011 468.29 60.3577 468.287 59.4055C468.287 57.484 467.523 55.6412 466.165 54.2824C464.806 52.9237 462.963 52.1604 461.042 52.1604H395.324V66.6626Z" fill="#FE5621"/>
<path d="M388.796 66.6626H432.116C434.039 66.6602 435.882 65.8945 437.24 64.5337C438.599 63.1729 439.362 61.3283 439.361 59.4055C439.361 57.484 438.598 55.6412 437.239 54.2824C435.88 52.9237 434.037 52.1604 432.116 52.1604H388.796V66.6626Z" fill="#FE5621"/>
<path opacity="0.1" d="M388.796 66.6626H432.116C434.039 66.6602 435.882 65.8945 437.24 64.5337C438.599 63.1729 439.362 61.3283 439.361 59.4055C439.361 57.484 438.598 55.6412 437.239 54.2824C435.88 52.9237 434.037 52.1604 432.116 52.1604H388.796V66.6626Z" fill="#10253F"/>
<path opacity="0.1" d="M388.796 61.9608H425.41C425.828 61.9565 426.239 61.8501 426.607 61.6507C426.976 61.4513 427.289 61.165 427.522 60.8167C427.754 60.4684 427.898 60.0687 427.94 59.6522C427.983 59.2358 427.923 58.8152 427.766 58.4271C427.641 58.1149 427.453 57.8314 427.216 57.5933C426.979 57.3549 426.698 57.1656 426.388 57.0365C426.078 56.9073 425.745 56.8408 425.41 56.8408H388.796V61.9608Z" fill="#10253F"/>
<path d="M395.324 52.1602H461.042C461.994 52.1613 462.937 51.973 463.817 51.6064C464.696 51.2416 465.494 50.7068 466.165 50.0327C466.837 49.3586 467.368 48.5585 467.73 47.6783C468.094 46.7986 468.28 45.8553 468.278 44.9031V44.9031C468.28 43.9509 468.094 43.0076 467.73 42.1279C467.368 41.2477 466.837 40.4476 466.165 39.7735C465.494 39.0994 464.696 38.5646 463.817 38.1998C462.937 37.8332 461.994 37.645 461.042 37.646H395.324V52.1602Z" fill="#EBEBEB"/>
<path d="M388.796 52.1602H432.116C434.038 52.1562 435.881 51.39 437.239 50.0295C438.597 48.6691 439.36 46.8255 439.361 44.9031V44.9031C439.362 42.9802 438.599 41.1357 437.24 39.7749C435.882 38.4141 434.039 37.6484 432.116 37.646H388.796V52.1602Z" fill="#DBDBDB"/>
<path d="M388.796 47.4465H425.41C426.084 47.4465 426.731 47.1785 427.208 46.7016C427.685 46.2246 427.953 45.5776 427.953 44.9031C427.953 44.2285 427.685 43.5816 427.208 43.1046C426.731 42.6276 426.084 42.3596 425.41 42.3596H388.796V47.4465Z" fill="#C7C7C7"/>
<path d="M395.324 37.646H461.042C461.994 37.6488 462.937 37.4633 463.817 37.1002C464.698 36.737 465.497 36.2035 466.171 35.5302C466.844 34.8568 467.378 34.0571 467.741 33.1768C468.104 32.2965 468.289 31.3531 468.287 30.4009V30.4009C468.289 29.4478 468.103 28.5036 467.739 27.6227C467.194 26.2954 466.265 25.1606 465.073 24.3629C463.88 23.5652 462.476 23.1408 461.042 23.1438H395.324V37.646Z" fill="#7A5C52"/>
<path d="M388.796 37.646H432.116C434.039 37.646 435.883 36.882 437.243 35.5222C438.603 34.1623 439.367 32.318 439.367 30.3949C439.367 28.4718 438.603 26.6274 437.243 25.2676C435.883 23.9078 434.039 23.1438 432.116 23.1438H388.796V37.646Z" fill="#455A64"/>
<path d="M388.796 32.9416H425.41C426.084 32.9416 426.73 32.674 427.207 32.1977C427.684 31.7213 427.952 31.0752 427.953 30.4011C427.951 29.727 427.683 29.081 427.206 28.6044C426.73 28.1277 426.084 27.8593 425.41 27.8577H388.796V32.9416Z" fill="#263238"/>
<path d="M286.08 298.77L282.853 318.109L261.003 436.125H257.476L273.368 318.109L275.719 298.77H286.08Z" fill="#DBDBDB"/>
<path d="M275.719 298.77H286.079L282.853 318.109H273.368L275.719 298.77Z" fill="#A6A6A6"/>
<path d="M354.708 436.125H351.18L329.33 318.109L326.104 298.77H336.464L338.815 318.109L354.708 436.125Z" fill="#DBDBDB"/>
<path d="M336.464 298.77L338.815 318.109H329.33L326.104 298.77H336.464Z" fill="#A6A6A6"/>
<path d="M420.244 436.125H416.729L394.879 318.109L391.652 298.77H402.013L404.352 318.109L420.244 436.125Z" fill="#DBDBDB"/>
<path d="M404.339 318.109H394.866L391.64 298.77H402L404.339 318.109Z" fill="#A6A6A6"/>
<path d="M414.666 307.854H254.534V290.998H314.481L334.63 173.788H408.553L414.666 307.854Z" fill="#DBDBDB"/>
<path d="M414.667 307.854H405.938L400.249 173.767H408.554L414.667 307.854Z" fill="#A6A6A6"/>
<path d="M272.561 446.485C275.665 446.07 353.642 407.154 355.637 403.873C355.872 403.503 352.525 396.381 347.742 386.695C336.957 364.767 315.388 327.699 315.388 327.699L268.432 354.081L294.279 403.021C294.279 403.021 285.601 413.517 278.602 422.429C274.268 427.917 270.539 432.802 269.855 434.256C268.025 438.109 269.47 446.916 272.561 446.485Z" fill="#F0BCB3"/>
<path d="M355.625 403.873C353.642 407.154 275.652 446.07 272.549 446.485C269.446 446.901 268.07 438.121 269.807 434.301C270.478 432.844 274.208 427.962 278.536 422.475C282.265 417.77 286.362 412.62 289.532 408.8C287.292 412.216 283.472 418.432 285.691 419.651C289.766 421.891 324.73 403.728 347.697 386.737C352.513 396.369 355.878 403.49 355.625 403.873Z" fill="#263238"/>
<path d="M285.005 398.686L339.398 369.983C339.398 369.983 297.893 288.656 299.013 287.244C302.821 282.329 348.772 284.568 368.616 264.847C389.635 243.96 373.577 214.243 373.577 214.243H318.702C318.702 214.243 319.204 229.136 316.832 231.041C315.276 232.342 234.551 240.135 231.394 261.443C225.885 298.333 285.005 398.686 285.005 398.686Z" fill="#7A5C52"/>
<path d="M283.47 386.749C289.607 383.032 295.901 379.627 302.228 376.232C308.555 372.837 314.915 369.514 321.357 366.377C324.969 364.598 328.704 363.018 332.343 361.239C332.455 361.182 332.554 361.36 332.443 361.417C329.264 363.12 326.173 365.002 323.003 366.714C319.834 368.427 316.73 370.074 313.585 371.753C307.246 375.112 300.85 378.375 294.547 381.665C290.962 383.525 287.323 385.277 283.659 386.996C283.627 387.02 283.586 387.031 283.546 387.026C283.505 387.021 283.468 387.001 283.443 386.969C283.418 386.935 283.407 386.893 283.41 386.851C283.415 386.811 283.437 386.774 283.47 386.749V386.749Z" fill="#263238"/>
<path d="M284.199 278.208C285.553 275.421 289.138 275.015 291.802 274.344C299.104 272.522 306.406 270.703 313.709 268.889C326.652 265.687 339.971 262.665 351.559 255.811C357.161 252.539 362.468 248.397 365.246 242.429C368.024 236.46 368 230.109 368.045 223.782C368.045 222.213 367.955 220.657 367.856 219.101C367.856 218.966 368.069 218.978 368.069 219.101C368.47 225.314 369.111 231.529 367.72 237.679C367.072 240.658 365.892 243.495 364.237 246.056C362.497 248.585 360.363 250.821 357.916 252.678C347.682 260.72 334.812 264.573 322.38 267.728C315.349 269.534 308.303 271.231 301.247 272.956L290.381 275.647C288.766 275.858 287.227 276.462 285.899 277.405C285.387 277.914 285 278.534 284.767 279.218C284.534 279.901 284.462 280.629 284.557 281.345C284.716 282.838 285.093 284.299 285.676 285.682C286.327 287.383 287.019 289.038 287.702 290.763C289.033 294.072 290.407 297.361 291.826 300.63C294.669 307.232 297.625 313.784 300.693 320.285C306.798 333.228 313.314 346.045 319.957 358.687C320.788 360.267 321.595 361.868 322.411 363.449C322.413 363.458 322.413 363.469 322.411 363.479C322.412 363.491 322.412 363.503 322.411 363.515C322.408 363.526 322.402 363.537 322.395 363.546C322.388 363.556 322.379 363.563 322.368 363.569C322.346 363.578 322.321 363.578 322.299 363.569C322.276 363.562 322.257 363.547 322.245 363.527C315.123 350.984 308.471 338.15 302.078 325.191C295.685 312.233 289.758 299.278 284.719 285.884C283.895 283.539 283.037 280.628 284.199 278.208Z" fill="#263238"/>
<path d="M126.216 439.114C129.072 440.402 215.808 448.746 219.225 447.009C219.637 446.82 221.633 428.263 221.633 428.263C239.316 397.477 255.546 367.608 255.546 367.608L194.97 361.059L167.654 413.773C167.654 413.773 154.732 418.071 144.035 421.9C137.452 424.251 131.718 426.379 130.351 427.297C126.818 429.608 123.356 437.838 126.216 439.114Z" fill="#F0BCB3"/>
<path d="M222.02 427.652C221.897 427.866 221.762 428.067 221.65 428.293C221.65 428.293 219.634 446.859 219.221 447.051C215.805 448.785 129.057 440.429 126.212 439.156C123.368 437.883 126.814 429.648 130.345 427.363C131.702 426.478 137.433 424.317 144.019 421.963C147.448 420.732 151.108 419.456 154.491 418.291C150.897 420.127 146.56 422.836 147.637 424.642C150.169 428.766 193.428 431.131 222.02 427.652Z" fill="#263238"/>
<path d="M171.883 401.654L240.21 409.944C240.21 409.944 273.961 322.377 279.304 316.676C282.013 313.778 292.274 310.563 313.898 305.813H314.021C322.007 304.055 330.474 302.096 338.817 299.856C360.52 294.056 381.373 286.417 390.89 275.924C410.756 253.951 390.89 214.219 390.89 214.219H334.904C334.904 214.219 333.517 231.511 337.806 242.094C337.806 242.094 296.593 248.141 261.888 259.408C242.22 265.78 232.489 273.856 225.681 283.44C212.355 302.219 171.883 401.654 171.883 401.654Z" fill="#7A5C52"/>
<path d="M181.491 390.692C189.131 391.104 196.71 391.866 204.316 392.651C211.922 393.437 219.502 394.319 227.072 395.36C231.34 395.962 235.572 396.739 239.828 397.344C239.961 397.344 239.952 397.567 239.828 397.543C235.996 397.151 232.156 396.941 228.327 396.57C224.498 396.2 220.802 395.797 217.027 395.385C209.433 394.554 201.851 393.624 194.26 392.739C189.98 392.248 185.723 391.622 181.47 390.984C181.45 390.981 181.431 390.975 181.413 390.966C181.397 390.956 181.383 390.944 181.371 390.93C181.357 390.917 181.346 390.9 181.341 390.882C181.338 390.863 181.338 390.843 181.341 390.824C181.337 390.807 181.337 390.788 181.341 390.77C181.349 390.753 181.362 390.737 181.377 390.725C181.391 390.713 181.408 390.704 181.425 390.698C181.444 390.693 181.464 390.693 181.482 390.698L181.491 390.692Z" fill="#263238"/>
<path d="M362.356 222.37C362.437 222.628 362.537 222.88 362.657 223.122C362.667 223.129 362.676 223.138 362.681 223.149C362.683 223.16 362.683 223.171 362.681 223.182C362.683 223.194 362.683 223.207 362.681 223.219L362.657 223.246C363.398 225.485 363.711 227.98 364.415 230.277C365.094 232.732 366.597 234.879 368.671 236.357C373.018 239.367 378.246 240.737 383.297 241.959C383.453 241.959 383.408 242.227 383.297 242.239C380.368 242.248 377.456 241.802 374.664 240.917C372.054 240.197 369.592 239.017 367.395 237.435C365.336 235.871 363.867 233.655 363.229 231.15C362.912 229.817 362.669 228.467 362.501 227.107C362.214 225.547 362.046 223.967 361.998 222.382C362.017 222.354 362.041 222.33 362.07 222.312C362.101 222.297 362.135 222.288 362.17 222.285C362.203 222.286 362.235 222.293 362.266 222.306C362.301 222.32 362.332 222.341 362.356 222.37V222.37Z" fill="#263238"/>
<path d="M327.527 238.227C330.986 239.232 334.357 240.52 337.604 242.079L337.764 242.146C337.688 241.951 337.635 241.75 337.604 241.544C337.59 241.298 337.553 241.054 337.493 240.815C337.483 240.56 337.457 240.306 337.415 240.054V239.662C336.996 239.639 336.586 239.527 336.214 239.334C335.841 239.141 335.514 238.871 335.253 238.543C334.578 237.596 334.116 236.515 333.899 235.373C333.529 233.94 333.183 232.508 332.87 231.051C332.557 229.594 332.219 227.827 331.967 226.19C331.662 224.6 331.479 222.99 331.419 221.374C331.415 221.345 331.415 221.315 331.419 221.286C331.428 221.258 331.441 221.232 331.458 221.208C331.477 221.185 331.501 221.166 331.527 221.151C331.552 221.136 331.58 221.126 331.608 221.124C331.638 221.12 331.667 221.122 331.696 221.13C331.724 221.137 331.751 221.151 331.774 221.169C331.798 221.186 331.817 221.209 331.831 221.235C331.847 221.261 331.857 221.289 331.861 221.319C332.24 222.824 332.409 224.329 332.689 225.798C332.969 227.267 333.291 228.808 333.64 230.277C333.989 231.746 334.356 233.269 334.76 234.759C335.163 236.249 335.488 237.983 337.002 238.419C340.136 239.304 338.727 232.249 338.592 230.873C338.266 227.667 338.077 224.411 337.472 221.241C337.473 221.214 337.483 221.188 337.502 221.169C337.52 221.15 337.545 221.139 337.571 221.139C337.598 221.139 337.624 221.15 337.643 221.169C337.662 221.188 337.673 221.214 337.674 221.241C338.357 224.152 339.139 227.008 339.654 229.97C339.913 231.415 340.091 232.872 340.256 234.326C340.515 235.58 340.41 236.882 339.955 238.079C339.763 238.486 339.473 238.839 339.111 239.107C338.749 239.375 338.327 239.549 337.881 239.614L337.984 239.948C338.05 240.183 338.128 240.409 338.185 240.656L338.354 241.36C338.463 241.637 338.497 241.938 338.453 242.233C338.441 242.273 338.421 242.311 338.394 242.343C338.367 242.376 338.334 242.403 338.297 242.422C339.642 243.006 340.985 243.545 342.318 244.204C343.982 244.862 345.592 245.648 347.134 246.555C347.315 246.633 347.134 246.892 347.002 246.856C345.271 246.374 343.579 245.764 341.939 245.032C340.259 244.382 338.58 243.699 336.933 243.003C333.62 241.784 330.417 240.286 327.358 238.524C327.333 238.499 327.317 238.466 327.313 238.431C327.308 238.395 327.315 238.358 327.334 238.326C327.351 238.296 327.378 238.271 327.409 238.257C327.444 238.246 327.48 238.246 327.515 238.257L327.527 238.227Z" fill="#263238"/>
<path d="M245.818 366.401C249.292 357.823 252.965 349.323 256.838 340.901C260.711 332.479 264.798 324.151 269.1 315.918C270.973 312.345 272.673 308.73 276.415 306.791C278.135 305.967 279.937 305.325 281.791 304.877C283.97 304.293 286.157 303.729 288.352 303.185C306.193 298.706 351.761 284.707 360.331 281.348C367.284 278.639 374.24 275.466 380.028 270.662C382.822 268.402 385.211 265.683 387.095 262.623C389.335 258.938 394.419 248.936 386.816 218.656C386.816 218.52 386.96 218.421 387.005 218.541C393.064 240.123 391.788 251.871 390.677 256.148C389.739 259.817 388.045 263.251 385.705 266.229C381.226 271.948 374.887 275.939 368.403 279.03C360.619 282.583 352.591 285.576 344.381 287.988C326.721 293.52 289.505 303.802 285.084 304.943C281.107 305.964 276.472 306.767 273.627 309.994C272.288 311.68 271.159 313.522 270.265 315.481C269.146 317.543 268.137 319.602 267.096 321.676C264.963 325.922 262.865 330.185 260.802 334.465C252.717 351.375 245.353 368.614 238.708 386.18C237.89 388.353 237.083 390.527 236.243 392.688C236.239 392.704 236.231 392.72 236.22 392.733C236.209 392.747 236.195 392.758 236.18 392.766C236.146 392.78 236.109 392.78 236.075 392.766C236.042 392.754 236.014 392.73 235.996 392.7C235.989 392.684 235.985 392.666 235.985 392.649C235.985 392.631 235.989 392.613 235.996 392.597C238.919 383.76 242.336 375.013 245.818 366.401Z" fill="#263238"/>
<path d="M272.628 328.054L275.62 321.131C276.436 319.229 277.125 316.866 278.732 315.466C280.34 314.066 282.552 313.618 284.5 313.001C286.823 312.254 289.153 311.538 291.489 310.852C296.853 309.284 302.286 307.794 307.794 306.764C307.822 306.772 307.846 306.789 307.863 306.812C307.881 306.836 307.891 306.864 307.89 306.894C307.891 306.922 307.881 306.95 307.863 306.972C307.847 306.996 307.822 307.013 307.794 307.02C303.249 308.633 298.601 310.03 293.996 311.502L287.142 313.639L283.594 314.759C282.598 315.041 281.625 315.397 280.683 315.824C278.654 316.854 277.974 318.97 277.119 320.92C276.123 323.16 275.138 325.399 274.151 327.696C272.192 332.175 270.256 336.653 268.252 341.132C266.012 346.072 263.86 351.065 261.53 355.939C261.386 356.24 260.871 356.017 260.995 355.704C264.61 346.331 268.688 337.204 272.628 328.054Z" fill="#263238"/>
<path d="M232.011 275.346C236.197 270.331 241.91 266.544 247.69 263.589C253.72 260.609 259.981 258.122 266.412 256.151C280.886 251.628 295.651 248.096 310.605 245.58C314.819 244.842 319.006 244.18 323.226 243.563C325.354 243.262 327.494 242.982 329.631 242.702C331.768 242.422 333.742 242.118 335.813 241.974C335.949 241.974 335.961 242.164 335.813 242.197C332.201 243.1 328.457 243.72 324.782 244.439L313.708 246.546C306.327 247.946 298.959 249.391 291.624 251.028C284.288 252.665 277.064 254.622 269.861 256.84C263.358 258.767 256.997 261.143 250.823 263.95C247.547 265.473 244.385 267.228 241.36 269.202C238.292 271.249 235.384 273.525 232.661 276.011C232.188 276.462 231.64 275.833 232.011 275.346Z" fill="#263238"/>
<path d="M342.421 86.5254C352.655 91.5069 359.108 103.234 359.108 103.234C359.108 103.234 370.733 113.311 371.013 120.827C371.142 122.957 370.752 125.085 369.876 127.03C368.999 128.975 367.664 130.678 365.983 131.991L365.414 127.961C365.414 127.961 364.62 133.65 357.104 138.421C349.588 143.192 337.885 144.366 331.278 143.438C327.355 142.904 323.639 141.359 320.493 138.957L324.493 143.718C324.493 143.718 316.451 146.159 308.814 139.327C301.178 132.494 310.593 115.686 310.84 112.673C311.087 109.66 306.024 90.0982 327.223 86.5013C327.247 86.5013 335.389 83.097 342.421 86.5254Z" fill="#263238"/>
<path d="M368.716 130.472C370.561 128.411 371.733 125.836 372.075 123.091C372.544 120.368 372.083 117.567 370.766 115.139C369.153 112.249 366.588 110.076 364.048 107.96C361.507 105.844 358.729 103.773 356.207 101.542C356.074 101.419 356.207 101.217 356.408 101.296C358.909 102.778 361.321 104.406 363.632 106.169C365.923 107.708 368.021 109.515 369.881 111.554C371.623 113.425 372.789 115.759 373.24 118.275C373.504 120.348 373.263 122.453 372.536 124.412C371.574 126.63 370.325 128.711 368.821 130.604C368.794 130.727 368.605 130.565 368.716 130.472Z" fill="#263238"/>
<path d="M304.155 131.197C304.155 123.371 308.947 116.749 310.696 109.293C311.635 105.272 311.993 101.04 313.706 97.2532C313.706 97.1388 313.931 97.2532 313.886 97.3314C312.553 100.691 312.33 104.254 311.737 107.755C311.048 111.29 310.004 114.747 308.622 118.073C306.271 124.211 303.438 131.513 306.641 137.84C308.119 140.784 311.12 143.574 314.593 143.439C314.615 143.445 314.635 143.459 314.648 143.478C314.662 143.497 314.669 143.52 314.669 143.544C314.67 143.568 314.662 143.591 314.648 143.61C314.634 143.629 314.615 143.644 314.593 143.652C313.176 143.577 311.789 143.215 310.516 142.587C309.243 141.96 308.111 141.08 307.189 140.001C305.149 137.528 304.072 134.401 304.155 131.197Z" fill="#263238"/>
<path d="M304.512 133.189C303.391 130.602 303.093 127.732 303.66 124.969C304.425 122.279 305.759 119.786 307.573 117.658C309.509 115.126 311.616 112.64 312.299 109.449C312.3 109.423 312.311 109.397 312.329 109.377C312.347 109.359 312.372 109.348 312.399 109.347C312.426 109.348 312.451 109.358 312.471 109.377C312.489 109.397 312.5 109.423 312.501 109.449C311.471 114.678 307.36 118.407 305.355 123.145C303.116 128.62 305.165 134.746 309.364 138.668C311.991 141.034 315.14 142.745 318.554 143.661V143.764C312.733 142.319 306.92 138.969 304.512 133.189Z" fill="#263238"/>
<path d="M339.531 153.338C323.382 165.749 299.799 181.65 283.054 183.375C269.705 184.763 235.839 170.17 221.65 159.253C216.644 155.4 235.09 137.716 241.817 136.377C245.872 135.558 279.087 155.34 285.056 155.012C294.116 154.506 318.072 145.055 337.243 140.061C347.36 137.425 349.578 145.615 339.531 153.338Z" fill="#F0BCB3"/>
<path d="M226.791 162.471C223.556 160.689 209.466 151.216 206.128 147.698C202.79 144.179 193.943 133.376 196.375 130.541C198.808 127.705 201.649 130.676 201.649 130.676C201.649 130.676 198.639 125.511 201.348 122.85C204.057 120.189 208.325 124.978 208.325 124.978C208.325 124.978 205.616 119.458 208.503 117.038C211.389 114.618 214.887 120.108 214.887 120.108C214.887 120.108 212.178 115.181 215.39 114.181C219.266 112.977 223.216 122.649 227.207 126.246C228.11 127.061 246.657 141.53 246.657 141.53L226.791 162.471Z" fill="#F0BCB3"/>
<path d="M214.574 119.675C217.518 126.763 220.037 129.361 226.207 133.716C226.331 133.806 226.207 134.017 226.096 133.93C219.658 130.213 216.019 127.41 214.225 119.783C214.137 119.449 214.438 119.358 214.574 119.675Z" fill="#263238"/>
<path d="M208.087 124.467C211.783 131.579 214.492 134.4 220.63 139.453C220.646 139.471 220.655 139.495 220.656 139.519C220.657 139.543 220.65 139.567 220.636 139.587C220.621 139.606 220.6 139.62 220.577 139.626C220.553 139.632 220.528 139.629 220.506 139.619C214.107 135.14 210.54 132.296 207.786 124.713C207.65 124.367 207.93 124.154 208.087 124.467Z" fill="#263238"/>
<path d="M201.974 130.941C206.05 137.563 208.897 140.796 215.414 144.929C215.439 144.951 215.457 144.982 215.462 145.016C215.467 145.049 215.459 145.084 215.441 145.112C215.425 145.142 215.398 145.165 215.366 145.175C215.333 145.184 215.299 145.184 215.266 145.175C208.145 141.615 204.584 137.605 201.721 131.086C201.583 130.637 201.718 130.526 201.974 130.941Z" fill="#263238"/>
<path d="M252.292 142.072C252.292 142.072 249.155 132.973 246.916 129.283C244.677 125.592 231.171 114.916 228.705 117.691C225.515 121.276 232.068 128.982 235.797 132.329C235.797 132.329 228.404 140.615 231.92 147.168C235.436 153.721 252.292 142.072 252.292 142.072Z" fill="#F0BCB3"/>
<path d="M228.133 119.003C227.586 124.367 232.748 128.455 236.098 131.97C236.15 132.02 236.189 132.081 236.212 132.148C236.236 132.216 236.243 132.288 236.233 132.359C236.222 132.429 236.193 132.496 236.15 132.553C236.107 132.61 236.051 132.656 235.987 132.687C233.118 136.371 230.15 142.409 231.619 147.111C231.62 147.126 231.62 147.141 231.619 147.156C231.623 147.17 231.623 147.184 231.619 147.198C231.615 147.212 231.606 147.225 231.595 147.234C231.583 147.244 231.57 147.252 231.556 147.258H231.514C231.5 147.263 231.485 147.263 231.472 147.258C231.458 147.253 231.446 147.245 231.435 147.234C231.425 147.223 231.416 147.21 231.411 147.195C229.172 142.379 231.589 136.212 234.984 132.368C231.49 128.819 226.505 124.542 228.097 118.997C228.096 118.994 228.096 118.99 228.096 118.986C228.097 118.983 228.099 118.979 228.101 118.977C228.103 118.974 228.106 118.972 228.11 118.97C228.113 118.969 228.117 118.969 228.121 118.969C228.124 118.97 228.128 118.971 228.13 118.974C228.133 118.976 228.135 118.979 228.137 118.983C228.138 118.986 228.138 118.99 228.138 118.993C228.137 118.997 228.136 119.001 228.133 119.003Z" fill="#263238"/>
<path d="M316.495 173.653L315.318 144.757C315.318 144.757 329.285 140.703 337.324 139.55C347.977 138.027 351.032 141.621 342.441 151.623C336.686 158.299 316.495 173.653 316.495 173.653Z" fill="#FE5621"/>
<path d="M319.117 170.598C319.24 166.384 319.294 162.17 319.171 157.956C319.105 155.849 319.005 153.742 318.87 151.635C318.735 149.528 318.397 147.448 318.298 145.353C318.298 145.229 318.108 145.253 318.118 145.353C318.331 147.436 318.253 149.567 318.343 151.674C318.434 153.781 318.521 155.888 318.59 157.995C318.735 162.209 318.891 166.405 318.924 170.604C318.925 170.627 318.934 170.65 318.951 170.667C318.959 170.675 318.969 170.682 318.98 170.687C318.991 170.692 319.003 170.694 319.014 170.694C319.038 170.693 319.061 170.683 319.077 170.667C319.094 170.65 319.104 170.627 319.105 170.604L319.117 170.598Z" fill="#263238"/>
<path d="M316.026 162.23L316.496 173.686C316.496 173.686 336.663 158.335 342.433 151.647C346.454 146.978 347.92 143.706 347.249 141.714L316.026 162.23Z" fill="#263238"/>
<path d="M317.85 220.464C317.85 220.464 349.834 222.337 394.138 222.391C394.138 222.391 374.618 160.069 358.894 143.27C351.739 135.621 344.747 136.798 338.814 141.714C337.336 142.936 319.005 166.206 317.443 174.315C316.077 181.482 321.925 189.443 321.925 189.443L317.85 220.464Z" fill="#FE5621"/>
<path opacity="0.1" d="M345.644 138.042H350.798C349.104 137.632 347.338 137.632 345.644 138.042V138.042ZM338.824 141.654C339.125 141.407 339.408 141.184 339.709 140.961H356.508C356.866 141.241 357.224 141.563 357.627 141.888H338.589L338.824 141.654ZM336.115 144.835H360.327L361.056 145.765H335.374L336.115 144.835ZM333.081 148.709H363.181L363.783 149.639H332.376L333.081 148.709ZM330.191 152.586H365.634L366.173 153.513H329.499L330.191 152.586ZM327.404 156.451H367.822L368.325 157.381H326.766L327.404 156.451ZM324.761 160.325H369.86C370.028 160.626 370.185 160.942 370.329 161.255H324.144L324.761 160.325ZM322.275 164.202H371.807C371.943 164.503 372.108 164.804 372.244 165.132H321.715L322.275 164.202ZM320.035 168.075H373.613C373.761 168.376 373.893 168.692 374.041 169.005H319.53C319.686 168.704 319.831 168.403 320.023 168.075H320.035ZM318.175 171.94H375.365L375.769 172.87H317.829C317.928 172.569 318.052 172.298 318.163 171.94H318.175ZM317.272 175.814H377.039L377.409 176.777H317.209C317.233 176.44 317.242 176.127 317.254 175.814H317.272ZM378.676 179.688C378.812 179.989 378.935 180.29 379.055 180.618H317.796C317.718 180.317 317.648 180.016 317.582 179.688H378.676ZM380.256 183.565L380.624 184.495H319.172C319.027 184.194 318.904 183.893 318.768 183.565H380.256ZM381.789 187.427C381.912 187.728 382.035 188.056 382.147 188.357H321.233C321.065 188.101 320.875 187.785 320.661 187.427H381.789ZM321.661 191.34H383.269C383.381 191.641 383.492 191.942 383.616 192.27H321.513L321.661 191.34ZM321.146 195.214H384.735C384.847 195.515 384.97 195.831 385.081 196.144H321.032L321.146 195.214ZM320.643 199.09H386.168L386.505 200.018H320.517L320.643 199.09ZM320.138 202.952H387.562L387.899 203.882H320.011L320.138 202.952ZM319.635 206.826H388.934C389.037 207.142 389.148 207.443 389.259 207.756H319.509L319.635 206.826ZM319.129 210.703H390.277C390.379 211.004 390.49 211.329 390.578 211.633H319.006L319.129 210.703ZM318.615 214.577H391.589C391.7 214.878 391.803 215.203 391.89 215.507H318.5L318.615 214.577ZM318.109 218.457H392.874C392.974 218.782 393.076 219.095 393.175 219.387H317.998L318.109 218.457ZM394.126 222.331C394.123 222.35 394.123 222.369 394.126 222.388C389.979 222.388 385.94 222.369 382.011 222.331H394.126Z" fill="#030402"/>
<path d="M361.537 146.732C374.519 168.771 391.273 205.448 381.069 211.922C364.27 222.571 318.825 224.341 308.444 224.317C303.965 224.317 298.655 194.383 302.048 191.012C305.44 187.64 352.917 190.765 353.564 187.911C353.958 186.298 351.851 171.76 349.389 153.685C346.566 132.855 357.832 140.414 361.537 146.732Z" fill="#F0BCB3"/>
<path d="M311.502 189.678C311.502 189.678 298.231 186.578 289.451 184.964C284.557 184.061 276.011 183.264 272.137 184.248C266.301 185.714 242.85 195.581 245.126 201.315C247.172 206.513 266.247 195.481 266.247 195.481C266.247 195.481 246.014 204.912 249.626 210.712C253.238 216.512 273.143 201.17 273.143 201.17C273.143 201.17 252.581 211.338 257.262 216.726C260.802 220.789 279.593 207.922 279.593 207.922C279.593 207.922 261.979 216.771 265.446 221.114C269.263 225.93 287.362 215.125 287.362 215.125C298.011 224.687 306.993 224.889 313.398 224.263C314.961 224.115 311.502 189.678 311.502 189.678Z" fill="#F0BCB3"/>
<path d="M273.031 191.761C270.623 192.791 268.161 193.811 265.852 195.042C263.544 196.273 261.25 197.585 259.068 199.03C256.166 200.861 253.483 203.017 251.07 205.457C255.664 201.438 263.893 196.89 266.214 195.659C268.534 194.428 270.771 193.083 273.088 191.851C273.146 191.818 273.104 191.74 273.031 191.761Z" fill="#263238"/>
<path d="M277.636 200.051C274.626 201.495 271.553 202.805 268.585 204.382C265.617 205.959 262.986 207.741 260.13 209.457C259.919 209.589 260.064 209.659 260.286 209.535C263.188 207.889 266.005 206.579 268.922 204.966C271.839 203.353 274.71 201.607 277.678 200.117C277.735 200.096 277.735 200.027 277.636 200.051Z" fill="#263238"/>
<path d="M282.876 206.456C278.178 208.546 273.709 211.116 269.539 214.125C269.325 214.273 269.539 214.351 269.741 214.216C274.129 211.573 277.567 209.478 282.943 206.612C283.036 206.567 282.967 206.417 282.876 206.456Z" fill="#263238"/>
<path d="M378.134 174.706L349.41 171.055C349.41 171.055 347.742 156.607 347.953 148.48C348.224 137.729 352.287 135.309 360.709 145.47C366.377 152.237 378.134 174.706 378.134 174.706Z" fill="#FE5621"/>
<path d="M352.938 171.501C352.637 171.401 349.702 170.932 349.488 170.953C349.332 169.249 349.187 167.594 349.028 165.836C348.941 164.987 348.838 164.135 348.727 163.283C348.603 162.353 348.513 161.279 348.402 160.46C348.404 160.447 348.404 160.434 348.4 160.421C348.397 160.408 348.391 160.396 348.382 160.386C348.374 160.376 348.363 160.367 348.351 160.362C348.339 160.356 348.326 160.353 348.313 160.353C348.3 160.353 348.287 160.356 348.275 160.362C348.263 160.367 348.252 160.376 348.244 160.386C348.235 160.396 348.229 160.408 348.226 160.421C348.222 160.434 348.222 160.447 348.224 160.46C348.224 161.583 348.324 162.365 348.357 163.304C348.39 164.244 348.447 164.996 348.513 165.827C348.67 167.606 348.748 169.499 348.986 171.269C350.294 171.467 351.615 171.576 352.938 171.594C352.938 171.594 352.983 171.525 352.938 171.501Z" fill="#263238"/>
<path d="M375.57 171.615C371.437 170.796 367.296 170.035 363.106 169.463C361.023 169.174 358.936 168.917 356.845 168.692C354.738 168.467 352.631 168.458 350.551 168.211C350.538 168.208 350.525 168.209 350.512 168.212C350.499 168.216 350.487 168.222 350.477 168.23C350.467 168.239 350.459 168.249 350.453 168.261C350.447 168.273 350.444 168.286 350.444 168.3C350.444 168.313 350.447 168.326 350.453 168.338C350.459 168.35 350.467 168.36 350.477 168.369C350.487 168.377 350.499 168.384 350.512 168.387C350.525 168.39 350.538 168.391 350.551 168.388C352.658 168.524 354.741 168.96 356.824 169.219C358.907 169.478 361.002 169.743 363.097 170.023C367.263 170.583 371.428 171.142 375.582 171.793C375.673 171.817 375.685 171.636 375.57 171.615Z" fill="#263238"/>
<path d="M350.307 140.158C350.237 141.536 345.512 151.277 339.419 152.119C337.439 152.375 335.488 141.615 335.488 141.615L335.163 140.853L330.618 130.18L342.14 119.362L343.832 117.905C343.832 117.905 344.886 120.915 346.15 124.623C346.185 124.81 346.246 124.991 346.33 125.162C346.385 125.352 346.487 125.565 346.553 125.764C346.743 126.324 346.944 126.884 347.137 127.465C347.33 128.045 347.417 128.328 347.549 128.786L347.977 130.152C348.981 133.429 349.76 136.771 350.307 140.155V140.158Z" fill="#F0BCB3"/>
<path d="M346.15 124.659C345.603 127.994 344.337 131.17 342.44 133.966C340.543 136.762 338.06 139.112 335.163 140.853L330.618 130.18L342.14 119.362L343.832 117.905C343.832 117.905 344.931 120.906 346.15 124.659Z" fill="#263238"/>
<path d="M311.523 116.695C314.042 136.862 326.428 137.671 330.787 137.133C334.739 136.63 348.145 134.424 347.73 114.085C347.315 93.7465 337.123 88.5001 328.021 89.1563C318.918 89.8124 309.015 96.4916 311.523 116.695Z" fill="#F0BCB3"/>
<path d="M313.943 112.854C314.391 112.712 314.832 112.548 315.264 112.36C315.754 112.257 316.196 111.993 316.519 111.611C316.596 111.47 316.623 111.308 316.598 111.15C316.573 110.992 316.498 110.847 316.384 110.735C316.124 110.549 315.818 110.436 315.499 110.41C315.179 110.383 314.858 110.441 314.569 110.578C313.947 110.755 313.412 111.154 313.064 111.698C312.979 111.831 312.937 111.987 312.943 112.145C312.949 112.303 313.004 112.455 313.1 112.58C313.195 112.705 313.326 112.799 313.476 112.848C313.625 112.897 313.786 112.899 313.937 112.854H313.943Z" fill="#263238"/>
<path d="M327.75 110.783C327.268 110.783 326.82 110.726 326.35 110.693C325.854 110.724 325.36 110.599 324.938 110.335C324.821 110.222 324.744 110.074 324.722 109.913C324.696 109.754 324.726 109.59 324.806 109.45C325.003 109.198 325.264 109.003 325.561 108.885C325.858 108.767 326.181 108.731 326.498 108.778C327.155 108.779 327.788 109.022 328.276 109.462C328.38 109.57 328.449 109.705 328.478 109.852C328.506 109.999 328.492 110.151 328.436 110.289C328.381 110.429 328.287 110.549 328.165 110.636C328.043 110.723 327.899 110.774 327.75 110.783V110.783Z" fill="#263238"/>
<path d="M325.288 116.192C325.288 116.192 325.399 116.246 325.411 116.304C325.534 117.682 325.914 119.235 327.217 119.551V119.618C325.667 119.593 325.176 117.526 325.288 116.192Z" fill="#263238"/>
<path d="M326.341 114.612C328.58 114.175 329.251 118.588 327.223 119.003C325.194 119.419 324.502 114.97 326.341 114.612Z" fill="#263238"/>
<path d="M327.247 114.69C327.671 114.88 328.12 115.262 328.589 115.226C329.059 115.19 329.474 114.666 329.709 114.163H329.787C329.92 114.554 329.9 114.981 329.733 115.358C329.566 115.736 329.263 116.036 328.884 116.201C328.077 116.448 327.361 115.798 327.003 114.997C327.012 114.868 327.012 114.612 327.247 114.69Z" fill="#263238"/>
<path d="M317.652 117.143C317.652 117.086 317.549 117.221 317.561 117.279C317.841 118.645 317.931 120.247 316.767 120.891V120.969C318.254 120.514 318.052 118.386 317.652 117.143Z" fill="#263238"/>
<path d="M316.17 115.924C313.931 116.135 314.524 120.572 316.586 120.403C318.648 120.235 318.052 115.744 316.17 115.924Z" fill="#263238"/>
<path d="M315.286 116.312C314.961 116.592 314.684 117.065 314.256 117.152C313.829 117.24 313.353 116.806 312.98 116.391H312.923C313.013 117.243 313.404 118.094 314.244 118.152C315.084 118.209 315.448 117.399 315.545 116.526C315.566 116.448 315.409 116.225 315.286 116.312Z" fill="#263238"/>
<path d="M321.637 125.956C322.29 126.676 323.12 127.212 324.045 127.513C324.548 127.669 325.086 127.669 325.589 127.513C326.709 127.121 326.609 126.101 326.329 125.273C326.183 124.817 325.981 124.38 325.727 123.973C324.617 125.054 323.188 125.75 321.652 125.956H321.637Z" fill="#263238"/>
<path d="M324.045 127.513C324.548 127.669 325.086 127.669 325.589 127.513C326.709 127.121 326.609 126.101 326.33 125.273C325.754 125.34 325.217 125.596 324.804 126.002C324.39 126.407 324.123 126.939 324.045 127.513V127.513Z" fill="#FF9CBD"/>
<path d="M320.797 123.302C320.792 124.32 320.847 125.339 320.963 126.351C320.963 126.441 321.219 126.45 321.544 126.417C322.398 126.447 323.243 126.24 323.987 125.819C324.731 125.399 325.344 124.78 325.758 124.033C325.773 124.011 325.779 123.984 325.776 123.958C325.769 123.931 325.753 123.907 325.731 123.892C325.72 123.884 325.708 123.879 325.695 123.876C325.682 123.873 325.668 123.874 325.655 123.876C325.643 123.879 325.63 123.884 325.619 123.891C325.609 123.898 325.599 123.908 325.592 123.919C324.484 124.95 323.071 125.593 321.565 125.749C321.45 125.49 321.643 122.176 321.484 122.188C320.747 122.366 320.038 122.645 319.377 123.016C319.199 118.66 319.714 114.314 319.467 109.979C319.459 109.952 319.442 109.929 319.419 109.913C319.395 109.895 319.367 109.886 319.337 109.886C319.308 109.886 319.28 109.896 319.256 109.913C319.234 109.93 319.217 109.953 319.208 109.979C318.504 114.621 318.272 119.323 318.516 124.012C318.555 124.545 320.439 123.524 320.797 123.302Z" fill="#263238"/>
<path d="M346.43 115.834C344.19 115.888 337.929 110.335 336.822 99.6943C336.822 99.6943 338.48 109.182 339.32 110.512C340.16 111.843 335.813 107.379 334.838 98.8214C332.305 100.996 329.473 102.795 326.428 104.164C322.476 105.669 319.99 105.832 319.71 105.564C319.43 105.296 325.197 102.897 326.633 100.892C326.633 100.892 316.284 106.852 311.345 107.614C310.776 107.713 309.106 95.9438 316.296 90.2429C323.487 84.5419 336.196 88.9004 339.747 91.778C339.747 91.778 343.66 91.9796 348.326 97.3103C352.991 102.641 348.816 115.765 346.43 115.834Z" fill="#263238"/>
<path d="M330.125 122.329C331.284 122.028 332.336 121.406 333.159 120.536C333.983 119.666 334.546 118.582 334.784 117.408C335.021 116.234 334.924 115.017 334.504 113.895C334.084 112.773 333.357 111.792 332.406 111.063C331.455 110.334 330.318 109.887 329.126 109.772C327.933 109.658 326.733 109.88 325.66 110.415C324.588 110.95 323.688 111.775 323.062 112.796C322.435 113.817 322.108 114.994 322.118 116.192V116.192C322.124 117.031 322.296 117.861 322.622 118.634C322.949 119.407 323.425 120.108 324.023 120.696C324.621 121.285 325.33 121.75 326.107 122.065C326.885 122.38 327.718 122.538 328.557 122.531C329.086 122.532 329.613 122.464 330.125 122.329V122.329ZM327.115 110.792C327.556 110.67 328.012 110.61 328.469 110.614C329.873 110.606 331.228 111.132 332.257 112.088C333.286 113.043 333.913 114.354 334.008 115.755C334.104 117.156 333.662 118.54 332.773 119.627C331.884 120.713 330.613 121.42 329.221 121.602C327.829 121.785 326.42 121.43 325.28 120.609C324.141 119.789 323.357 118.565 323.088 117.187C322.82 115.809 323.087 114.38 323.835 113.192C324.583 112.004 325.756 111.145 327.115 110.792V110.792Z" fill="#FE5621"/>
<path d="M315.598 124.301C317.961 123.672 319.475 120.689 318.96 117.378C318.767 115.797 318.081 114.316 317.001 113.146C316.347 112.351 315.41 111.84 314.387 111.721C313.364 111.603 312.335 111.886 311.517 112.511C310.976 112.926 310.551 113.472 310.279 114.097C309.569 115.524 309.322 117.138 309.575 118.711C310.066 122.194 312.585 124.731 315.174 124.31C315.315 124.318 315.457 124.315 315.598 124.301V124.301ZM313.19 112.64C313.288 112.609 313.389 112.586 313.491 112.574C314.036 112.518 314.586 112.595 315.094 112.8C315.602 113.006 316.052 113.332 316.405 113.751C317.361 114.794 317.967 116.109 318.139 117.514C318.566 120.524 317.187 123.233 315.05 123.534C312.913 123.835 310.836 121.616 310.403 118.594C310.174 117.2 310.393 115.769 311.029 114.507C311.236 114.061 311.534 113.665 311.905 113.342C312.275 113.019 312.709 112.778 313.178 112.634L313.19 112.64Z" fill="#FE5621"/>
<path d="M322.431 116.896L322.88 116.168C321.76 115.497 319.442 114.735 318.13 116.604L318.825 117.098C320.002 115.418 322.332 116.839 322.431 116.896Z" fill="#FE5621"/>
<path d="M350.855 114.546L351.55 114.052C351.312 113.727 349.241 110.873 347.303 110.837C345.364 110.801 334.315 113.471 333.866 113.582L334.056 114.41C337.271 113.64 345.915 111.656 347.3 111.701C348.684 111.746 350.295 113.76 350.855 114.546Z" fill="#FE5621"/>
<path d="M348.693 121.535C348.421 121.714 348.128 121.861 347.821 121.971C347.524 122.095 347.21 122.17 346.89 122.194C346.476 122.248 346.055 122.206 345.659 122.071C345.351 121.971 345.056 121.833 344.783 121.658C344.401 121.394 344.064 121.068 343.787 120.695V115.081C343.787 115.081 346.812 107.939 349.958 108.89C353.103 109.841 351.74 119.584 348.693 121.535Z" fill="#F0BCB3"/>
<path d="M349.476 111.698C349.533 111.698 349.554 111.755 349.476 111.788C347.369 113.221 346.598 115.641 346.219 118.049C346.344 117.652 346.595 117.307 346.935 117.067C347.275 116.826 347.684 116.704 348.1 116.719C348.377 116.731 348.648 116.803 348.895 116.929C348.961 116.929 348.895 117.065 348.895 117.065C348.462 117.024 348.028 117.118 347.65 117.333C347.273 117.549 346.972 117.875 346.788 118.269C346.479 118.936 346.242 119.634 346.08 120.352C346.08 120.577 345.623 120.544 345.644 120.352C345.65 120.33 345.65 120.307 345.644 120.286C344.931 117.321 346.363 112.673 349.476 111.698Z" fill="#263238"/>
<path d="M348.232 120.794C348.236 120.98 348.184 121.163 348.082 121.318C347.98 121.474 347.834 121.596 347.664 121.67C347.492 121.743 347.302 121.764 347.119 121.731C346.937 121.694 346.769 121.606 346.634 121.478C346.48 121.324 346.383 121.123 346.361 120.907C346.338 120.69 346.39 120.473 346.509 120.291C346.628 120.109 346.806 119.973 347.013 119.907C347.22 119.841 347.443 119.848 347.646 119.927C347.877 120.022 348.062 120.203 348.16 120.433C348.208 120.548 348.233 120.67 348.232 120.794V120.794Z" fill="white"/>
<path d="M349.834 118.946C349.837 119.035 349.822 119.123 349.789 119.205C349.756 119.286 349.708 119.361 349.648 119.425C349.586 119.488 349.512 119.538 349.431 119.572C349.35 119.608 349.263 119.627 349.175 119.629C349.088 119.63 349.001 119.614 348.919 119.581C348.837 119.55 348.763 119.502 348.7 119.44C348.637 119.378 348.588 119.305 348.555 119.223C348.521 119.142 348.504 119.055 348.504 118.967C348.504 118.79 348.572 118.62 348.695 118.492C348.818 118.365 348.986 118.29 349.163 118.284C349.251 118.283 349.338 118.3 349.419 118.332C349.5 118.365 349.575 118.413 349.639 118.474C349.701 118.535 349.75 118.609 349.783 118.69C349.818 118.771 349.835 118.858 349.834 118.946V118.946Z" fill="white"/>
<path d="M55.0889 236.11H433.19V247.208H55.0889V236.11Z" fill="#455A64"/>
<path d="M61.3584 247.196H426.914V251.79H61.3584V247.196Z" fill="#263238"/>
<path d="M359.59 251.79H410.962V461.255H359.59V251.79Z" fill="#455A64"/>
<path d="M359.577 251.79H410.961V276.291H359.577V251.79Z" fill="#263238"/>
<path d="M77.3301 251.79H128.699V461.255H77.3301V251.79Z" fill="#455A64"/>
<path d="M77.3174 251.79H128.686V276.291H77.3174V251.79Z" fill="#263238"/>
<path d="M278.979 237.787H334.456C339.194 237.787 332.349 224.308 315.066 219.125C297.783 213.942 273.534 232.724 278.979 237.787Z" fill="#37474F"/>
<path d="M300.738 237.787C300.693 236.255 300.439 234.736 299.983 233.272C299.53 231.797 298.902 230.382 298.111 229.058C297.319 227.721 296.327 226.513 295.17 225.476C294.018 224.44 292.694 223.614 291.257 223.035C291.859 223.523 292.536 223.848 293.081 224.401L293.894 225.127L294.709 225.94C295.741 227.017 296.649 228.205 297.418 229.482C298.186 230.761 298.842 232.104 299.381 233.495C299.931 234.893 300.384 236.327 300.738 237.787Z" fill="#263238"/>
<path d="M294.173 224.961C292.528 225.483 290.928 226.135 289.387 226.912C287.834 227.677 286.342 228.563 284.926 229.561C283.489 230.556 282.189 231.735 281.059 233.067C280.506 233.748 280.025 234.484 279.626 235.265C279.243 236.054 279.022 236.911 278.976 237.787C279.169 236.955 279.509 236.165 279.978 235.451C280.421 234.737 280.942 234.074 281.531 233.474C282.714 232.268 284.009 231.178 285.399 230.217C286.774 229.218 288.225 228.339 289.688 227.451C290.42 227.011 291.163 226.596 291.91 226.19C292.656 225.783 293.412 225.38 294.173 224.961Z" fill="#263238"/>
<path d="M145.979 215.402H255.386L237.983 133.948H128.581L145.979 215.402Z" fill="#7A5C52"/>
<path d="M141.934 215.402H251.341L233.938 133.948H124.536L141.934 215.402Z" fill="#37474F"/>
<path d="M178.484 169.963C178.818 171.814 179.777 173.495 181.202 174.725C182.626 175.954 184.429 176.657 186.31 176.717C187.16 176.746 188.005 176.58 188.781 176.233C189.953 175.711 190.911 174.806 191.498 173.666C192.085 172.525 192.265 171.219 192.008 169.963C191.672 168.108 190.71 166.425 189.283 165.194C187.856 163.963 186.05 163.258 184.167 163.196C183.316 163.169 182.471 163.335 181.694 163.682C180.917 164.028 180.229 164.547 179.682 165.198C179.134 165.849 178.74 166.616 178.532 167.442C178.323 168.267 178.305 169.129 178.478 169.963H178.484Z" fill="#263238"/>
<path d="M172.87 236.673H226.683V232.498L172.87 230.756V236.673Z" fill="#7A5C52"/>
<path d="M158.248 236.673H187.144L204.539 191.03H175.643L158.248 236.673Z" fill="#7A5C52"/>
<path d="M153.492 236.673H182.388L199.786 191.03H170.89L153.492 236.673Z" fill="#263238"/>
</svg>
