<svg width="561" height="447" viewBox="0 0 561 561" fill="none" xmlns="http://www.w3.org/2000/svg">
<path d="M34.8071 406L52 274.04M88.1141 406L71.3704 274.04M129.676 234.374L117.93 332.833C116.424 340.662 116.665 358.667 129.676 368.062C145.939 379.805 202.86 406 282.368 406C361.877 406 405.246 391.712 429.64 368.062C442.289 355.799 443.735 345.118 442.289 332.833C440.844 320.548 433.254 262.075 429.64 234.374M282.368 113.333C269.719 114.838 261.588 121.463 218.219 121.463C191.77 121.463 98.2368 104.878 63 220.5M63 220.5C42 220.5 33 231.484 33 248.827C33 266.17 45.5 275 60 275C81 275 87.5 268 87.5 250C87.5 234.374 81.5 220.5 63 220.5ZM34.8071 157.594L247.132 234.374C257.974 237.686 285.982 242.323 311.281 234.374C336.579 226.425 469.997 179.876 533.544 157.594C538.363 156.089 548 150.549 548 140.432C548 130.315 538.363 125.979 533.544 125.076L311.281 45.5861C298.933 41.3707 268.816 35.4692 247.132 45.5861C225.447 55.7029 96.5469 100.386 34.8071 121.463C28.1814 123.871 14.7492 131.038 14.0264 140.432C13.3036 149.826 27.5791 155.788 34.8071 157.594Z" stroke="#48525D" stroke-width="25" stroke-linecap="round"/>
</svg>
