<svg width="194" height="187" viewBox="0 0 194 187" fill="none" xmlns="http://www.w3.org/2000/svg">
<path d="M192.951 81.223H162.116V178.949H192.951V81.223Z" fill="#F5F5F5"/>
<path d="M192.951 81.223H177.533V178.689H192.951V81.223Z" fill="#263238" fill-opacity="0.22"/>
<path d="M176.535 71.634H165.645V81.2229H176.535V71.634Z" fill="#F5F5F5"/>
<path d="M176.521 71.634H173.932V81.2229H176.521V71.634Z" fill="#263238" fill-opacity="0.22"/>
<path d="M159.541 81.2229V80.6733H193.847V81.2229" fill="#E0E0E0"/>
<path d="M170.808 85.4172H168.205V90.9276H170.808V85.4172Z" fill="#FAFAFA"/>
<path d="M177.533 93.0826C177.533 93.1405 174.077 93.1839 169.825 93.1839C165.572 93.1839 162.116 93.1405 162.116 93.0826C162.116 93.0248 165.572 92.9814 169.825 92.9814C174.077 92.9814 177.533 93.0248 177.533 93.0826Z" fill="#E0E0E0"/>
<path d="M186.37 85.4172H183.752V90.9276H186.37V85.4172Z" fill="#E0E0E0"/>
<path d="M193.066 93.0826C193.066 93.1405 189.61 93.1839 185.358 93.1839C181.106 93.1839 177.649 93.1405 177.649 93.0826C177.649 93.0248 181.091 92.9814 185.358 92.9814C189.624 92.9814 193.066 93.0248 193.066 93.0826Z" fill="#E0E0E0"/>
<path d="M186.37 96.3368H183.752V101.833H186.37V96.3368Z" fill="#E0E0E0"/>
<path d="M193.066 104.002C193.066 104.06 189.61 104.103 185.358 104.103C181.106 104.103 177.649 104.06 177.649 104.002C177.649 103.944 181.091 103.901 185.358 103.901C189.624 103.901 193.066 103.944 193.066 104.002Z" fill="#E0E0E0"/>
<path d="M186.37 107.603H183.752V113.114H186.37V107.603Z" fill="#E0E0E0"/>
<path d="M193.066 115.254C193.066 115.312 189.61 115.356 185.358 115.356C181.106 115.356 177.649 115.312 177.649 115.254C177.649 115.197 181.091 115.153 185.358 115.153C189.624 115.153 193.066 115.211 193.066 115.254Z" fill="#E0E0E0"/>
<path d="M186.37 118.856H183.752V124.366H186.37V118.856Z" fill="#E0E0E0"/>
<path d="M193.066 126.521C193.066 126.579 189.61 126.622 185.358 126.622C181.106 126.622 177.649 126.579 177.649 126.521C177.649 126.463 181.091 126.42 185.358 126.42C189.624 126.42 193.066 126.463 193.066 126.521Z" fill="#E0E0E0"/>
<path d="M186.37 129.79H183.752V135.3H186.37V129.79Z" fill="#E0E0E0"/>
<path d="M193.066 137.455C193.066 137.513 189.61 137.556 185.358 137.556C181.106 137.556 177.649 137.513 177.649 137.455C177.649 137.397 181.091 137.354 185.358 137.354C189.624 137.354 193.066 137.397 193.066 137.455Z" fill="#E0E0E0"/>
<path d="M186.37 140.767H183.752V146.277H186.37V140.767Z" fill="#E0E0E0"/>
<path d="M186.37 151.889H183.752V157.385H186.37V151.889Z" fill="#E0E0E0"/>
<path d="M193.066 148.432C193.066 148.49 189.61 148.534 185.358 148.534C181.106 148.534 177.649 148.49 177.649 148.432C177.649 148.375 181.091 148.331 185.358 148.331C189.624 148.331 193.066 148.375 193.066 148.432Z" fill="#E0E0E0"/>
<path d="M170.808 96.5103H168.205V102.021H170.808V96.5103Z" fill="#FAFAFA"/>
<path d="M177.533 104.176C177.533 104.234 174.077 104.277 169.825 104.277C165.572 104.277 162.116 104.234 162.116 104.176C162.116 104.118 165.572 104.074 169.825 104.074C174.077 104.074 177.533 104.118 177.533 104.176Z" fill="#E0E0E0"/>
<path d="M170.808 107.603H168.205V113.114H170.808V107.603Z" fill="#FAFAFA"/>
<path d="M177.533 115.269C177.533 115.327 174.077 115.37 169.825 115.37C165.572 115.37 162.116 115.327 162.116 115.269C162.116 115.211 165.572 115.168 169.825 115.168C174.077 115.168 177.533 115.211 177.533 115.269Z" fill="#E0E0E0"/>
<path d="M170.808 118.697H168.205V124.207H170.808V118.697Z" fill="#FAFAFA"/>
<path d="M177.533 126.376C177.533 126.434 174.077 126.478 169.825 126.478C165.572 126.478 162.116 126.434 162.116 126.376C162.116 126.319 165.572 126.275 169.825 126.275C174.077 126.275 177.533 126.304 177.533 126.376Z" fill="#E0E0E0"/>
<path d="M170.808 129.79H168.205V135.3H170.808V129.79Z" fill="#FAFAFA"/>
<path d="M177.533 137.455C177.533 137.513 174.077 137.556 169.825 137.556C165.572 137.556 162.116 137.513 162.116 137.455C162.116 137.397 165.572 137.354 169.839 137.354C174.106 137.354 177.533 137.397 177.533 137.455Z" fill="#E0E0E0"/>
<path d="M170.808 140.883H168.205V146.393H170.808V140.883Z" fill="#FAFAFA"/>
<path d="M177.533 148.548C177.533 148.606 174.077 148.649 169.825 148.649C165.572 148.649 162.116 148.606 162.116 148.548C162.116 148.49 165.572 148.447 169.825 148.447C174.077 148.447 177.533 148.49 177.533 148.548Z" fill="#E0E0E0"/>
<path d="M170.808 151.976H168.205V157.486H170.808V151.976Z" fill="#FAFAFA"/>
<path d="M147.305 82.1775H110.353V178.892H147.305V82.1775Z" fill="#263238" fill-opacity="0.22"/>
<path d="M147.291 82.1775H128.822V178.892H147.291V82.1775Z" fill="#E0E0E0"/>
<path d="M127.621 70.6794H114.576V82.1775H127.621V70.6794Z" fill="#263238" fill-opacity="0.22"/>
<path d="M127.621 70.6794H124.512V82.1775H127.621V70.6794Z" fill="#E0E0E0"/>
<path d="M148.39 81.5122H107.287V82.1775H148.39V81.5122Z" fill="#E0E0E0"/>
<path d="M120.766 87.1962H117.642V93.7913H120.766V87.1962Z" fill="white"/>
<path d="M128.822 96.3802C128.822 96.4525 124.685 96.5103 119.58 96.5103C114.474 96.5103 110.353 96.4525 110.353 96.3802C110.353 96.3079 114.489 96.25 119.58 96.25C124.671 96.25 128.822 96.3079 128.822 96.3802Z" fill="#E0E0E0"/>
<path d="M139.409 87.1962H136.285V93.7913H139.409V87.1962Z" fill="#F5F5F5"/>
<path d="M147.45 96.3802C147.45 96.4525 143.314 96.5103 138.208 96.5103C133.103 96.5103 128.966 96.4525 128.966 96.3802C128.966 96.3079 133.103 96.25 138.208 96.25C143.314 96.25 147.45 96.3079 147.45 96.3802Z" fill="#263238" fill-opacity="0.22"/>
<path d="M139.409 100.285H136.285V106.88H139.409V100.285Z" fill="#F5F5F5"/>
<path d="M147.45 109.469C147.45 109.542 143.314 109.599 138.208 109.599C133.103 109.599 128.966 109.542 128.966 109.469C128.966 109.397 133.103 109.354 138.208 109.354C143.314 109.354 147.45 109.397 147.45 109.469Z" fill="#263238" fill-opacity="0.22"/>
<path d="M139.409 113.779H136.285V120.374H139.409V113.779Z" fill="#F5F5F5"/>
<path d="M147.45 122.963C147.45 123.035 143.314 123.093 138.208 123.093C133.103 123.093 128.966 123.035 128.966 122.963C128.966 122.891 133.103 122.833 138.208 122.833C143.314 122.833 147.45 122.891 147.45 122.963Z" fill="#263238" fill-opacity="0.22"/>
<path d="M139.409 127.259H136.285V133.854H139.409V127.259Z" fill="#F5F5F5"/>
<path d="M147.45 136.443C147.45 136.515 143.314 136.558 138.208 136.558C133.103 136.558 128.966 136.501 128.966 136.443C128.966 136.385 133.103 136.312 138.208 136.312C143.314 136.312 147.45 136.37 147.45 136.443Z" fill="#263238" fill-opacity="0.22"/>
<path d="M139.409 140.362H136.285V146.957H139.409V140.362Z" fill="#F5F5F5"/>
<path d="M147.45 149.546C147.45 149.618 143.314 149.676 138.208 149.676C133.103 149.676 128.966 149.618 128.966 149.546C128.966 149.474 133.103 149.416 138.208 149.416C143.314 149.416 147.45 149.474 147.45 149.546Z" fill="#263238" fill-opacity="0.22"/>
<path d="M139.409 153.523H136.285V160.119H139.409V153.523Z" fill="#F5F5F5"/>
<path d="M139.409 166.844H136.285V173.439H139.409V166.844Z" fill="#F5F5F5"/>
<path d="M147.45 162.707C147.45 162.78 143.314 162.838 138.208 162.838C133.103 162.838 128.966 162.78 128.966 162.707C128.966 162.635 133.103 162.577 138.208 162.577C143.314 162.577 147.45 162.635 147.45 162.707Z" fill="#263238" fill-opacity="0.22"/>
<path d="M120.766 100.488H117.642V107.083H120.766V100.488Z" fill="white"/>
<path d="M128.822 109.672C128.822 109.744 124.685 109.787 119.58 109.787C114.474 109.787 110.353 109.73 110.353 109.672C110.353 109.614 114.489 109.542 119.58 109.542C124.671 109.542 128.822 109.599 128.822 109.672Z" fill="#E0E0E0"/>
<path d="M120.766 113.779H117.642V120.374H120.766V113.779Z" fill="white"/>
<path d="M128.822 122.963C128.822 123.035 124.685 123.093 119.58 123.093C114.474 123.093 110.353 123.035 110.353 122.963C110.353 122.891 114.489 122.833 119.58 122.833C124.671 122.833 128.822 122.891 128.822 122.963Z" fill="#E0E0E0"/>
<path d="M120.766 127.071H117.642V133.666H120.766V127.071Z" fill="white"/>
<path d="M128.822 136.255C128.822 136.327 124.685 136.385 119.58 136.385C114.474 136.385 110.353 136.327 110.353 136.255C110.353 136.182 114.489 136.139 119.58 136.139C124.671 136.139 128.822 136.182 128.822 136.255Z" fill="#E0E0E0"/>
<path d="M120.766 140.362H117.642V146.957H120.766V140.362Z" fill="white"/>
<path d="M128.822 149.546C128.822 149.618 124.685 149.676 119.58 149.676C114.474 149.676 110.353 149.618 110.353 149.546C110.353 149.474 114.489 149.416 119.58 149.416C124.671 149.416 128.822 149.474 128.822 149.546Z" fill="#E0E0E0"/>
<path d="M120.766 153.654H117.642V160.249H120.766V153.654Z" fill="white"/>
<path d="M128.822 162.838C128.822 162.91 124.685 162.968 119.58 162.968C114.474 162.968 110.353 162.91 110.353 162.838C110.353 162.765 114.489 162.707 119.58 162.707C124.671 162.707 128.822 162.765 128.822 162.838Z" fill="#E0E0E0"/>
<path d="M120.766 166.945H117.642V173.54H120.766V166.945Z" fill="white"/>
<path d="M114.156 106.837H76.2056V178.892H114.171V106.837H114.156Z" fill="#E0E0E0"/>
<path d="M114.156 106.837H96.3667V178.892H114.171V106.837H114.156Z" fill="#263238" fill-opacity="0.22"/>
<path d="M87.5734 113.62H84.1602V121.907H87.5734V113.62Z" fill="#F5F5F5"/>
<path d="M87.5734 146.075H84.1602V154.362H87.5734V146.075Z" fill="#F5F5F5"/>
<path d="M96.367 125.162C96.367 125.234 91.8545 125.292 86.2863 125.292C80.718 125.292 76.2056 125.234 76.2056 125.162C76.2056 125.089 80.718 125.031 86.2863 125.031C91.8545 125.031 96.367 125.104 96.367 125.162Z" fill="#F5F5F5"/>
<path d="M87.5734 129.978H84.1602V138.265H87.5734V129.978Z" fill="#F5F5F5"/>
<path d="M96.367 141.519C96.367 141.592 91.8545 141.649 86.2863 141.649C80.718 141.649 76.2056 141.592 76.2056 141.519C76.2056 141.447 80.718 141.389 86.2863 141.389C91.8545 141.389 96.367 141.447 96.367 141.519Z" fill="#F5F5F5"/>
<path d="M103.555 113.62H100.142V121.907H103.555V113.62Z" fill="#E0E0E0"/>
<path d="M110.96 113.62H107.547V121.907H110.96V113.62Z" fill="#E0E0E0"/>
<path d="M103.555 129.356H100.142V137.643H103.555V129.356Z" fill="#E0E0E0"/>
<path d="M110.96 129.356H107.547V137.643H110.96V129.356Z" fill="#E0E0E0"/>
<path d="M103.555 145.092H100.142V153.379H103.555V145.092Z" fill="#E0E0E0"/>
<path d="M110.96 145.092H107.547V153.379H110.96V145.092Z" fill="#E0E0E0"/>
<path d="M117.006 105.101H73.3418V106.909H117.006V105.101Z" fill="#E0E0E0"/>
<path d="M114.431 107.068C114.431 107.141 105.941 107.199 95.4846 107.199C85.0279 107.199 76.5381 107.141 76.5381 107.068C76.5381 106.996 85.0279 106.938 95.4991 106.938C105.97 106.938 114.431 106.996 114.431 107.068Z" fill="#263238" fill-opacity="0.22"/>
<path d="M36.5481 90.8264H8.76465V178.892H36.5481V90.8264Z" fill="#F5F5F5"/>
<path d="M36.5484 90.8264H22.6494V178.646H36.5484V90.8264Z" fill="#263238" fill-opacity="0.22"/>
<path d="M21.752 82.1775H11.9316V90.8264H21.752V82.1775Z" fill="#F5F5F5"/>
<path d="M21.7527 82.1775H19.4097V90.8264H21.7527V82.1775Z" fill="#263238" fill-opacity="0.22"/>
<path d="M6.45068 90.8264V90.3202H37.3726V90.8264" fill="#E0E0E0"/>
<path d="M16.6031 94.6012H14.2456V99.562H16.6031V94.6012Z" fill="#FAFAFA"/>
<path d="M22.6636 101.5C22.6636 101.558 19.554 101.601 15.7213 101.601C11.8887 101.601 8.76465 101.558 8.76465 101.5C8.76465 101.442 11.8742 101.413 15.7213 101.413C19.5685 101.413 22.6636 101.442 22.6636 101.5Z" fill="#E0E0E0"/>
<path d="M30.6182 94.6012H28.2607V99.562H30.6182V94.6012Z" fill="#E0E0E0"/>
<path d="M36.6633 101.5C36.6633 101.558 33.5537 101.601 29.721 101.601C25.8884 101.601 22.7788 101.558 22.7788 101.5C22.7788 101.442 25.8884 101.413 29.721 101.413C33.5537 101.413 36.6633 101.442 36.6633 101.5Z" fill="#E0E0E0"/>
<path d="M30.6182 104.451H28.2607V109.411H30.6182V104.451Z" fill="#E0E0E0"/>
<path d="M36.6633 111.349C36.6633 111.407 33.5537 111.451 29.721 111.451C25.8884 111.451 22.7788 111.407 22.7788 111.349C22.7788 111.292 25.8884 111.263 29.721 111.263C33.5537 111.263 36.6633 111.292 36.6633 111.349Z" fill="#E0E0E0"/>
<path d="M30.6182 114.589H28.2607V119.55H30.6182V114.589Z" fill="#E0E0E0"/>
<path d="M36.6633 121.488C36.6633 121.546 33.5537 121.589 29.721 121.589C25.8884 121.589 22.7788 121.546 22.7788 121.488C22.7788 121.43 25.8884 121.401 29.721 121.401C33.5537 121.401 36.6633 121.445 36.6633 121.488Z" fill="#E0E0E0"/>
<path d="M30.6182 124.728H28.2607V129.688H30.6182V124.728Z" fill="#E0E0E0"/>
<path d="M36.6633 131.641C36.6633 131.699 33.5537 131.742 29.721 131.742C25.8884 131.742 22.7788 131.699 22.7788 131.641C22.7788 131.583 25.8884 131.554 29.721 131.554C33.5537 131.554 36.6633 131.583 36.6633 131.641Z" fill="#E0E0E0"/>
<path d="M30.6182 134.577H28.2607V139.538H30.6182V134.577Z" fill="#E0E0E0"/>
<path d="M36.6633 141.49C36.6633 141.534 33.5537 141.577 29.721 141.577C25.8884 141.577 22.7788 141.534 22.7788 141.49C22.7788 141.447 25.8884 141.389 29.721 141.389C33.5537 141.389 36.6633 141.432 36.6633 141.49Z" fill="#E0E0E0"/>
<path d="M30.6182 144.484H28.2607V149.445H30.6182V144.484Z" fill="#E0E0E0"/>
<path d="M30.6182 154.507H28.2607V159.468H30.6182V154.507Z" fill="#E0E0E0"/>
<path d="M36.6633 151.383C36.6633 151.426 33.5537 151.47 29.721 151.47C25.8884 151.47 22.7788 151.426 22.7788 151.383C22.7788 151.34 25.8884 151.282 29.721 151.282C33.5537 151.282 36.6633 151.325 36.6633 151.383Z" fill="#E0E0E0"/>
<path d="M16.6031 104.595H14.2456V109.556H16.6031V104.595Z" fill="#FAFAFA"/>
<path d="M22.6636 111.494C22.6636 111.537 19.554 111.581 15.7213 111.581C11.8887 111.581 8.76465 111.537 8.76465 111.494C8.76465 111.451 11.8742 111.393 15.7213 111.393C19.5685 111.393 22.6636 111.451 22.6636 111.494Z" fill="#E0E0E0"/>
<path d="M16.6031 114.589H14.2456V119.55H16.6031V114.589Z" fill="#FAFAFA"/>
<path d="M22.6636 121.502C22.6636 121.56 19.554 121.604 15.7213 121.604C11.8887 121.604 8.76465 121.56 8.76465 121.502C8.76465 121.445 11.8742 121.416 15.7213 121.416C19.5685 121.416 22.6636 121.445 22.6636 121.502Z" fill="#E0E0E0"/>
<path d="M16.6031 124.583H14.2456V129.544H16.6031V124.583Z" fill="#FAFAFA"/>
<path d="M22.6636 131.496C22.6636 131.554 19.554 131.598 15.7213 131.598C11.8887 131.598 8.76465 131.554 8.76465 131.496C8.76465 131.438 11.8742 131.41 15.7213 131.41C19.5685 131.41 22.6636 131.438 22.6636 131.496Z" fill="#E0E0E0"/>
<path d="M16.6031 134.577H14.2456V139.538H16.6031V134.577Z" fill="#FAFAFA"/>
<path d="M22.6636 141.49C22.6636 141.534 19.554 141.577 15.7213 141.577C11.8887 141.577 8.76465 141.534 8.76465 141.49C8.76465 141.447 11.8742 141.389 15.7213 141.389C19.5685 141.389 22.6636 141.432 22.6636 141.49Z" fill="#E0E0E0"/>
<path d="M16.6031 144.585H14.2456V149.546H16.6031V144.585Z" fill="#FAFAFA"/>
<path d="M22.6636 151.484C22.6636 151.542 19.554 151.585 15.7213 151.585C11.8887 151.585 8.76465 151.542 8.76465 151.484C8.76465 151.426 11.8742 151.397 15.7213 151.397C19.5685 151.397 22.6636 151.441 22.6636 151.484Z" fill="#E0E0E0"/>
<path d="M16.6031 154.579H14.2456V159.54H16.6031V154.579Z" fill="#FAFAFA"/>
<path d="M191.808 178.573C191.808 178.631 148.868 178.689 95.9041 178.689C42.9406 178.689 0 178.646 0 178.573C0 178.501 42.9262 178.458 95.9041 178.458C148.882 178.458 191.808 178.501 191.808 178.573Z" fill="#E0E0E0"/>
<path d="M82.0049 52.9623C82.2508 51.1544 79.7198 49.6792 77.8107 49.5201C76.8995 49.4478 75.9594 49.5779 75.0916 49.2887C73.2259 48.6378 72.4738 46.2225 70.6515 45.456C69.292 44.8775 67.7155 45.3981 66.3994 46.0634C65.0832 46.7287 63.7816 47.5676 62.2919 47.6544C61.0191 47.7411 59.6162 47.2639 58.4881 47.8858C57.6493 48.3486 57.2154 49.3176 56.4344 49.8817C55.6534 50.4457 54.6988 50.5614 53.7587 50.6048C52.8186 50.6482 51.8496 50.6627 50.9963 51.0532C50.143 51.4437 49.4343 52.3404 49.6223 53.266L82.0049 52.9623Z" fill="#F5F5F5"/>
<path d="M184.88 61.9583C185.025 60.888 183.506 60.0058 182.378 59.919C181.828 59.9335 181.293 59.8901 180.758 59.7744C179.644 59.3839 179.196 57.952 178.111 57.4892C177.301 57.1421 176.361 57.4458 175.58 57.8508C174.799 58.2558 174.018 58.7475 173.136 58.8054C172.37 58.8487 171.545 58.5739 170.865 58.95C170.374 59.2248 170.099 59.7888 169.65 60.1359C169.173 60.4252 168.624 60.5698 168.06 60.5554C167.495 60.5409 166.946 60.6277 166.411 60.8157C166.15 60.9169 165.919 61.105 165.774 61.3508C165.63 61.5967 165.557 61.8715 165.586 62.1608L184.88 61.9583Z" fill="#263238" fill-opacity="0.22"/>
<path d="M32.0642 52.3693C33.3948 49.2163 31.9195 45.5717 28.7666 44.2411C25.6137 42.9105 21.969 44.3857 20.6384 47.5386C19.3078 50.6916 20.783 54.3362 23.936 55.6668C27.0889 57.0119 30.7336 55.5222 32.0642 52.3693Z" fill="#263238" fill-opacity="0.22"/>
<path d="M26.3517 56.1731C22.9384 56.1586 20.1904 53.3962 20.1904 49.9829C20.2049 46.5696 22.9673 43.8217 26.3806 43.8217C29.7939 43.8361 32.5418 46.5985 32.5418 50.0118C32.5418 52.485 31.0521 54.7268 28.767 55.6813C28.0004 56.014 27.1761 56.1731 26.3517 56.1731Z" fill="#263238" fill-opacity="0.22"/>
<path d="M25.4551 63.8529C25.3828 62.9996 25.3683 62.1463 25.3973 61.293C25.3828 60.4541 25.3973 59.6008 25.4551 58.762C25.513 59.6008 25.5419 60.4541 25.513 61.293C25.5419 62.1463 25.5274 62.9996 25.4551 63.8529Z" fill="#263238" fill-opacity="0.22"/>
<path d="M25.4548 63.8529C25.4548 63.8529 25.4259 63.8529 25.397 63.1008V59.4851C25.397 58.733 25.4404 58.733 25.4548 58.733C25.4693 58.733 25.4838 58.733 25.5127 59.4851V63.1008C25.4982 63.8529 25.4693 63.8529 25.4548 63.8529ZM25.4548 58.733C25.4259 58.8343 25.397 59.8033 25.397 61.2641C25.397 62.7248 25.4259 63.7228 25.4548 63.7951C25.4837 63.7083 25.5127 62.7248 25.5127 61.2641C25.5127 59.8033 25.4837 58.8198 25.4548 58.733Z" fill="#263238" fill-opacity="0.22"/>
<path d="M21.8822 57.2722C21.9111 57.2722 21.3326 58.357 20.5805 59.6586C19.8284 60.9603 19.1921 62.0016 19.1631 61.9872C19.1342 61.9727 19.7127 60.9025 20.4648 59.6008C21.2169 58.2991 21.8533 57.2578 21.8822 57.2722Z" fill="#263238" fill-opacity="0.22"/>
<path d="M19.1777 61.9872C19.1777 61.9872 19.1488 61.9872 19.5393 61.264C19.7852 60.8157 20.1178 60.2227 20.4794 59.5718C20.841 58.921 21.1881 58.3569 21.4629 57.9086C21.5786 57.6627 21.7377 57.4458 21.9112 57.2433C21.9112 57.2433 21.9402 57.2433 21.5497 57.9664C21.3038 58.4148 20.9711 59.0078 20.6096 59.6586C19.9443 60.7723 19.2356 61.9727 19.1777 61.9872ZM21.8823 57.2867C21.81 57.359 21.2604 58.2412 20.4794 59.6008C19.6984 60.9603 19.2067 61.8714 19.1777 61.9727C19.25 61.9004 19.7996 61.0181 20.5806 59.6586C21.3616 58.2991 21.8534 57.3879 21.8823 57.2867Z" fill="#263238" fill-opacity="0.22"/>
<path d="M18.223 54.9727C17.7747 55.421 17.2829 55.8549 16.7767 56.2454C16.285 56.6504 15.7788 57.0264 15.2437 57.3735C15.692 56.9252 16.1837 56.5202 16.69 56.1442C17.1672 55.7103 17.6879 55.3342 18.223 54.9727Z" fill="#263238" fill-opacity="0.22"/>
<path d="M15.244 57.3735C15.244 57.3735 15.244 57.3445 15.6634 56.983C15.9382 56.7515 16.2998 56.4478 16.7047 56.1441C17.182 55.7247 17.6882 55.3342 18.2089 54.9871C17.7605 55.4354 17.2688 55.8693 16.7626 56.2598C16.3576 56.578 15.9816 56.8672 15.6923 57.0987C15.5621 57.1999 15.403 57.3011 15.244 57.3735ZM18.1944 55.0015C17.6593 55.3486 17.1531 55.7247 16.6758 56.1296C16.1696 56.5057 15.6923 56.9106 15.2295 57.3445C15.7646 57.0119 16.2708 56.6358 16.7626 56.2309C17.2688 55.8548 17.7461 55.4499 18.1944 55.0015Z" fill="#263238" fill-opacity="0.22"/>
<path d="M31.6452 61.3074C31.5729 61.1049 31.515 60.888 31.4861 60.671C31.3993 60.2805 31.2692 59.7454 31.1101 59.1524C30.951 58.5594 30.7919 58.0388 30.6906 57.6483C30.6183 57.4458 30.5605 57.2433 30.5171 57.0264C30.6328 57.2144 30.7196 57.4169 30.7774 57.6194C30.9221 57.9954 31.0956 58.5161 31.2547 59.1235C31.3993 59.6297 31.5006 60.1359 31.5874 60.6566C31.6307 60.8735 31.6597 61.0905 31.6452 61.3074Z" fill="#263238" fill-opacity="0.22"/>
<path d="M31.6449 61.3074C31.6304 61.3074 31.6015 61.2062 31.4713 60.671C31.3846 60.3095 31.2544 59.7599 31.0953 59.1524C30.9362 58.545 30.7626 57.9954 30.6759 57.6483C30.5168 57.1421 30.4879 57.0264 30.5023 57.0264C30.5168 57.0264 30.5023 57.0264 30.5891 57.1855C30.6614 57.3301 30.7193 57.4747 30.7626 57.6338C30.8639 57.8941 31.0519 58.4293 31.2399 59.1235C31.4279 59.8177 31.5292 60.3962 31.5726 60.6566C31.6449 60.8735 31.6593 61.0905 31.6449 61.3074ZM30.5023 57.0408C30.5457 57.2433 30.6036 57.4458 30.6759 57.6483C30.7916 57.9954 30.9507 58.5305 31.0953 59.1524C31.2399 59.7743 31.3846 60.3095 31.4713 60.671C31.5147 60.888 31.5581 61.0905 31.6304 61.2929C31.616 61.076 31.6015 60.8591 31.5581 60.6566C31.5147 60.3818 31.4135 59.8177 31.2255 59.1235C31.0374 58.4293 30.8494 57.8941 30.7482 57.6338C30.6759 57.4313 30.5891 57.2289 30.5023 57.0408Z" fill="#263238" fill-opacity="0.22"/>
<path d="M37.9364 56.8528C37.3001 56.39 36.6782 55.8838 36.0996 55.3342C35.4922 54.828 34.8992 54.2784 34.3496 53.7144C34.986 54.1916 35.5934 54.6978 36.172 55.233C36.7939 55.7392 37.3868 56.2743 37.9364 56.8528Z" fill="#263238" fill-opacity="0.22"/>
<path d="M37.9361 56.8528C37.2997 56.3756 36.6923 55.8693 36.0993 55.3342C35.622 54.9148 35.1737 54.5243 34.8266 54.2061C34.3059 53.7288 34.3204 53.7144 34.3348 53.6999C34.9712 54.1772 35.5787 54.6834 36.1716 55.2185C36.6489 55.6379 37.0973 56.0284 37.4444 56.3466C37.9506 56.8239 37.9506 56.8384 37.9361 56.8528ZM34.3638 53.7144C34.4072 53.7867 35.0724 54.4086 36.1138 55.3197C37.1551 56.2309 37.8493 56.795 37.9361 56.8384C37.8927 56.7516 37.2274 56.1441 36.1861 55.233C35.1448 54.3218 34.4505 53.7577 34.3638 53.7144Z" fill="#263238" fill-opacity="0.22"/>
<path d="M40.3518 50.7205C40.106 50.7061 39.8456 50.6771 39.5998 50.6193C39.1369 50.547 38.5006 50.4457 37.7919 50.359C37.0832 50.2722 36.4468 50.2288 35.984 50.1999C35.7381 50.1999 35.4778 50.1709 35.2319 50.1276C35.4778 50.0986 35.7381 50.0842 35.984 50.0986C36.5914 50.1131 37.1989 50.142 37.8063 50.2143C38.515 50.3011 39.1514 50.4168 39.5998 50.5036C39.8601 50.5614 40.106 50.6338 40.3518 50.7205Z" fill="#263238" fill-opacity="0.22"/>
<path d="M40.3515 44.675C40.3515 44.7184 39.0209 45.0655 37.3577 45.4704C35.6944 45.8754 34.3349 46.1791 34.3204 46.1357C34.306 46.0923 35.651 45.7452 37.3143 45.3403C38.9775 44.9353 40.3515 44.646 40.3515 44.675Z" fill="#263238" fill-opacity="0.22"/>
<path d="M34.335 46.1647C34.335 46.1647 34.335 46.1358 35.2172 45.9043C35.7813 45.7597 36.5333 45.5572 37.3288 45.3692C38.1243 45.1812 38.8908 44.9932 39.4693 44.863C40.366 44.6605 40.366 44.6895 40.366 44.7039C40.366 44.7184 40.366 44.7328 39.4838 44.9643C38.9197 45.1089 38.1532 45.3114 37.3722 45.4994C36.5912 45.6874 35.8102 45.8754 35.2317 46.0056C34.9424 46.0634 34.6387 46.1213 34.335 46.1647ZM40.3516 44.6895C40.2359 44.6895 39.0788 44.9353 37.3288 45.3692C35.5788 45.8031 34.4507 46.0924 34.335 46.1502C34.4507 46.1502 35.6077 45.9043 37.3577 45.4849C39.1077 45.0655 40.2359 44.7473 40.3516 44.6895Z" fill="#263238" fill-opacity="0.22"/>
<path d="M33.3514 37.6605C33.3803 37.6605 32.744 38.7018 31.9196 39.9456C31.4423 40.7122 30.9216 41.4498 30.372 42.1584C30.3431 42.1584 30.9795 41.1171 31.8039 39.8733C32.6283 38.6295 33.3225 37.6605 33.3514 37.6605Z" fill="#263238" fill-opacity="0.22"/>
<path d="M30.3726 42.1729C30.3726 42.1151 31.1102 40.9436 31.8044 39.8733C32.2238 39.2659 32.5854 38.7163 32.8747 38.2968C33.323 37.6605 33.3375 37.6605 33.3519 37.6605C33.3664 37.6605 33.3809 37.6605 32.9614 38.3547C32.6866 38.7741 32.3251 39.3526 31.9201 39.9601C31.5151 40.5675 31.1391 41.1316 30.8354 41.551C30.4304 42.1151 30.387 42.1729 30.3726 42.1729ZM33.3375 37.6605C33.2652 37.7328 32.6722 38.5572 31.8044 39.8733C30.9366 41.1894 30.4159 42.0572 30.3726 42.1584C30.4449 42.0861 31.0379 41.2473 31.9056 39.9456C32.7734 38.6439 33.3085 37.7617 33.3375 37.6605Z" fill="#263238" fill-opacity="0.22"/>
<path d="M26.3951 36.1852C26.4096 36.46 26.4096 36.7492 26.3951 37.024V41.1315C26.4096 41.4063 26.4096 41.6956 26.3951 41.9704C26.3373 41.6956 26.3228 41.4063 26.3083 41.1315C26.2794 40.5964 26.2505 39.8588 26.2505 39.0778C26.2505 38.2968 26.265 37.5447 26.3083 37.024C26.3083 36.7348 26.3373 36.46 26.3951 36.1852Z" fill="#263238" fill-opacity="0.22"/>
<path d="M26.3949 41.9993L26.3515 41.7679C26.3515 41.6088 26.3226 41.3919 26.2937 41.146C26.2937 40.7844 26.2358 40.0613 26.2358 39.0922C26.2358 38.1232 26.2648 37.4001 26.2937 37.0385C26.2937 36.7926 26.3226 36.5757 26.3371 36.4166C26.366 36.1996 26.366 36.1852 26.3805 36.1852C26.4094 36.46 26.4094 36.7492 26.3805 37.024V41.9704L26.3949 41.9993ZM26.3949 36.1996C26.3515 36.4744 26.3226 36.7637 26.3226 37.0385C26.3226 37.4001 26.2648 38.1377 26.2648 39.0922C26.2648 40.0468 26.3082 40.7844 26.3226 41.146C26.3371 41.4352 26.366 41.71 26.3949 41.9848V37.0385C26.4094 36.7203 26.4094 36.272 26.3949 36.1996Z" fill="#263238" fill-opacity="0.22"/>
<path d="M21.1306 42.7514C21.1016 42.7514 20.4508 41.7534 19.6698 40.4807C18.8888 39.2079 18.2958 38.1666 18.3247 38.1521C18.3537 38.1377 19.019 39.1501 19.7855 40.4228C20.552 41.6956 21.1595 42.7224 21.1306 42.7514Z" fill="#263238" fill-opacity="0.22"/>
<path d="M21.1307 42.7514C21.1307 42.7514 21.0584 42.708 20.6824 42.1006C20.4076 41.6811 20.046 41.1026 19.67 40.4807C19.0047 39.396 18.3105 38.21 18.3249 38.1377C18.3249 38.1377 18.3539 38.1377 18.7877 38.7885C19.0625 39.208 19.4241 39.7865 19.8002 40.4084C20.1762 41.0303 20.5233 41.6088 20.7836 42.0427C21.1597 42.7369 21.1452 42.7514 21.1307 42.7514ZM18.3249 38.1666C18.3539 38.2679 18.8601 39.1501 19.67 40.4807C20.4799 41.8113 21.044 42.6646 21.1307 42.7225C21.1018 42.6212 20.5956 41.739 19.7857 40.4084C18.9758 39.0778 18.3972 38.2389 18.3249 38.1666Z" fill="#263238" fill-opacity="0.22"/>
<path d="M17.9774 45.4126C17.7604 45.3982 17.5435 45.3692 17.3266 45.3114C16.9071 45.2246 16.372 45.0944 15.7645 44.9064C15.1571 44.7184 14.622 44.5448 14.2315 44.4002C14.0145 44.3279 13.812 44.2411 13.624 44.1254C13.841 44.1688 14.0579 44.2267 14.2604 44.299C14.6509 44.4291 15.2005 44.5882 15.7935 44.7763C16.3865 44.9643 16.9361 45.0944 17.341 45.1957C17.5724 45.268 17.7749 45.3259 17.9774 45.4126Z" fill="#263238" fill-opacity="0.22"/>
<path d="M17.9631 45.4271H17.804L17.3412 45.3259C17.0664 45.268 16.5023 45.1378 15.7792 44.9209C15.056 44.7039 14.5064 44.5015 14.2606 44.4147L13.8122 44.2267C13.6387 44.1543 13.6531 44.1399 13.6531 44.1399C13.6531 44.1399 13.7399 44.1399 14.304 44.3134C14.6222 44.4147 15.2007 44.6027 15.837 44.7907C16.4734 44.9787 16.9362 45.1089 17.3846 45.2102C17.9486 45.3548 18.0354 45.3837 18.021 45.4126C17.992 45.4271 17.9776 45.4271 17.9631 45.4271ZM13.6387 44.1543C13.8412 44.2556 14.0292 44.3424 14.2461 44.4147C14.5064 44.5159 15.0416 44.7184 15.7647 44.9209C16.4879 45.1234 17.0519 45.268 17.3267 45.3259C17.5437 45.3692 17.7462 45.4126 17.9631 45.4271C17.9197 45.3982 17.6015 45.3114 17.3412 45.2391C16.8928 45.1234 16.3722 44.9787 15.7937 44.8196C15.2151 44.6606 14.5788 44.4436 14.2606 44.3424C14.0581 44.2556 13.8556 44.1833 13.6387 44.1254V44.1543Z" fill="#263238" fill-opacity="0.22"/>
<path d="M16.6033 50.1854C15.9525 50.3155 15.2872 50.4023 14.6219 50.4457C13.9566 50.5325 13.2913 50.5759 12.626 50.5759C13.2768 50.4457 13.9421 50.3589 14.6074 50.3155C15.2727 50.2288 15.938 50.1854 16.6033 50.1854Z" fill="#263238" fill-opacity="0.22"/>
<path d="M1.83643 178.718C1.83643 178.66 43.9527 178.602 95.9037 178.602C147.855 178.602 189.971 178.646 189.971 178.718C189.971 178.79 147.869 178.834 95.9037 178.834C43.9382 178.834 1.83643 178.776 1.83643 178.718Z" fill="#263238"/>
<path d="M21.8538 157.038C22.8373 157.515 23.5894 158.354 23.9221 159.395C24.2547 160.422 24.3559 161.507 24.1969 162.577C23.9654 164.646 22.8084 166.728 21.5357 168.391C19.8001 166.873 19.3951 164.226 19.2794 162.867C19.0914 160.726 20.0604 156.734 21.8683 157.052" fill="#FE5621"/>
<path d="M23.5604 171.776C23.3145 170.575 23.734 169.332 24.6596 168.522C25.5852 167.741 26.8001 167.365 28.0005 167.48C28.5646 167.466 29.0997 167.712 29.4613 168.146C29.7361 168.594 29.7506 169.158 29.4902 169.621C29.2299 170.069 28.8394 170.445 28.391 170.705C26.8869 171.646 25.267 172.282 23.5604 171.776Z" fill="#FE5621"/>
<path d="M21.333 178.111C21.333 177.966 21.3619 177.821 21.3909 177.691C21.4487 177.402 21.521 177.011 21.6078 176.549C21.8103 175.276 22.2008 174.032 22.7938 172.889C23.4157 171.747 24.3124 170.778 25.426 170.098C25.7587 169.896 26.1203 169.736 26.4963 169.621C26.5975 169.592 26.6988 169.563 26.8 169.534C26.8434 169.534 26.8723 169.534 26.9157 169.534C26.4095 169.708 25.9322 169.924 25.4839 170.199C24.4136 170.894 23.5458 171.848 22.9529 172.976C22.3743 174.119 21.9694 175.334 21.738 176.592C21.6367 177.069 21.55 177.46 21.4776 177.735C21.4342 177.85 21.3909 177.98 21.333 178.111Z" fill="#263238"/>
<path d="M21.3906 160.133C21.3906 160.191 21.3906 160.249 21.3906 160.321C21.3906 160.495 21.4051 160.683 21.4195 160.856C21.4195 161.319 21.4774 161.984 21.4918 162.823C21.5497 164.472 21.5931 166.772 21.5786 169.303C21.5642 171.834 21.5063 174.119 21.434 175.768C21.4051 176.606 21.3617 177.272 21.3328 177.735C21.3328 177.951 21.3038 178.139 21.3038 178.27C21.3038 178.328 21.2894 178.4 21.2749 178.458C21.2749 178.4 21.2749 178.328 21.2749 178.27V177.735C21.2749 177.257 21.3038 176.592 21.3328 175.768C21.3761 174.119 21.4195 171.834 21.434 169.303C21.4485 166.772 21.434 164.486 21.3906 162.838C21.3906 162.028 21.3761 161.362 21.3617 160.871V160.336C21.3617 160.263 21.3761 160.205 21.3906 160.133Z" fill="#263238"/>
<path d="M20.5521 173.034C20.1327 170.489 18.4984 168.319 16.1987 167.177C15.6202 166.902 14.8537 166.714 14.3764 167.148C13.8991 167.581 14.0004 168.362 14.2462 168.955C15.2876 171.501 17.7752 173.164 20.5232 173.179" fill="#FE5621"/>
<path d="M16.488 169.143C16.6181 169.187 16.7483 169.23 16.864 169.303C17.0086 169.36 17.1533 169.433 17.2834 169.52C17.4425 169.621 17.6305 169.708 17.8186 169.852C18.0355 169.997 18.238 170.141 18.426 170.315C18.6574 170.503 18.8744 170.691 19.0768 170.908C19.5397 171.385 19.9446 171.92 20.2917 172.484C20.6244 173.063 20.8847 173.67 21.0872 174.307C21.174 174.582 21.2463 174.871 21.2897 175.146C21.3331 175.392 21.3765 175.652 21.3909 175.898C21.4054 176.1 21.4198 176.317 21.4198 176.52C21.4343 176.679 21.4343 176.838 21.4198 176.997C21.4198 177.127 21.4054 177.272 21.3765 177.402C21.3475 177.402 21.4054 176.823 21.3041 175.912C21.2752 175.666 21.2318 175.42 21.1884 175.175C21.1306 174.885 21.0583 174.61 20.9715 174.336C20.769 173.714 20.4942 173.106 20.1616 172.542C19.8145 171.978 19.4095 171.458 18.9611 170.98C18.7587 170.778 18.5562 170.575 18.3392 170.387C18.1367 170.214 17.9198 170.069 17.7462 169.924C16.9797 169.418 16.459 169.172 16.488 169.143Z" fill="#263238"/>
<path d="M174.815 167.784C174.843 167.813 174.279 168.261 173.484 169.1C172.443 170.185 171.56 171.414 170.866 172.73C170.476 173.468 170.157 174.22 169.868 175.001C169.651 175.637 169.463 176.288 169.319 176.939C169.073 178.067 169.015 178.776 168.986 178.776C168.971 178.602 168.971 178.443 168.986 178.27C169.015 177.807 169.073 177.358 169.16 176.91C169.275 176.23 169.449 175.58 169.666 174.929C169.941 174.133 170.288 173.352 170.678 172.615C171.069 171.877 171.531 171.168 172.023 170.503C172.443 169.968 172.891 169.447 173.383 168.97C173.701 168.652 174.048 168.334 174.41 168.059C174.54 167.958 174.67 167.856 174.815 167.784Z" fill="#263238"/>
<path d="M167.655 167.813C167.684 167.813 167.539 168.42 167.351 169.404C167.235 169.968 167.178 170.546 167.149 171.125C167.149 171.834 167.192 172.542 167.293 173.237C167.496 174.755 167.669 176.115 167.771 177.113C167.828 177.604 167.872 178.009 167.886 178.299C167.901 178.443 167.901 178.573 167.886 178.718C167.828 178.588 167.8 178.443 167.785 178.299C167.742 178.024 167.669 177.619 167.597 177.127C167.452 176.144 167.25 174.77 167.047 173.265C166.946 172.557 166.903 171.834 166.917 171.11C166.946 170.517 167.033 169.939 167.163 169.36C167.279 168.869 167.38 168.493 167.467 168.218C167.525 168.073 167.583 167.943 167.655 167.813Z" fill="#263238"/>
<path d="M162.275 173.569C162.593 173.656 162.897 173.801 163.157 173.989C164.502 174.871 165.558 176.129 166.165 177.633C166.31 177.937 166.397 178.255 166.44 178.588C165.645 176.491 164.184 174.726 162.275 173.555V173.569Z" fill="#263238"/>
<path d="M96.5692 6.70958L90.8708 1.3872L89.627 9.28399L82.6124 10.2241L87.2261 16.3564L79.8789 23.1685L89.4968 20.7676L90.9142 28.4475L97.0031 22.6044L105.551 27.9123L104.379 19.9721L113.086 18.251L106.144 14.1002L110.15 6.73851L103.164 9.1249L102.109 0.577271L96.5692 6.70958Z" fill="white"/>
<path d="M96.5693 6.70962L96.9309 6.29019L98.0156 5.10423L102.094 0.562853L102.167 0.476074V0.591776C102.456 2.94924 102.832 5.82738 103.237 9.13941L103.15 9.08155L110.121 6.6807L110.324 6.60838L110.222 6.7964L106.231 14.1581L106.187 14.0279L113.129 18.1788L113.361 18.3089L113.101 18.3668L104.394 20.1168L104.481 20.0011C104.857 22.5321 105.247 25.2078 105.652 27.9413L105.681 28.1727L105.479 28.0425L97.3648 22.9805L96.9454 22.7057H97.0755L91.0011 28.5198L90.8564 28.6644L90.8275 28.462L89.4101 20.7821L89.5403 20.8689L79.9224 23.2553L79.5464 23.3565L79.8356 23.0962L87.1684 16.2986V16.4288L82.5547 10.282L82.4679 10.1663H82.6125L89.6271 9.24065L89.5692 9.2985L90.8275 1.4017V1.31493L90.8998 1.38724L95.123 5.3501L96.2078 6.37697L96.5693 6.73855C96.5693 6.73855 96.4392 6.63731 96.2078 6.4059C95.9763 6.17449 95.5858 5.84184 95.1086 5.39349L90.8275 1.43063L90.9143 1.4017C90.5817 3.57115 90.1622 6.18896 89.6849 9.31296V9.37081H89.6271L82.627 10.3254L82.6849 10.1952L87.2986 16.313L87.3419 16.3709L87.2841 16.4288L79.9658 23.2408L79.8646 23.0673L89.468 20.6664L89.5837 20.6375L89.5982 20.7532C90.061 23.2553 90.5383 25.8152 91.0155 28.433L90.842 28.3752L96.9309 22.5321L96.9888 22.4743L97.0611 22.5177L97.4805 22.7925L105.594 27.84L105.435 27.9413C105.03 25.2078 104.64 22.5177 104.264 20.0011V19.8999H104.365L113.072 18.1788L113.043 18.3668L106.1 14.187L106.014 14.1436L106.057 14.0568L110.063 6.69516L110.165 6.81086L103.179 9.18279L103.092 9.21172V9.12494C102.687 5.81292 102.34 2.92032 102.051 0.577313L102.138 0.60624L97.9722 5.13315L96.8875 6.30466L96.5693 6.70962Z" fill="#263238"/>
<path d="M97.7409 10.9617L97.4227 15.6478C97.4082 15.8358 97.3359 16.0093 97.1913 16.1395C96.8876 16.4288 96.4103 16.4288 96.121 16.125C96.0053 16.0093 95.9186 15.8502 95.9041 15.6767L95.4124 10.9617C95.3834 10.7014 95.5281 10.4555 95.7739 10.3543C95.8462 10.3254 95.933 10.3109 96.0198 10.3109L97.1624 10.3398C97.2491 10.3398 97.3215 10.3543 97.3938 10.3977C97.4661 10.4266 97.5384 10.4845 97.5818 10.5423C97.6397 10.6002 97.683 10.6725 97.6975 10.7448C97.7409 10.8027 97.7409 10.8894 97.7409 10.9617Z" fill="#FE5621"/>
<path d="M95.4847 18.5403C95.557 18.7573 95.6872 18.9453 95.8607 19.0899C96.3525 19.4804 97.0756 19.4081 97.4661 18.9019C97.5095 18.8441 97.5529 18.7717 97.5963 18.6994C97.8856 18.1354 97.6541 17.4411 97.0901 17.1519C96.8153 17.0073 96.5116 16.9928 96.2223 17.0796C95.6293 17.2965 95.2967 17.9474 95.4847 18.5403Z" fill="#FE5621"/>
<path d="M78.6209 51.0242L84.7388 57.6049L92.9104 50.0986L99.6212 50.2432C99.6212 50.2432 89.2657 67.6856 86.8793 69.0885C84.4929 70.4914 82.685 69.855 80.0094 68.2207C77.3337 66.5864 68.439 55.2908 68.439 55.2908L78.6209 51.0242Z" fill="#F0BCB3"/>
<path d="M84.4494 62.5657C84.3915 62.5657 84.7097 61.3942 84.782 59.9334C84.8543 58.4726 84.6952 57.3011 84.782 57.2867C85.2014 59.0367 85.1002 60.8735 84.4638 62.5657H84.4494Z" fill="#6F4439"/>
<path d="M66.7036 13.9556C67.904 14.0279 68.9309 13.1312 69.0032 11.9307C69.0611 10.9473 68.4536 10.0361 67.5135 9.73236C68.3524 8.82119 68.309 7.40382 67.3978 6.5505C66.8916 6.07323 66.1829 5.87074 65.4887 5.98645C65.3874 4.49676 64.1147 3.38311 62.625 3.46988C62.1767 3.49881 61.7572 3.62898 61.3812 3.87485C60.282 3.02153 58.7489 3.02153 57.6497 3.87485C56.4782 3.68683 55.3791 4.48229 55.1766 5.63933C55.0609 6.34802 55.3067 7.07117 55.8274 7.56291" fill="#263238"/>
<path d="M67.0213 14.2593C66.5296 9.50093 62.4799 5.92857 57.7071 6.02981H57.2298C52.1244 6.44924 49.6223 11.0051 50.1574 16.1105L50.6203 34.3628L59.4138 43.865L63.1307 37.7905L63.0874 31.7305C63.0874 31.7305 67.9903 30.8628 67.9469 25.9454C67.918 23.559 67.4696 18.6705 67.0213 14.2593Z" fill="#F0BCB3"/>
<path d="M63.1164 31.7306C60.8313 31.7885 58.5751 31.181 56.6226 29.9806C56.6226 29.9806 58.1412 33.5819 63.0441 33.0323L63.1164 31.7306Z" fill="#6F4439"/>
<path d="M65.8209 18.7573C65.8354 19.1333 65.5316 19.4515 65.1556 19.4804C65.0688 19.4949 64.9821 19.4804 64.8953 19.4515C64.6349 19.3647 64.4469 19.1333 64.418 18.8585C64.4035 18.4825 64.6928 18.1643 65.0688 18.1354C65.1556 18.1209 65.2568 18.1354 65.3436 18.1498C65.4304 18.1788 65.5172 18.2222 65.5895 18.28C65.6618 18.3379 65.7197 18.4102 65.7631 18.497C65.792 18.5693 65.8209 18.6705 65.8209 18.7573Z" fill="#263238"/>
<path d="M66.0091 16.6891C65.9223 16.7759 65.3872 16.3998 64.6351 16.4143C63.883 16.4287 63.3334 16.8337 63.2466 16.7325C63.1599 16.6312 63.29 16.53 63.5359 16.342C63.8541 16.1106 64.2446 15.9804 64.6495 15.9804C65.04 15.9659 65.4306 16.0816 65.7487 16.2986C65.9657 16.4721 66.0525 16.6457 66.0091 16.6891Z" fill="#263238"/>
<path d="M58.9366 19.0466C58.9366 19.2346 58.8788 19.4082 58.7486 19.5383C58.6185 19.6685 58.4594 19.7553 58.2713 19.7697C58.1846 19.7842 58.0978 19.7697 58.011 19.7408C57.9242 19.7119 57.8519 19.6685 57.7796 19.6106C57.635 19.4949 57.5482 19.3214 57.5337 19.1478C57.5193 18.7573 57.8085 18.4391 58.199 18.4102C58.5751 18.3813 58.8932 18.6416 58.9366 19.0177C58.9366 19.0321 58.9366 19.0321 58.9366 19.0466Z" fill="#263238"/>
<path d="M58.5753 16.9783C58.4885 17.0651 57.9534 16.6891 57.1868 16.7035C56.4203 16.718 55.8852 17.123 55.7984 17.0217C55.7116 16.9205 55.8418 16.8192 56.0877 16.6312C56.4058 16.3998 56.7963 16.2696 57.2013 16.2696C57.5918 16.2552 57.9823 16.3709 58.3005 16.6023C58.5319 16.7758 58.6187 16.9349 58.5753 16.9783Z" fill="#263238"/>
<path d="M61.4533 22.5321C61.8438 22.402 62.2632 22.3152 62.6827 22.2863C62.8707 22.2573 63.0587 22.2139 63.0876 22.0838C63.1021 21.8813 63.0442 21.6788 62.943 21.5197C62.755 21.0569 62.5525 20.5652 62.3355 20.059C61.4967 17.9763 60.8892 16.2552 60.976 16.2552C61.0628 16.2552 61.8149 17.875 62.6682 19.9577C62.8707 20.4639 63.0732 20.9557 63.2467 21.4185C63.3769 21.6499 63.4203 21.9102 63.3624 22.1706C63.3335 22.2429 63.2901 22.3007 63.2467 22.3441C63.1889 22.3875 63.131 22.4309 63.0587 22.4598C62.9575 22.4887 62.8417 22.5032 62.7405 22.5177C62.2922 22.5755 61.8583 22.5755 61.4533 22.5321Z" fill="#263238"/>
<path d="M58.7484 14.4039C58.6617 14.592 57.9964 14.4039 57.2009 14.4039C56.4054 14.4039 55.7401 14.5341 55.6534 14.3461C55.6244 14.2449 55.7546 14.0713 56.0439 13.9267C56.4054 13.7387 56.8249 13.6374 57.2298 13.6519C57.6348 13.6663 58.0398 13.7676 58.3869 13.9845C58.6761 14.1292 58.7918 14.3172 58.7484 14.4039Z" fill="#263238"/>
<path d="M66.0526 13.999C65.8935 14.1725 65.2716 13.999 64.5195 13.999C63.7675 13.999 63.1456 14.1436 62.9865 13.9701C62.9142 13.8833 63.0154 13.7097 63.2902 13.5506C64.0567 13.1312 64.9968 13.1312 65.7634 13.5651C66.0237 13.7387 66.1105 13.9267 66.0526 13.999Z" fill="#263238"/>
<path d="M51.0399 20.8834C51.011 20.3193 50.635 19.842 50.0998 19.6685C49.9263 19.6106 49.7383 19.5962 49.5647 19.6106C48.6535 19.7119 47.6411 20.2615 47.7424 22.1416C47.9159 25.526 51.2569 24.6293 51.2569 24.528C51.2569 24.4268 51.1267 22.2863 51.0399 20.8834Z" fill="#F0BCB3"/>
<path d="M50.476 23.3276C50.4326 23.371 50.3893 23.3999 50.3314 23.4288C50.2012 23.4867 50.0421 23.5012 49.912 23.4578C49.5504 23.3421 49.2177 22.8069 49.1744 22.185C49.1454 21.8958 49.1888 21.6065 49.2901 21.3462C49.3479 21.1292 49.507 20.9557 49.7095 20.8689C49.7818 20.84 49.8397 20.84 49.912 20.8689C49.9698 20.8978 50.0277 20.9412 50.0566 20.9991C50.1 21.0858 50.0855 21.1582 50.1 21.1582C50.1145 21.1582 50.1723 21.1003 50.1289 20.9557C50.1 20.8689 50.0566 20.7966 49.9843 20.7532C49.8831 20.6953 49.7673 20.6664 49.6516 20.6809C49.3768 20.7532 49.1599 20.9701 49.0731 21.2305C48.943 21.5342 48.8996 21.8524 48.9285 22.1706C48.9863 22.8503 49.3479 23.4578 49.8686 23.5735C49.9554 23.6024 50.0566 23.6024 50.1434 23.5735C50.2302 23.559 50.3169 23.5156 50.3893 23.4578C50.476 23.4144 50.476 23.3421 50.476 23.3276Z" fill="#6F4439"/>
<path d="M64.0713 7.31706C64.0424 7.23028 63.999 7.15797 63.9556 7.08565C63.5651 6.53606 62.9432 6.18895 62.2635 6.16002C61.873 5.972 61.4824 5.81291 61.0775 5.69721C60.2531 4.30876 58.4452 3.84595 57.0568 4.67034C56.6663 4.90174 56.3481 5.21993 56.1022 5.59597C55.9576 5.61043 55.813 5.63936 55.6828 5.66828C54.3377 4.71372 52.472 5.03191 51.5175 6.39143C51.3728 6.59391 51.2571 6.82532 51.1703 7.05673C49.9988 6.78193 48.8273 7.49062 48.5525 8.66212C48.4224 9.21172 48.5092 9.79023 48.7984 10.2675C48.1765 10.6002 47.7571 11.2221 47.6992 11.9308C47.6992 12.0898 47.7282 12.2489 47.786 12.3936C47.8439 12.5382 47.9451 12.6684 48.0608 12.7841C48.1765 12.8998 48.3211 12.9866 48.4658 13.0444C48.6249 13.1023 48.7839 13.1312 48.943 13.1167C48.9286 14.8523 49.0154 16.5734 49.1889 18.2945C49.2757 19.466 50.7943 20.1457 50.91 20.9412C51.5175 25.0053 52.8047 22.7201 53.1373 14.2738L53.3976 14.0568C53.5712 13.8977 53.6146 13.6952 53.7592 13.5072C53.9038 13.3192 54.2799 13.3481 54.5691 13.3771C55.5815 13.4349 56.4927 12.7696 56.7675 11.7861C56.9266 11.9452 57.1291 12.0465 57.3605 12.0609C57.5774 12.0754 57.8089 12.0175 57.9824 11.8729C58.3295 11.5836 58.6332 11.251 58.8791 10.875C59.1395 10.4989 59.5589 10.2675 60.0217 10.282C60.2676 10.3543 60.5134 10.4121 60.7593 10.4266C61.2077 10.3688 61.4101 9.86255 61.468 9.4142C61.468 9.03816 61.5837 8.66212 61.7862 8.34394C62.0465 8.21377 62.3358 8.11253 62.625 8.0836C62.7986 8.09807 62.9577 8.11253 63.1312 8.15592C63.2035 8.15592 63.2903 8.15592 63.3626 8.15592C63.4639 8.18484 63.5651 8.22823 63.6664 8.27162C65.1705 8.95138 66.53 12.0175 66.53 12.0175C66.559 10.0506 65.4598 8.44518 64.0713 7.31706Z" fill="#263238"/>
<path d="M48.3354 10.441L48.3644 10.3832C48.3933 10.3398 48.4222 10.2964 48.4656 10.253C48.6102 10.0939 48.7838 9.96373 48.9863 9.86249C49.29 9.7034 49.6371 9.63108 49.9842 9.63108C50.447 9.61662 50.8954 9.76125 51.257 10.0505L51.1557 10.0794C51.3438 9.35629 51.8355 8.73438 52.5153 8.38726C52.8913 8.18478 53.2963 8.04015 53.7157 7.9823C54.164 7.93891 54.6124 7.95338 55.0463 8.05462C55.8562 8.24264 56.6372 8.58975 57.317 9.06703L57.2157 9.09595C57.4905 8.38727 58.0112 7.80875 58.6909 7.4761C59.5877 7.04221 60.6579 7.10006 61.4823 7.64965C61.5691 7.70751 61.6559 7.76536 61.7282 7.82321C61.786 7.8666 61.8005 7.89552 61.8005 7.89552C61.8005 7.89552 61.6848 7.80874 61.4534 7.67858C61.1207 7.49056 60.7736 7.37486 60.3976 7.317C59.8335 7.23023 59.2405 7.31701 58.7343 7.57734C58.0835 7.90999 57.5773 8.45958 57.317 9.13934L57.288 9.21166L57.2157 9.16827C56.536 8.70545 55.7839 8.3728 54.9884 8.18478C54.569 8.098 54.1496 8.06908 53.7157 8.11247C53.3107 8.17032 52.9202 8.28602 52.5586 8.48851C51.9078 8.82116 51.4305 9.39968 51.2425 10.1084V10.1951L51.1702 10.1373C50.8375 9.86249 50.4181 9.71786 49.9842 9.71786C49.6516 9.7034 49.3189 9.77571 49.0152 9.92034C48.7838 10.0794 48.5379 10.2385 48.3354 10.441Z" fill="#455A64"/>
<path d="M61.7568 8.12702C61.7423 8.17041 61.7278 8.2138 61.6989 8.25718C61.6555 8.38735 61.6121 8.51752 61.5832 8.64769C61.5398 8.82124 61.5109 9.03819 61.453 9.28406C61.4097 9.58778 61.3084 9.87704 61.1349 10.1374C61.0192 10.282 60.8456 10.3832 60.672 10.3977C60.484 10.4122 60.2815 10.3977 60.0935 10.3688C59.9055 10.3399 59.703 10.3543 59.5295 10.4266C59.3415 10.5279 59.1824 10.658 59.0522 10.8171C58.9076 10.9762 58.7774 11.1642 58.6328 11.3523C58.5026 11.5547 58.329 11.7428 58.141 11.9019C57.9241 12.0465 57.6637 12.1477 57.4034 12.1622C57.2588 12.1911 57.1141 12.1911 56.984 12.1622C56.8393 12.1333 56.7092 12.0465 56.6224 11.9308H56.7381C56.6947 12.1333 56.6224 12.3213 56.5212 12.4948C56.4199 12.6829 56.2898 12.842 56.1307 12.9866C55.798 13.2614 55.3931 13.4494 54.9592 13.5073C54.7856 13.5362 54.5976 13.5506 54.424 13.5362C54.2649 13.5073 54.0914 13.5073 53.9323 13.5362C53.7877 13.594 53.6575 13.6953 53.5707 13.8254C53.4695 13.9556 53.3538 14.0858 53.2381 14.2015C52.7897 14.6788 52.1823 14.968 51.5459 15.0259C50.9529 15.0114 50.3889 14.78 49.955 14.3895C49.5789 14.0568 49.3186 13.6085 49.1884 13.1168L49.2463 13.1457C48.8702 13.2325 48.4653 13.1457 48.1616 12.9143C47.9301 12.7407 47.7711 12.4804 47.7132 12.1911C47.6698 12.0176 47.6698 11.8295 47.7132 11.656C47.7277 11.6126 47.7277 11.5692 47.7566 11.5258C47.7566 11.5114 47.7566 11.4969 47.7566 11.4824C47.6987 11.7138 47.6987 11.9452 47.7566 12.1767C47.8289 12.4515 47.988 12.6829 48.2049 12.842C48.5087 13.0589 48.8847 13.1312 49.2318 13.0444H49.2752V13.1023C49.4054 13.5651 49.6657 13.9845 50.0273 14.3027C50.4467 14.6643 50.9818 14.8668 51.5459 14.8668C52.1678 14.8089 52.7463 14.5052 53.1658 14.0424C53.2815 13.9267 53.3827 13.7965 53.4839 13.6663C53.5852 13.5072 53.7298 13.3915 53.9034 13.3192C53.9901 13.2903 54.0914 13.2758 54.1782 13.2758H54.4385C54.6121 13.2758 54.7856 13.2758 54.9447 13.2469C55.3497 13.1891 55.7257 13.0155 56.0439 12.7552C56.3331 12.5093 56.5212 12.1767 56.5935 11.8006L56.6369 11.6415L56.7236 11.7717C56.8104 11.8585 56.9117 11.9163 57.0274 11.9597C57.1431 11.9886 57.2588 12.0031 57.3745 11.9742C57.6204 11.9597 57.8518 11.8729 58.0398 11.7428C58.2278 11.5981 58.3869 11.4246 58.5026 11.2221C58.6472 11.0485 58.7919 10.8605 58.922 10.687C59.0667 10.5134 59.2402 10.3688 59.4427 10.2675C59.6452 10.1952 59.8621 10.1808 60.0646 10.2097C60.2526 10.2386 60.4262 10.2531 60.6142 10.2386C60.701 10.2242 60.7733 10.2097 60.8456 10.1663C60.9179 10.1229 60.9758 10.0795 61.0336 10.0072C61.1927 9.76134 61.294 9.501 61.3518 9.21174C61.4097 8.96587 61.453 8.74893 61.4964 8.57537C61.5254 8.44521 61.5832 8.31504 61.6411 8.18487C61.7278 8.15594 61.7568 8.11256 61.7568 8.12702Z" fill="#455A64"/>
<path d="M59.1248 23.9061C58.7921 24.745 59.1103 25.6995 59.8768 26.1624C60.1516 26.3215 60.4988 26.3504 60.8025 26.2636C61.1785 26.1768 61.4967 25.9165 61.6413 25.5694C61.8004 25.2223 61.8727 24.8318 61.8438 24.4413C61.0917 24.2677 59.8913 24.0797 59.1248 23.9061Z" fill="#6F4439"/>
<path d="M61.5401 25.8008C61.4967 25.8876 61.4244 25.9454 61.3376 26.0032C61.1206 26.1623 60.8748 26.2491 60.6144 26.2636C60.2239 26.2925 59.8334 26.1768 59.5297 25.9165C59.1537 25.6128 58.9223 25.1644 58.8933 24.6871C58.8789 24.4413 58.9078 24.1809 58.9656 23.935V23.8772H59.038C59.8334 24.0363 60.5132 24.1665 61.0049 24.2822C61.2653 24.3255 61.5401 24.3979 61.7859 24.4702C61.5111 24.4557 61.2508 24.4268 60.9905 24.3689C60.4987 24.2822 59.8045 24.1665 59.009 24.0074L59.0814 23.964C59.0235 24.1954 58.9946 24.4268 59.009 24.6582C59.0235 24.8751 59.0814 25.0921 59.1826 25.2946C59.2838 25.4971 59.414 25.6706 59.5876 25.8152C60.0648 26.2202 60.7446 26.2636 61.2797 25.9454C61.4677 25.8586 61.5256 25.7863 61.5401 25.8008Z" fill="#263238"/>
<path d="M57.5624 162.057L57.0852 172.846C57.0852 172.846 67.889 176.954 68.0047 178.949L47.0479 178.79L47.0912 161.955L57.5624 162.057Z" fill="#455A64"/>
<path d="M50.6058 171.891C50.1864 172.007 49.926 172.427 49.9984 172.86C50.1141 173.28 50.5335 173.54 50.9529 173.468C51.4013 173.338 51.6761 172.889 51.5748 172.427C51.4157 171.993 50.9529 171.761 50.5046 171.906" fill="#E0E0E0"/>
<g opacity="0.6">
<path opacity="0.6" d="M47.0479 178.79L47.1202 177.098L67.1803 177.879C67.1803 177.879 68.106 178.299 68.0047 178.949L47.0479 178.79Z" fill="white"/>
</g>
<path d="M57.4181 172.745C57.4181 172.846 56.8975 172.889 56.3913 173.208C55.8851 173.526 55.6103 173.96 55.5235 173.916C55.4367 173.873 55.5813 173.28 56.2032 172.904C56.8251 172.528 57.4615 172.658 57.4181 172.745Z" fill="#263238"/>
<path d="M59.6164 173.67C59.6453 173.772 59.1969 173.945 58.8498 174.365C58.5027 174.784 58.4015 175.247 58.3002 175.247C58.199 175.247 58.1411 174.654 58.5895 174.133C59.0378 173.613 59.6164 173.569 59.6164 173.67Z" fill="#263238"/>
<path d="M60.8457 176.317C60.7589 176.346 60.6142 175.825 60.8746 175.276C61.1349 174.726 61.6267 174.495 61.67 174.582C61.7134 174.668 61.4097 174.972 61.2072 175.42C61.0047 175.869 60.9469 176.303 60.8457 176.317Z" fill="#263238"/>
<path d="M57.2588 170.272C57.2154 170.373 56.7381 170.228 56.1596 170.272C55.581 170.315 55.1327 170.489 55.0748 170.402C55.017 170.315 55.4653 169.953 56.1451 169.924C56.8249 169.896 57.3021 170.199 57.2588 170.272Z" fill="#263238"/>
<path d="M57.5195 170.156C57.5918 171.024 57.6063 171.891 57.5484 172.759L57.4616 172.629C58.691 173.092 60.3108 173.728 62.0464 174.538C63.6952 175.261 65.2427 176.158 66.7035 177.199C67.1518 177.518 67.5423 177.923 67.8461 178.371C68.063 178.704 68.0341 178.964 68.0052 178.949C67.9473 178.761 67.8605 178.602 67.7304 178.443C67.3832 178.038 66.9928 177.691 66.5444 177.387C65.0692 176.404 63.5216 175.565 61.9018 174.856C60.1807 174.046 58.5753 173.396 57.3749 172.875L57.2881 172.846V172.759C57.3025 171.891 57.3893 171.009 57.5195 170.156Z" fill="#263238"/>
<path d="M43.9966 86.8346V96.6116L47.8582 127.837C47.8582 127.837 46.6288 142.474 45.8768 150.747C45.2259 157.935 46.2962 170.431 46.2962 170.431H57.7364L61.8295 128.734L64.3605 102.729L68.9597 87.3263L43.9966 86.8346Z" fill="#263238"/>
<path d="M64.2735 160.191L61.2652 170.561C61.2652 170.561 70.8108 177.084 70.4492 179.065L50.1143 173.989L54.1205 157.631L64.2735 160.191Z" fill="#455A64"/>
<path d="M55.2196 168.117C54.7857 168.131 54.4241 168.478 54.4097 168.927C54.4097 169.144 54.4964 169.332 54.6411 169.491C54.7857 169.635 54.9882 169.737 55.2051 169.737C55.4221 169.722 55.6246 169.635 55.7837 169.476C55.9427 169.317 56.0295 169.115 56.044 168.898C56.0006 168.435 55.5812 168.102 55.1328 168.146" fill="#E0E0E0"/>
<g opacity="0.6">
<path opacity="0.6" d="M50.1289 173.989L50.5917 172.354L69.8998 177.85C69.8998 177.85 70.7097 178.472 70.4494 179.08L50.1289 173.989Z" fill="white"/>
</g>
<path d="M61.6413 170.546C61.6123 170.648 61.1061 170.546 60.5276 170.763C59.9491 170.98 59.5875 171.313 59.5152 171.255C59.4429 171.197 59.7322 170.662 60.4119 170.431C61.0917 170.199 61.6847 170.46 61.6413 170.546Z" fill="#263238"/>
<path d="M63.5504 171.964C63.5504 172.065 63.0731 172.123 62.6392 172.456C62.2053 172.788 61.9884 173.208 61.8871 173.179C61.7859 173.15 61.8582 172.571 62.4223 172.166C62.9863 171.761 63.5648 171.863 63.5504 171.964Z" fill="#263238"/>
<path d="M64.1143 174.827C64.0276 174.827 64.0131 174.292 64.4036 173.815C64.7941 173.338 65.3148 173.237 65.3292 173.338C65.3437 173.439 64.9966 173.656 64.6784 174.046C64.3602 174.437 64.2156 174.827 64.1143 174.827Z" fill="#263238"/>
<path d="M62.0607 168.102C62.0028 168.189 61.5689 167.929 61.0048 167.827C60.4408 167.726 59.9491 167.784 59.9201 167.697C59.8912 167.61 60.3974 167.35 61.0627 167.48C61.728 167.61 62.104 168.044 62.0607 168.102Z" fill="#263238"/>
<path d="M73.3997 87.4999L73.9204 92.8223L73.284 131.438L64.2302 162.462L62.0318 169.982L50.3457 167.784L59.3417 87.5143L73.3997 87.4999Z" fill="#263238"/>
<path d="M73.0382 132.248C73.0382 132.306 73.0238 132.364 72.9948 132.422C72.9515 132.538 72.9081 132.726 72.8502 132.957C72.72 133.434 72.5176 134.129 72.2572 135.04C71.7366 136.862 70.9845 139.494 70.0155 142.835C68.0774 149.517 65.3439 158.947 62.1331 169.997L62.1042 170.069H62.003L50.3169 167.871L50.2012 167.842L50.2301 167.741C50.8231 164.588 51.445 161.305 52.0814 157.949C53.976 148.013 55.7405 138.641 57.3025 130.455V130.484C55.3645 118.335 53.8314 108.659 52.9347 103.091L50.9822 99.5476C50.7652 99.1426 50.5917 98.8389 50.4904 98.622L50.3313 98.3038C50.3313 98.3038 50.4036 98.405 50.5194 98.6075L51.04 99.5042L53.0215 103.033C53.9326 108.587 55.5091 118.263 57.4905 130.397V130.426C55.943 138.612 54.164 147.984 52.2838 157.92C51.6475 161.276 51.0111 164.573 50.4326 167.712L50.3458 167.581L62.0319 169.78L61.9162 169.852L69.8708 142.705C70.8543 139.379 71.6353 136.746 72.1705 134.924C72.4452 134.027 72.6477 133.333 72.7924 132.856L72.9515 132.321C72.9948 132.35 73.0238 132.292 73.0382 132.248Z" fill="#455A64"/>
<path d="M71.2877 90.6528C71.1286 90.9999 70.9117 91.3181 70.6513 91.5929C70.0584 92.2872 69.3497 92.8801 68.5687 93.3574C67.7877 93.8347 66.9344 94.1818 66.0377 94.3843C65.6761 94.4855 65.3 94.5289 64.9095 94.5289C64.8806 94.4566 66.6451 94.283 68.4385 93.1694C69.5232 92.4896 70.4778 91.6363 71.2877 90.6528Z" fill="#455A64"/>
<path d="M38.1533 60.0058C38.1533 60.0058 36.7938 68.7559 37.705 72.2126C38.6161 75.6692 46.0212 84.4193 46.0212 84.4193L56.1308 78.0845L49.4779 61.5533L38.1533 60.0058Z" fill="#F0BCB3"/>
<path d="M47.5107 38.2968C47.5107 38.2968 53.3104 38.3836 53.3971 45.6151C53.4839 52.8466 51.9219 62.5079 51.9219 62.5079L37.1118 59.9045C37.1118 59.9045 38.9486 46.4395 40.5106 42.5634C42.0726 38.6873 45.1098 37.6315 47.5107 38.2968Z" fill="#455A64"/>
<path d="M50.2878 33.0901L50.0998 34.2761C50.0998 34.2761 42.1885 39.5117 41.7402 40.8567C41.046 42.9683 42.5646 60.6276 43.2299 65.6463C43.8952 70.6649 44.0253 81.7002 44.0253 81.7002C43.5336 83.0019 42.984 84.1734 42.8104 85.9957C42.6369 87.8181 44.0253 89.4379 44.0253 89.4379C52.5151 92.2148 62.8995 90.0887 74.1228 87.5288L74.0216 84.3469L70.3624 49.7804C70.3624 49.7804 71.4327 40.7989 67.0504 38.1955C66.5731 37.9063 62.7404 35.7368 62.7404 35.7368L50.2878 33.0901Z" fill="#455A64"/>
<path opacity="0.3" d="M62.9863 48.0738C63.1165 51.7763 63.9987 55.3921 65.5897 58.733C67.224 62.1897 69.4802 65.3137 72.2426 67.9749L71.0567 57.6338L62.9863 48.0738Z" fill="#10253F"/>
<path d="M69.6393 39.3526C68.2508 38.2245 65.6764 37.6171 64.2012 38.6295C63.3768 39.1501 62.7549 39.9167 62.4078 40.8278C61.1351 44.5014 61.9016 48.4643 62.914 51.3858C63.9264 54.3073 68.786 59.9624 68.786 59.9624L80.7903 52.673C80.7903 52.673 72.7633 42.925 71.9244 41.927C71.4761 41.4064 70.4058 39.9601 69.6393 39.3526Z" fill="#455A64"/>
<path d="M69.6393 39.3526C69.7261 39.4105 69.8128 39.4828 69.8996 39.5551C70.131 39.772 70.348 39.989 70.5649 40.2349C71.1145 40.8423 71.8521 41.7969 72.8501 42.9684L80.877 52.6296L80.9494 52.7164L80.8481 52.7743L69.4947 59.6731L68.8294 60.0925L68.7426 60.1359L68.6847 60.0636C67.3397 58.4727 66.0959 56.8818 64.9677 55.2764C64.4182 54.4954 63.8975 53.671 63.4347 52.8321C63.2033 52.4272 63.0152 52.0077 62.8417 51.5594C62.6826 51.14 62.5524 50.7205 62.4223 50.2577C61.4243 46.8155 61.3954 43.4312 62.3066 40.8568C62.7404 39.6853 63.6516 38.7452 64.8087 38.2824C65.2859 38.1233 65.7921 38.0654 66.2983 38.1088C66.7178 38.1377 67.1372 38.1956 67.5422 38.3257C68.1062 38.4848 68.6413 38.7162 69.1331 39.02C69.3066 39.1212 69.4657 39.2514 69.6104 39.3815C69.4513 39.2658 69.2777 39.1501 69.1042 39.0489C68.6124 38.7596 68.0773 38.5427 67.5132 38.3981C67.1083 38.2824 66.7033 38.2245 66.2839 38.21C65.7921 38.1811 65.3004 38.2534 64.8376 38.3981C64.3169 38.6005 63.8396 38.9187 63.4491 39.3381C62.9863 39.772 62.6537 40.3216 62.4512 40.9146C61.5689 43.4456 61.6123 46.8011 62.6103 50.2143C62.7404 50.6337 62.8706 51.0532 63.0297 51.4871C63.1888 51.921 63.3913 52.3404 63.6082 52.7598C64.071 53.5987 64.5772 54.3941 65.1268 55.1751C66.2405 56.7661 67.4843 58.357 68.8294 59.9479L68.6847 59.919L69.35 59.514L80.7035 52.6296L80.6746 52.7743C77.4204 48.797 74.658 45.4415 72.7054 43.0551C71.722 41.8836 71.0133 40.9146 70.4637 40.2927C70.2033 39.9745 69.9864 39.7431 69.8273 39.5985C69.7839 39.5117 69.7116 39.4394 69.6393 39.3526Z" fill="#263238"/>
<path d="M41.552 44.8485C41.5809 44.9208 41.5809 44.9787 41.5809 45.051C41.5809 45.2101 41.6098 45.4126 41.6388 45.6584C41.6822 46.2225 41.74 46.9746 41.7979 47.8857C41.9136 49.7949 42.0871 52.3693 42.2607 55.2185C42.4342 58.0677 42.6512 60.671 42.8103 62.5367C42.897 63.4479 42.9549 64.2 43.0128 64.7496C43.0417 64.9955 43.0561 65.169 43.0561 65.357C43.0706 65.4293 43.0706 65.5017 43.0561 65.574C43.0272 65.5017 43.0128 65.4438 43.0128 65.3715C42.9838 65.2124 42.9549 65.0099 42.9115 64.7785C42.8392 64.2578 42.738 63.5058 42.6367 62.5657C42.4342 60.7 42.2173 58.1111 42.0148 55.2474C41.8123 52.3837 41.6966 49.7948 41.5954 47.9147C41.552 47.0035 41.5231 46.2514 41.4941 45.6874V45.0799C41.5375 44.9931 41.5375 44.9208 41.552 44.8485Z" fill="#263238"/>
<path d="M68.1207 86.8346C68.0483 86.8635 67.976 86.8925 67.9037 86.9069L67.2529 87.066C66.9636 87.1383 66.6165 87.2106 66.2115 87.283C65.8066 87.3553 65.3727 87.442 64.8376 87.5288C63.8251 87.7024 62.5958 87.847 61.2218 87.9772C59.8478 88.1073 58.3581 88.1797 56.7672 88.1941C55.1763 88.2086 53.6866 88.1507 52.3126 88.064C50.9386 87.9772 49.7237 87.8325 48.6969 87.6735C48.1907 87.6011 47.7278 87.5144 47.3229 87.4421C46.9179 87.3697 46.5708 87.2974 46.296 87.2251L45.6452 87.066C45.5729 87.0515 45.4861 87.0371 45.4282 86.9937C45.5005 86.9937 45.5873 86.9937 45.6596 87.0226L46.3105 87.1383C46.5997 87.1962 46.9324 87.254 47.3518 87.3119C47.7712 87.3697 48.1907 87.4565 48.7258 87.5144C49.7527 87.659 50.9675 87.7747 52.3415 87.8759C53.7155 87.9772 55.2052 88.0061 56.7817 87.9916C58.3581 87.9772 59.8623 87.8904 61.2218 87.7892C62.5813 87.6879 63.7962 87.5433 64.8231 87.3697C65.3293 87.2974 65.7921 87.2251 66.1971 87.1528C66.602 87.0805 66.9492 87.0371 67.2384 86.9648L67.8892 86.8491C67.9616 86.8346 68.0339 86.8201 68.1207 86.8346Z" fill="#263238"/>
<path d="M155.593 41.363C155.839 39.5551 153.308 38.0799 151.399 37.9352C150.487 37.8629 149.547 37.9931 148.68 37.7038C146.814 37.053 146.062 34.6377 144.239 33.8711C142.88 33.2926 141.303 33.8133 139.987 34.4786C138.671 35.1439 137.37 35.9827 135.88 36.0695C134.607 36.1563 133.204 35.679 132.076 36.3009C131.237 36.7637 130.803 37.7328 130.022 38.2968C129.241 38.8609 128.287 38.9766 127.347 39.02C126.407 39.0634 125.438 39.0778 124.584 39.4683C123.731 39.8588 123.022 40.7555 123.196 41.6812L155.593 41.363Z" fill="#F5F5F5"/>
<path d="M100.648 49.2597L110.787 59.3983L119.566 47.8279L124.628 55.016C124.628 55.016 115.791 69.0162 113.911 70.26C112.03 71.5038 109.847 72.6898 106.795 70.26C103.743 67.8302 96.2803 53.1358 96.2803 53.1358L99.2452 48.6089L100.648 49.2597Z" fill="#F0BCB3"/>
<path d="M102.513 46.1791C102.412 45.7163 102.412 45.239 102.513 44.7618C102.557 44.3568 102.455 43.9518 102.21 43.6192C102.022 43.3444 102.137 43.0117 102.022 42.2886C101.906 41.5654 100.908 41.2906 100.908 41.2906C100.908 41.2906 100.763 40.9435 100.532 40.4084C100.3 39.8733 98.9698 39.3381 97.943 39.0778C96.9161 38.8175 96.5256 39.4249 96.5256 39.4249L96.569 39.6563L97.0607 40.3072L94.9925 41.1026L93.6185 48.6234L92.9243 50.0986L98.1455 52.4416L99.317 50.518C99.317 50.518 102.065 47.8858 102.267 47.4229C102.383 47.2349 102.47 47.0324 102.513 46.8155C102.571 46.613 102.557 46.3961 102.513 46.1791Z" fill="#F0BCB3"/>
<path d="M96.8296 39.6852C96.8296 39.6852 95.9908 38.7451 95.2676 38.8898C94.5445 39.0344 93.156 39.7865 93.1271 40.6253C93.0982 41.4642 94.0527 41.4208 94.6602 41.2762L94.9784 41.1315L95.499 41.4786L97.5672 40.6832L96.8296 39.6852Z" fill="#F0BCB3"/>
<path d="M93.1415 41.0881C93.1415 41.0881 91.7386 40.9724 91.2324 41.2906C91.0444 41.4063 90.8997 41.5654 90.784 41.7534C90.5526 42.1295 90.4948 42.5923 90.6394 43.0117C90.7117 43.2142 90.813 43.4022 90.972 43.5613L93.3151 43.0696H96.7717C96.7717 43.0696 96.9163 41.8981 96.7717 41.6956C96.6271 41.4931 94.6456 41.0303 93.1415 41.0881Z" fill="#F0BCB3"/>
<path d="M90.799 43.6047C90.5821 43.7493 90.4085 43.9518 90.2928 44.1832C90.1771 44.4146 90.1337 44.675 90.1482 44.9353C90.1916 45.1956 90.2928 45.4415 90.4519 45.644C90.611 45.8465 90.828 46.0056 91.0738 46.1068L93.547 45.0365L99.0429 45.1378C99.0429 45.1378 99.8818 44.082 98.8115 43.6047C97.7413 43.1274 95.0078 43.084 93.8652 43.084C92.8094 43.1564 91.797 43.3299 90.799 43.6047Z" fill="#F0BCB3"/>
<path d="M91.0735 46.1213C90.9 46.3093 90.7843 46.5552 90.7409 46.801C90.6975 47.0614 90.7409 47.3217 90.8421 47.5531C91.2326 48.3197 91.5797 48.3197 91.5797 48.3197C91.5797 48.3197 91.5797 49.2887 91.869 49.5924C92.1004 49.8238 92.3607 50.0407 92.6355 50.2288L94.4868 48.7825C94.4868 48.7825 97.0901 48.5366 97.4517 48.175C97.6976 47.9002 97.8856 47.5676 98.0158 47.2205C98.0158 47.2205 98.9558 47.3651 99.3608 46.9457C99.7658 46.5262 99.7802 45.3837 98.8691 45.1523L93.5612 45.0076L91.0735 46.1213Z" fill="#F0BCB3"/>
<path d="M97.9291 47.3651C98.334 47.0758 96.8877 46.9601 95.3546 47.0469C94.4145 47.1626 93.4745 47.3217 92.5488 47.5386C92.7947 47.3795 93.055 47.2783 93.3298 47.2205C93.9807 47.018 94.6604 46.8878 95.3402 46.8444C96.0199 46.801 96.6997 46.8299 97.3795 46.9312L97.7266 46.989C97.8278 47.0035 97.9146 47.0614 97.9869 47.1481C98.0014 47.1771 98.0158 47.206 98.0158 47.2494C98.0158 47.2783 98.0014 47.3217 97.9869 47.3506C97.958 47.3651 97.9435 47.3651 97.9291 47.3651Z" fill="#263238"/>
<path d="M99.0281 45.2246C98.7099 45.268 98.3773 45.2824 98.0591 45.2535L95.7306 45.1378C94.964 45.0944 94.183 45.1378 93.4165 45.239C93.0983 45.3114 92.7801 45.3548 92.4619 45.3837C92.7512 45.239 93.0694 45.1378 93.3875 45.08C94.1541 44.9209 94.9496 44.863 95.7306 44.9064C96.6417 44.9353 97.4661 45.0221 98.0591 45.08C98.3917 45.1089 98.7099 45.1523 99.0281 45.2246Z" fill="#263238"/>
<path d="M96.8151 43.1419C96.8151 43.2142 95.5423 43.1419 93.9948 43.2287C92.4472 43.3155 91.2034 43.5613 91.189 43.489C91.4493 43.3733 91.7096 43.301 91.9844 43.2721C92.6353 43.1419 93.3006 43.0551 93.9803 43.0117C94.6456 42.9683 95.3254 42.9683 95.9907 43.0117C96.2655 43.0117 96.5547 43.0551 96.8151 43.1419Z" fill="#263238"/>
<path d="M96.7571 41.6522C95.9761 41.4497 95.1806 41.3051 94.3707 41.2472C93.0401 41.1894 91.9409 41.2761 91.9409 41.2038C92.1723 41.1315 92.4037 41.0881 92.6496 41.0881C93.2281 41.0303 93.8066 41.0158 94.3852 41.0447C94.9637 41.0737 95.5422 41.1749 96.1063 41.3485C96.3377 41.3919 96.5546 41.5076 96.7571 41.6522Z" fill="#263238"/>
<path d="M98.7822 40.1915C98.3483 40.4518 97.8855 40.6543 97.3938 40.8134C96.9309 41.0303 96.4537 41.2039 95.9619 41.3051C96.3669 41.0014 96.8297 40.7555 97.307 40.6109C97.7842 40.3795 98.276 40.2493 98.7822 40.1915Z" fill="#6F4439"/>
<path d="M111.307 64.8942C111.307 63.8962 111.235 62.8838 111.119 61.9003C110.917 60.9169 110.671 59.9478 110.367 58.9933C110.555 59.2392 110.685 59.4995 110.787 59.7888C111.061 60.454 111.249 61.1483 111.365 61.8714C111.481 62.5801 111.51 63.3033 111.466 64.0264C111.452 64.3157 111.409 64.6049 111.307 64.8942Z" fill="#263238"/>
<path d="M127.491 27.2905C127.535 25.0632 127.983 20.4784 128.432 16.3275C128.923 11.8729 132.756 8.53196 137.239 8.66212H137.688C142.49 9.08155 144.804 13.3915 144.254 18.1643L143.835 37.024L140.407 42.52L132.365 40.6977L132.93 32.743C132.93 32.743 127.419 31.8897 127.491 27.2905Z" fill="#F0BCB3"/>
<path d="M132.004 32.743C134.13 32.8442 136.256 32.3091 138.078 31.2099C138.078 31.2099 136.56 34.493 131.96 33.9434L132.004 32.743Z" fill="#263238"/>
<path d="M129.386 20.4929C129.386 20.6665 129.444 20.8255 129.559 20.9557C129.675 21.0859 129.834 21.1582 130.008 21.1727C130.094 21.1871 130.181 21.1727 130.254 21.1437C130.34 21.1148 130.413 21.0859 130.47 21.028C130.543 20.9702 130.586 20.9123 130.63 20.84C130.673 20.7677 130.687 20.6809 130.702 20.6086C130.716 20.247 130.442 19.9433 130.08 19.9288C129.993 19.9144 129.906 19.9288 129.834 19.9433C129.747 19.9722 129.675 20.0012 129.617 20.059C129.473 20.1602 129.4 20.3193 129.386 20.4929Z" fill="#263238"/>
<path d="M129.285 18.3523C129.371 18.4391 129.878 18.0775 130.586 18.1064C131.295 18.1354 131.801 18.4969 131.888 18.4102C131.975 18.3234 131.845 18.2077 131.628 18.0486C131.324 17.8316 130.962 17.7015 130.586 17.687C130.21 17.6725 129.849 17.7882 129.545 17.9907C129.415 18.0775 129.328 18.2077 129.285 18.3523Z" fill="#263238"/>
<path d="M135.707 20.623C135.692 20.9846 135.967 21.2883 136.329 21.3028C136.502 21.3172 136.661 21.2738 136.791 21.1581C136.849 21.1003 136.907 21.0424 136.95 20.9701C136.994 20.8978 137.008 20.811 137.023 20.7243C137.037 20.3627 136.762 20.059 136.401 20.0445C136.314 20.03 136.227 20.0445 136.155 20.0734C136.068 20.1023 135.996 20.1313 135.938 20.1891C135.808 20.2904 135.721 20.435 135.707 20.623Z" fill="#263238"/>
<path d="M136.068 18.3523C136.14 18.4535 136.675 18.1498 137.384 18.2511C138.093 18.3523 138.555 18.7717 138.657 18.6705C138.758 18.5692 138.657 18.468 138.44 18.28C138.165 18.0341 137.818 17.875 137.442 17.8172C137.08 17.7593 136.704 17.8316 136.386 18.0052C136.126 18.1643 136.039 18.3089 136.068 18.3523Z" fill="#263238"/>
<path d="M133.609 24.1086C133.233 23.9785 132.857 23.9062 132.467 23.8628C132.279 23.8338 132.12 23.8049 132.091 23.6747C132.091 23.4867 132.134 23.2987 132.235 23.1396C132.409 22.7202 132.611 22.2574 132.814 21.7801C133.609 19.8421 134.202 18.2367 134.115 18.2077C134.029 18.1788 133.32 19.7263 132.525 21.6644C132.337 22.1417 132.149 22.6045 131.975 23.0384C131.859 23.2553 131.816 23.5012 131.859 23.7471C131.888 23.8049 131.917 23.8628 131.975 23.9206C132.018 23.964 132.091 24.0074 132.149 24.0219C132.25 24.0508 132.351 24.0652 132.452 24.0652C132.828 24.1376 133.219 24.152 133.609 24.1086Z" fill="#263238"/>
<path d="M136.372 15.2862C136.429 15.4742 137.153 15.4163 137.977 15.5321C138.801 15.6478 139.467 15.8936 139.582 15.7345C139.64 15.6478 139.524 15.4742 139.264 15.2717C138.541 14.7944 137.644 14.6643 136.82 14.9246C136.502 15.0403 136.343 15.1994 136.372 15.2862Z" fill="#263238"/>
<path d="M129.502 15.6044C129.617 15.7635 130.109 15.6044 130.702 15.6044C131.295 15.6044 131.787 15.749 131.902 15.5755C131.946 15.4887 131.888 15.3296 131.671 15.156C131.092 14.7655 130.326 14.7655 129.733 15.156C129.516 15.3585 129.444 15.5321 129.502 15.6044Z" fill="#263238"/>
<path d="M143.776 21.5776C143.863 21.5487 146.973 20.7243 146.785 23.8772C146.597 27.0302 143.473 26.1913 143.473 26.0901C143.473 25.9888 143.776 21.5776 143.776 21.5776Z" fill="#F0BCB3"/>
<path d="M144.485 24.9619C144.529 24.9909 144.572 25.0343 144.63 25.0487C144.688 25.0776 144.76 25.1066 144.832 25.1066C144.905 25.1066 144.977 25.1066 145.049 25.0776C145.483 24.8318 145.744 24.3834 145.744 23.8917C145.773 23.6169 145.729 23.3565 145.642 23.0962C145.613 22.995 145.57 22.9082 145.512 22.8214C145.44 22.7491 145.353 22.6768 145.266 22.6479C145.208 22.6334 145.136 22.6334 145.078 22.6479C145.02 22.6768 144.963 22.7202 144.934 22.778C144.89 22.8648 144.905 22.9227 144.89 22.9227C144.876 22.9227 144.832 22.8648 144.861 22.7346C144.89 22.6623 144.934 22.59 144.992 22.5466C145.078 22.4888 145.194 22.4598 145.295 22.4888C145.556 22.5611 145.758 22.7491 145.845 23.0094C145.961 23.2842 146.004 23.588 145.975 23.8917C145.917 24.528 145.556 25.1066 145.093 25.2078C145.006 25.2223 144.919 25.2223 144.832 25.2078C144.746 25.1933 144.659 25.15 144.601 25.0921C144.485 25.0343 144.485 24.9619 144.485 24.9619Z" fill="#263238"/>
<path d="M128.07 10.9039C128.2 10.2675 128.692 9.76129 129.343 9.63112C129.314 9.52988 129.994 9.2117 130.514 8.83566C131.035 8.45962 131.151 7.56291 131.628 8.02573C131.671 7.28812 132.25 6.69513 132.987 6.65175C133.219 6.63728 133.465 6.66621 133.682 6.76745C133.682 6.2034 134.492 6.02984 135.027 5.88521C135.562 5.74058 135.779 5.66826 136.025 6.16C136.213 5.89967 136.459 5.68273 136.733 5.52363C137.616 5.04636 138.7 5.23438 139.366 5.98645C140.696 5.61041 142.114 6.27571 142.649 7.54845C143.704 7.64969 144.587 8.3873 144.89 9.39971C145.556 9.47203 145.715 9.9927 145.975 10.6001C146.235 11.2076 146.612 11.8729 146.221 12.4225C146.8 12.7841 147.031 13.4927 146.8 14.1291C146.727 14.3316 146.597 14.5196 146.438 14.6642C146.612 14.7655 146.771 14.8957 146.886 15.0547C147.219 15.2717 147.436 15.6188 147.508 16.0093C147.581 16.3998 147.494 16.8048 147.262 17.123C147.899 17.6292 148 18.5403 147.494 19.1767C147.205 19.5527 146.742 19.7552 146.279 19.7263C146.785 20.4639 146.134 21.4619 145.744 21.6643C145.744 21.6643 144.457 21.1147 144.24 22.0838C144.254 22.185 144.225 22.2862 144.196 22.373C144.109 22.561 143.936 22.6912 143.733 22.7201C143.632 22.7346 143.531 22.7201 143.444 22.6912C143.097 22.4743 142.822 22.1416 142.649 21.7656C142.374 21.3751 142.171 20.9556 142.027 20.4928C141.897 20.03 142.07 19.5383 142.475 19.2779C141.94 19.0321 141.578 18.5259 141.521 17.9329C141.477 17.3688 141.521 16.7903 141.665 16.2407L142.186 13.7531C141.014 13.6808 139.987 12.9576 139.51 11.8874C139.076 12.1621 138.541 12.2489 138.049 12.1188C137.804 12.0464 137.572 11.9307 137.384 11.7716C137.182 11.6126 137.023 11.4101 136.921 11.1787C136.459 12.3212 135.186 12.8998 134.014 12.5237C134.116 13.1746 132.93 13.7531 132.279 13.9122C131.773 13.97 131.266 13.8543 130.832 13.594C130.832 13.594 129.704 14.2159 129.111 13.9556C128.518 13.6952 127.737 12.9142 128.157 12.3068C128.027 11.8295 127.998 11.3667 128.07 10.9039Z" fill="#263238"/>
<path d="M134.086 6.7096C134.188 6.62282 134.318 6.5505 134.448 6.50711C134.607 6.46372 134.766 6.47819 134.911 6.5505C134.998 6.59389 135.084 6.65174 135.157 6.73852C135.215 6.81084 135.272 6.91208 135.287 7.01332L135.33 7.18687L135.431 7.02778C135.547 6.86869 135.692 6.72406 135.865 6.63728C136.039 6.5505 136.227 6.50711 136.429 6.50711C136.907 6.53604 137.312 6.86869 137.442 7.3315L137.485 7.53399L137.63 7.37489C137.76 7.2158 137.934 7.08564 138.122 6.99886C138.31 6.91208 138.527 6.86869 138.729 6.88315C138.946 6.89761 139.163 6.95547 139.365 7.07117C139.553 7.18688 139.713 7.34597 139.828 7.53399C139.929 7.69308 139.987 7.86663 140.016 8.05465V8.18482L140.146 8.1559C140.754 8.04019 141.376 8.34391 141.636 8.90797C141.737 9.15384 141.766 9.41418 141.723 9.67451C141.679 9.93484 141.549 10.1807 141.376 10.3687L141.246 10.4989L141.419 10.5278C141.795 10.6146 142.128 10.8315 142.345 11.1642C142.504 11.4101 142.591 11.7138 142.591 12.003C142.576 12.2634 142.504 12.5237 142.403 12.7696C142.46 12.7262 142.504 12.6683 142.533 12.596C142.62 12.4225 142.677 12.22 142.706 12.0175C142.735 11.6849 142.663 11.3667 142.489 11.0774C142.374 10.8894 142.229 10.7303 142.056 10.6146C141.882 10.4844 141.679 10.3977 141.477 10.3543L141.52 10.5134C142.128 9.92038 142.128 8.95136 141.535 8.35838C141.159 7.98234 140.624 7.82325 140.103 7.93895L140.248 8.04019C140.146 7.18687 139.365 6.56497 138.512 6.68067C138.353 6.69513 138.179 6.75298 138.035 6.8253C137.818 6.92654 137.615 7.07117 137.471 7.25919L137.659 7.30258C137.5 6.75298 137.008 6.36249 136.429 6.34802C136.198 6.34802 135.981 6.40587 135.793 6.52158C135.591 6.63728 135.431 6.79637 135.316 6.98439L135.446 6.99886C135.417 6.88315 135.359 6.76745 135.272 6.66621C135.186 6.56496 135.084 6.49265 134.969 6.44926C134.795 6.37695 134.607 6.37695 134.434 6.44926C134.332 6.49265 134.231 6.5505 134.159 6.62282C134.101 6.66621 134.086 6.7096 134.086 6.7096Z" fill="#455A64"/>
<path d="M127.621 24.7594C127.751 24.6871 127.881 24.6292 128.026 24.6148C128.171 24.6003 128.315 24.6148 128.46 24.6582C128.605 24.7016 128.72 24.7883 128.836 24.8751C128.937 24.9764 129.024 25.1065 129.082 25.2367C129.357 24.8607 129.834 24.6582 130.297 24.745C130.759 24.8317 131.136 25.1644 131.266 25.6127C131.468 25.121 132.032 24.8607 132.538 25.0487C132.698 25.1065 132.842 25.2078 132.958 25.3379C133.131 25.0631 133.479 24.9185 133.797 24.9908C133.753 24.5569 134.057 24.1809 134.491 24.123C134.693 24.0941 134.91 24.1664 135.069 24.2966C135.431 23.7036 136.212 23.5156 136.805 23.8916C136.848 23.9206 136.906 23.9495 136.95 23.9929C137.065 23.6168 137.456 23.4144 137.832 23.5301C137.919 23.559 138.005 23.6024 138.063 23.6602C138.179 23.7615 138.266 23.8916 138.309 24.0507C138.627 23.6602 139.162 23.5156 139.625 23.7036C139.625 23.5879 139.669 23.4867 139.712 23.3854C139.77 23.2842 139.842 23.1974 139.929 23.1396C140.016 23.0672 140.117 23.0239 140.233 23.0094C140.348 22.9949 140.45 22.9949 140.565 23.0094C140.45 22.6189 141.028 22.4453 141.317 22.1705C141.448 22.0404 141.534 21.8813 141.665 21.7511C141.795 21.6209 142.055 21.6065 142.142 21.7511C142.098 21.592 142.127 21.4329 142.2 21.2883C142.272 21.1437 142.402 21.0424 142.561 20.9846C142.879 20.8689 143.227 21.028 143.371 21.3317C143.429 21.5052 143.472 21.6933 143.472 21.8957C143.559 22.5032 143.892 23.2263 143.472 23.6458C143.4 23.7181 143.299 23.7759 143.256 23.8916C143.198 24.0652 143.371 24.2387 143.386 24.4123C143.4 24.5859 143.198 24.7883 143.111 24.9908C143.039 25.2945 143.039 25.6272 143.111 25.9309C143.125 26.2491 142.952 26.6541 142.634 26.6107C142.865 27.088 142.72 27.6665 142.286 27.9847C142.344 28.1148 142.373 28.2595 142.373 28.4041C142.373 28.6933 142.243 28.9826 142.026 29.1706C141.925 29.2719 141.795 29.3442 141.65 29.402C141.751 29.5033 141.795 29.6334 141.809 29.7636C141.824 29.8938 141.78 30.0384 141.694 30.1396C141.52 30.3421 141.303 30.5012 141.043 30.6025C141.086 30.6314 141.129 30.6892 141.173 30.7326C141.245 30.8339 141.26 30.964 141.231 31.0797C141.216 31.1376 141.187 31.1954 141.158 31.2533C140.999 31.4558 140.782 31.5859 140.536 31.6293C140.435 31.6438 140.334 31.7016 140.262 31.774C140.146 31.9331 140.305 32.1645 140.262 32.3525C140.218 32.6562 139.784 32.743 139.669 33.0178C139.553 33.2926 139.698 33.6108 139.495 33.7988C139.365 33.9145 139.162 33.9 139.003 33.9579C138.714 34.0591 138.584 34.3773 138.381 34.6376C137.977 35.086 137.441 35.3897 136.848 35.4765C136.559 35.5488 136.27 35.6211 135.966 35.6645C135.373 35.7802 134.78 35.8525 134.187 35.9248C133.898 35.9682 133.522 35.9682 133.377 35.7079C133.262 35.8236 133.131 35.9104 132.972 35.9682C132.828 36.0261 132.654 36.0405 132.51 36.0261C132.35 36.0116 132.206 35.9538 132.061 35.867C131.931 35.7802 131.815 35.6645 131.743 35.5199C131.193 35.5922 130.629 35.4909 130.152 35.2162L129.631 34.9847C129.111 34.7533 128.532 34.4641 128.359 33.9145C128.026 33.8422 127.737 33.6252 127.578 33.3215C127.419 33.0178 127.404 32.6562 127.534 32.338C127.303 32.4103 127.071 32.1645 127.028 31.9186C127.014 31.6727 127.042 31.4269 127.115 31.1954C127.303 30.212 126.768 29.1995 126.912 28.2016C127.014 27.5074 127.419 26.8132 127.216 26.1479C127.158 26.0177 127.129 25.8731 127.115 25.7284C127.115 25.5838 127.259 25.4392 127.404 25.4826C127.375 25.3813 127.361 25.2801 127.375 25.1788C127.39 25.0776 127.433 24.9764 127.505 24.8896C127.563 24.8028 127.65 24.7449 127.751 24.7016C127.852 24.6582 127.954 24.6437 128.055 24.6437" fill="#263238"/>
<path d="M135.952 24.8317C135.837 24.8317 135.808 25.5983 135.142 26.1045C134.477 26.6107 133.653 26.5239 133.638 26.6396C133.638 26.683 133.826 26.7842 134.173 26.8132C134.636 26.8421 135.084 26.6975 135.446 26.4082C135.793 26.1479 136.01 25.7574 136.082 25.3235C136.082 25.0197 135.996 24.8317 135.952 24.8317Z" fill="white"/>
<path d="M140.175 30.0963C140.334 29.5611 140.436 29.026 140.465 28.4619C140.45 27.9124 140.378 27.3483 140.233 26.8132C140.334 26.9433 140.392 27.1024 140.421 27.276C140.537 27.6665 140.595 28.057 140.58 28.4619C140.566 28.8669 140.493 29.2574 140.363 29.6479C140.334 29.807 140.262 29.9516 140.175 30.0963Z" fill="#455A64"/>
<path d="M140.913 28.9827C140.97 28.867 141.028 28.7513 141.086 28.6356C141.173 28.3318 141.202 28.0137 141.173 27.6955C141.115 26.9434 140.913 26.3649 140.942 26.3649C141.158 26.7698 141.274 27.2326 141.289 27.6955C141.332 28.0281 141.289 28.3608 141.173 28.6645C141.115 28.7947 141.028 28.8959 140.913 28.9827Z" fill="#455A64"/>
<path d="M141.679 28.3318C141.867 27.8979 141.968 27.4351 142.012 26.9578C142.012 26.4805 141.94 26.0177 141.795 25.5549C141.882 25.6706 141.954 25.8007 141.983 25.9309C142.099 26.2636 142.142 26.6107 142.128 26.9578C142.113 27.3049 142.026 27.652 141.896 27.9702C141.853 28.1148 141.78 28.2305 141.679 28.3318Z" fill="#455A64"/>
<path d="M128.836 33.0612C128.662 33.0178 128.518 32.9166 128.417 32.7719C128.142 32.4537 127.954 32.0632 127.867 31.6438C127.766 31.2244 127.722 30.805 127.766 30.3711C127.766 30.1975 127.809 30.024 127.867 29.8649C127.824 30.4434 127.867 31.0219 127.997 31.6004C128.084 32.0054 128.243 32.3814 128.489 32.6996C128.59 32.8298 128.706 32.9455 128.836 33.0612Z" fill="#455A64"/>
<path d="M129.502 32.8876C129.371 32.8298 129.241 32.743 129.154 32.6418C128.634 32.15 128.359 31.4413 128.402 30.7327C128.402 30.588 128.431 30.4434 128.489 30.3132C128.504 30.4579 128.504 30.588 128.489 30.7327C128.489 31.0653 128.562 31.4124 128.677 31.7161C128.807 32.0199 128.981 32.3091 129.212 32.555C129.386 32.7864 129.516 32.8732 129.502 32.8876Z" fill="#455A64"/>
<path d="M128.33 13.5361C129.097 12.4659 130.196 11.6704 131.454 11.2799C135.258 10.1518 140.638 9.71792 146.293 15.3006L147.118 15.6767C147.219 14.5775 147.175 13.4638 147.002 12.3646C146.814 11.4245 145.093 5.95754 138.975 5.37902C138.975 5.36456 129.617 3.84594 128.33 13.5361Z" fill="#455A64"/>
<g opacity="0.3">
<path opacity="0.3" d="M128.33 13.5361C129.097 12.4659 130.196 11.6704 131.454 11.2799C135.258 10.1518 140.638 9.71792 146.293 15.3006L147.118 15.6767C147.219 14.5775 147.175 13.4638 147.002 12.3646C146.814 11.4245 145.093 5.95754 138.975 5.37902C138.975 5.36456 129.617 3.84594 128.33 13.5361Z" fill="#10253F"/>
</g>
<path d="M146.279 15.2862C143.95 12.7552 140.971 11.28 137.832 10.1085C134.694 8.93697 129.733 8.17043 126.392 7.99688C125.394 7.88117 124.367 7.98241 123.413 8.28614C122.487 8.64771 121.663 9.50103 121.619 10.499C121.561 11.7717 124.063 13.1602 125.206 13.6808C126.349 14.2015 128.692 15.1127 128.692 15.1127C128.692 15.1127 129.328 12.2635 131.584 11.4391C136.27 9.76136 146.452 15.3875 146.279 15.2862Z" fill="#455A64"/>
<path d="M128.055 11.6849C128.359 10.9039 129.169 10.4411 129.993 10.5568C129.805 10.3109 129.805 9.97827 129.993 9.73239C130.181 9.51545 130.456 9.35636 130.745 9.31297C131.801 9.09602 132.843 9.64561 133.276 10.6291C133.812 10.1084 134.593 9.89149 135.33 10.065C136.068 10.1807 136.646 10.7882 136.733 11.5258C136.733 12.0754 136.415 12.5671 135.909 12.7985C135.388 13.1023 134.578 12.8853 134.043 12.5961C133.826 13.189 133.349 13.6229 132.741 13.782C132.134 13.9411 131.497 13.7965 131.02 13.3915C130.384 14.1291 129.285 14.2015 128.561 13.5796C128.026 13.1167 127.824 12.3791 128.041 11.7138L128.055 11.6849Z" fill="#263238"/>
<path d="M124.815 164.501L125.163 173.858C125.163 173.858 115.776 177.358 115.675 179.094L133.84 179.065L133.884 164.472L124.815 164.501Z" fill="#455A64"/>
<path d="M130.789 173.034C130.962 173.092 131.121 173.208 131.208 173.367C131.309 173.526 131.338 173.714 131.309 173.887C131.208 174.263 130.847 174.48 130.47 174.408C130.08 174.292 129.849 173.902 129.921 173.511C130.066 173.15 130.47 172.962 130.847 173.092" fill="#E0E0E0"/>
<path d="M133.84 179.051L133.797 177.575L116.398 178.154C116.398 178.154 115.588 178.501 115.689 179.08L133.84 179.051Z" fill="#263238"/>
<path d="M124.873 173.757C124.873 173.844 125.322 173.887 125.756 174.177C126.189 174.466 126.421 174.827 126.508 174.799C126.594 174.77 126.464 174.249 125.929 173.916C125.394 173.584 124.859 173.685 124.873 173.757Z" fill="white"/>
<path d="M122.978 174.553C122.964 174.639 123.34 174.784 123.644 175.16C123.947 175.536 124.034 175.927 124.121 175.927C124.208 175.927 124.266 175.42 123.875 174.958C123.485 174.495 122.978 174.466 122.978 174.553Z" fill="white"/>
<path d="M121.894 176.838C121.981 176.838 122.097 176.418 121.865 175.927C121.634 175.435 121.214 175.247 121.185 175.319C121.157 175.392 121.402 175.652 121.576 176.042C121.75 176.433 121.807 176.838 121.894 176.838Z" fill="white"/>
<path d="M125.032 171.617C125.076 171.703 125.481 171.573 125.973 171.617C126.464 171.66 126.869 171.805 126.913 171.732C126.956 171.66 126.58 171.342 125.987 171.313C125.394 171.284 124.989 171.544 125.032 171.617Z" fill="white"/>
<path d="M146.597 165.079L147.103 176.389L144.905 185.458C144.789 185.935 144.992 186.427 145.397 186.702C145.527 186.788 145.671 186.846 145.83 186.875C146.207 186.933 146.583 186.817 146.843 186.557C148.535 184.865 154.566 178.53 154.595 177.908C154.638 176.939 154.913 165.803 154.913 165.803L146.597 165.079Z" fill="#455A64"/>
<path d="M145.859 186.875L154.653 176.997V177.474C154.653 177.894 154.523 178.284 154.262 178.617C153.568 179.456 151.572 181.813 146.886 186.542C146.756 186.673 146.583 186.774 146.409 186.832C146.235 186.904 146.033 186.904 145.859 186.875Z" fill="#263238"/>
<g opacity="0.6">
<path opacity="0.6" d="M152.252 173.396C151.977 173.613 151.905 174.003 152.093 174.292C152.296 174.582 152.7 174.668 153.004 174.466C153.149 174.35 153.25 174.191 153.279 174.018C153.308 173.844 153.279 173.656 153.178 173.497C152.932 173.208 152.498 173.179 152.209 173.41" fill="white"/>
</g>
<path d="M148.347 181.871C148.072 181.524 147.725 181.249 147.334 181.032C146.915 180.873 146.466 180.801 146.018 180.815C146.018 180.786 146.148 180.699 146.423 180.656C147.132 180.569 147.826 180.902 148.216 181.495C148.347 181.697 148.376 181.856 148.347 181.871Z" fill="white"/>
<path d="M147.566 183.404C147.233 183.23 146.901 183.071 146.554 182.941C146.192 182.883 145.816 182.84 145.44 182.825C145.787 182.594 146.221 182.551 146.611 182.71C147.291 182.883 147.624 183.375 147.566 183.404Z" fill="white"/>
<path d="M149.807 179.889C149.33 179.571 148.824 179.282 148.289 179.051C147.392 178.718 146.597 178.776 146.597 178.704C147.797 178.443 149.055 178.906 149.793 179.889H149.807Z" fill="white"/>
<path d="M149.938 176.447C149.909 176.52 149.272 176.274 148.463 176.259C147.653 176.245 147.002 176.462 146.987 176.389C147.898 175.854 149.041 175.869 149.938 176.447Z" fill="white"/>
<path d="M149.88 173.106C149.388 172.962 148.868 172.875 148.347 172.875C147.826 172.947 147.335 173.092 146.857 173.294C146.857 173.265 146.959 173.121 147.219 172.976C147.913 172.586 148.752 172.528 149.49 172.846C149.75 172.962 149.895 173.092 149.88 173.106Z" fill="white"/>
<path d="M148.347 172.239C148.304 172.094 148.304 171.949 148.318 171.819C148.347 171.429 148.463 171.038 148.636 170.691C148.752 170.416 148.94 170.199 149.186 170.055C149.273 170.011 149.374 169.997 149.461 170.026C149.548 170.04 149.634 170.084 149.707 170.156C149.822 170.301 149.895 170.474 149.895 170.662C149.851 171.443 149.273 172.094 148.492 172.21C147.725 172.296 146.988 171.92 146.612 171.255C146.51 171.082 146.496 170.894 146.568 170.705C146.612 170.619 146.684 170.546 146.756 170.503C146.843 170.46 146.944 170.445 147.031 170.445C147.306 170.503 147.566 170.633 147.783 170.821C148.101 171.053 148.362 171.342 148.579 171.66C148.665 171.776 148.723 171.906 148.767 172.051C148.463 171.631 148.101 171.255 147.696 170.937C147.508 170.778 147.277 170.677 147.031 170.633C146.973 170.619 146.93 170.633 146.872 170.662C146.828 170.691 146.785 170.72 146.771 170.778C146.756 170.836 146.742 170.908 146.756 170.966C146.771 171.024 146.785 171.082 146.814 171.139C147.161 171.703 147.798 172.022 148.463 171.949C149.114 171.848 149.62 171.313 149.663 170.648C149.663 170.517 149.62 170.387 149.548 170.286C149.475 170.214 149.36 170.185 149.258 170.228C149.041 170.358 148.882 170.532 148.781 170.763C148.564 171.212 148.405 171.718 148.347 172.239Z" fill="white"/>
<path d="M119.233 86.2561C118.206 90.0888 117.743 94.0661 117.873 98.029C117.96 100.56 123.485 170.373 123.485 170.373L134.925 170.865L134.462 105.448L135.388 105.694C135.388 105.694 140.45 133.81 140.768 138.337C141.057 142.401 145.078 172.079 145.078 172.079L155.506 171.79L153.857 133.55L151.557 96.0186L150.559 85.0701L119.233 86.2561Z" fill="#263238"/>
<path d="M136.545 98.8533C136.386 98.9546 136.212 99.0413 136.039 99.1137C135.576 99.3161 135.099 99.4608 134.607 99.5331C134.26 99.5765 133.898 99.5765 133.551 99.4897C133.146 99.4029 132.77 99.2004 132.481 98.9112C132.177 98.5785 131.96 98.1591 131.859 97.7108C131.743 97.2624 131.685 96.7996 131.613 96.3223C131.324 94.4276 131.15 92.6921 131.064 91.4338C131.02 90.8119 130.991 90.2912 130.977 89.9441C130.948 89.7561 130.948 89.5826 130.977 89.3945C131.02 89.5681 131.049 89.7561 131.064 89.9297C131.107 90.3491 131.165 90.8264 131.223 91.4049C131.353 92.6776 131.555 94.3698 131.845 96.2789C131.989 97.219 132.076 98.1736 132.64 98.7521C133.161 99.2294 133.884 99.4463 134.593 99.3451C135.084 99.2872 135.562 99.1715 136.01 98.998C136.169 98.9256 136.357 98.8823 136.545 98.8533Z" fill="#455A64"/>
<path d="M133.479 89.8429C133.552 89.7995 133.638 89.785 133.711 89.785C133.942 89.785 134.173 89.8718 134.347 90.0164C134.492 90.1177 134.593 90.2623 134.665 90.4214C134.926 90.971 134.694 91.6074 134.145 91.8677C133.595 92.128 132.959 91.8966 132.698 91.347C132.583 91.1012 132.568 90.8264 132.64 90.566C132.698 90.3346 132.828 90.1466 133.016 90.002C133.147 89.9152 133.233 89.9007 133.233 89.9152C133.016 90.0888 132.872 90.3346 132.814 90.6094C132.785 90.7541 132.785 90.8987 132.814 91.0433C132.843 91.1879 132.915 91.3181 133.002 91.4338C133.118 91.5495 133.277 91.6363 133.436 91.6797C133.942 91.7954 134.434 91.4772 134.549 90.9855C134.549 90.971 134.564 90.9421 134.564 90.9276C134.564 90.783 134.535 90.6384 134.477 90.5082C134.419 90.378 134.333 90.2623 134.231 90.1611C134.029 89.9731 133.754 89.8718 133.479 89.8429Z" fill="#455A64"/>
<path d="M151.413 95.3244C151.283 95.3533 151.153 95.3678 151.023 95.3678C150.661 95.3822 150.299 95.3678 149.952 95.3388C147.566 95.093 145.353 94.0372 143.661 92.345C143.401 92.0991 143.169 91.8243 142.952 91.5351C142.866 91.4338 142.793 91.3181 142.735 91.2024C142.764 91.1735 143.126 91.6219 143.777 92.2148C145.498 93.8058 147.667 94.8182 149.981 95.1508C150.849 95.3099 151.413 95.3099 151.413 95.3244Z" fill="#455A64"/>
<path d="M123.789 89.6404C123.629 90.0454 123.413 90.4359 123.152 90.783C122.545 91.6508 121.836 92.4607 121.041 93.1549C120.245 93.8636 119.377 94.4711 118.437 94.9628C118.061 95.1798 117.656 95.3533 117.237 95.469C117.237 95.4401 117.656 95.2231 118.35 94.8037C119.247 94.2686 120.1 93.6611 120.881 92.9669C121.662 92.2727 122.357 91.5062 122.993 90.6673C123.485 90.0599 123.76 89.626 123.789 89.6404Z" fill="#455A64"/>
<path d="M127.26 40.5096H122.198C121.012 40.9291 113.303 52.7164 113.303 52.7164L121.359 61.6545L125.25 53.4106L127.26 40.5096Z" fill="#FE5621"/>
<path d="M122.198 40.5096L132.655 37.3133C132.655 37.3133 132.611 39.8443 136.256 39.9166C140.45 40.0034 143.979 36.3154 143.979 36.3154C143.979 36.3154 152.715 39.0344 154.537 40.5096C156.36 41.9849 150.401 72.8778 150.401 72.8778L149.866 82.0907C150.401 83.0308 150.719 84.0866 150.762 85.1714C150.762 86.7623 150.82 87.8325 150.82 87.8325C139.626 91.2169 128.518 94.1384 118.293 90.8698C118.293 90.8698 118.553 85.4461 119.132 83.9565C119.71 82.4668 119.609 82.3366 119.609 82.3366L120.593 65.3426L120.766 52.5573L122.198 40.5096Z" fill="#FE5621"/>
<path d="M158.413 54.2495C158.413 54.2495 159.556 72.2993 159.556 74.9461C159.556 76.913 155.275 97.5083 155.275 97.5083L148.911 95.3678L151.153 75.351L148.911 54.235L158.413 54.2495Z" fill="#F0BCB3"/>
<path d="M154.624 40.4952C156.461 41.9126 157.719 43.9374 158.153 46.2081C158.919 50.0408 160.612 59.6153 160.612 59.6153L146.958 60.1504C146.958 60.1504 147.783 53.4974 147.783 53.078C147.783 52.6586 150.097 43.5035 150.242 43.301C150.386 43.0985 154.624 40.4952 154.624 40.4952Z" fill="#FE5621"/>
<path d="M120.766 45.2245C120.824 45.2245 120.853 49.1585 120.838 54.0036C120.824 58.8487 120.752 62.7826 120.694 62.7826C120.636 62.7826 120.607 58.8487 120.621 54.0036C120.636 49.1585 120.708 45.2245 120.766 45.2245Z" fill="#263238"/>
<path d="M99.1729 51.0821C99.2163 51.111 97.1481 54.452 94.5592 58.545C91.9704 62.638 89.8154 65.9211 89.7575 65.8922C89.6997 65.8633 91.7679 62.5223 94.3712 58.4293C96.9746 54.3363 99.1295 51.0387 99.1729 51.0821Z" fill="#263238"/>
<path d="M160.611 59.6297C160.525 59.6442 160.438 59.6586 160.351 59.6586L159.628 59.702L156.923 59.8611L147.898 60.2805H147.797V60.1793C147.768 59.9045 147.754 59.6008 147.725 59.2971C147.508 56.0863 147.58 52.861 147.927 49.6647C148.058 48.4353 148.217 47.4519 148.347 46.7721C148.405 46.425 148.462 46.1647 148.491 45.9911C148.506 45.9043 148.52 45.8031 148.564 45.7163C148.564 45.8031 148.564 45.9043 148.535 45.9911C148.506 46.1936 148.477 46.4539 148.434 46.7721C148.347 47.4519 148.217 48.4643 148.101 49.6647C147.797 52.861 147.754 56.0718 147.971 59.2681C148 59.5718 148.014 59.8756 148.043 60.1359L147.927 60.0347L156.952 59.6731L159.671 59.6008H160.409C160.467 59.6152 160.539 59.6152 160.611 59.6297Z" fill="#263238"/>
<path d="M152.584 40.7121C151.919 41.1749 151.283 41.6667 150.675 42.2163C150.126 42.8092 149.605 43.4456 149.113 44.0964C149.793 42.5489 151.037 41.334 152.584 40.7121Z" fill="#263238"/>
<path d="M146.438 85.0701C146.366 85.1135 146.293 85.1569 146.206 85.1858L145.527 85.4606C144.934 85.692 144.08 86.0102 142.996 86.3573C141.911 86.7045 140.624 87.0949 139.163 87.4565C137.702 87.8181 136.097 88.1507 134.376 88.4255C132.655 88.7003 131.02 88.845 129.516 88.9751C128.012 89.1053 126.667 89.1198 125.524 89.1053C124.382 89.0908 123.471 89.0619 122.834 89.0185L122.111 88.9607C122.024 88.9607 121.938 88.9462 121.865 88.9318C121.952 88.9173 122.039 88.9173 122.126 88.9318H122.849C123.485 88.9318 124.396 88.9607 125.524 88.9318C126.652 88.9028 128.012 88.8594 129.502 88.7582C130.991 88.657 132.626 88.4545 134.332 88.1941C136.039 87.9338 137.644 87.5867 139.105 87.254C140.566 86.9214 141.853 86.5454 142.938 86.2127C144.023 85.8801 144.89 85.5908 145.469 85.3738L146.163 85.1424C146.264 85.0846 146.351 85.0701 146.438 85.0701Z" fill="#263238"/>
<path d="M147.595 56.2309L147.537 56.2743C147.479 56.3033 147.407 56.3466 147.335 56.3611C147.06 56.4768 146.785 56.5347 146.496 56.5491C145.455 56.578 144.413 56.3177 143.516 55.797C142.923 55.5078 142.316 55.1462 141.607 54.8569C141.246 54.7123 140.87 54.5966 140.494 54.5098C140.291 54.4809 140.089 54.452 139.886 54.452H139.583L139.264 54.4809C138.382 54.5822 137.514 54.857 136.733 55.2764C135.894 55.6958 135.085 56.2165 134.202 56.7082C133.363 57.2144 132.467 57.6194 131.527 57.8942C130.644 58.14 129.704 58.1545 128.808 57.9376C128.012 57.7206 127.246 57.4314 126.508 57.0553C125.814 56.7227 125.177 56.4045 124.57 56.1875C123.63 55.7826 122.589 55.638 121.576 55.7681C121.215 55.8404 120.853 55.9561 120.506 56.1152C120.578 56.0574 120.665 55.9995 120.752 55.9561C121.012 55.826 121.272 55.7392 121.562 55.6813C122.603 55.5078 123.673 55.6235 124.642 56.0285C125.264 56.2454 125.915 56.5636 126.609 56.8673C127.332 57.2289 128.099 57.5037 128.88 57.7062C129.748 57.9086 130.644 57.8942 131.498 57.6628C132.409 57.388 133.291 56.9975 134.116 56.4913C134.954 55.9995 135.808 55.4789 136.647 55.0594C137.456 54.6255 138.339 54.3507 139.25 54.2495L139.583 54.2206C139.684 54.2206 139.799 54.2206 139.901 54.2206C140.118 54.2206 140.32 54.2495 140.537 54.2929C140.928 54.3797 141.318 54.4954 141.68 54.6545C142.388 54.9582 143.01 55.3198 143.589 55.6235C144.471 56.1442 145.469 56.419 146.496 56.4334C146.872 56.4334 147.233 56.3611 147.595 56.2309Z" fill="white"/>
<path d="M148.159 58.4727C148.101 58.545 148.029 58.6173 147.942 58.6751C147.71 58.8487 147.45 58.9789 147.175 59.0657C146.134 59.2971 145.035 59.1524 144.08 58.6751C143.473 58.4004 142.851 58.0243 142.157 57.6627C141.448 57.2578 140.667 56.9974 139.857 56.8962C138.96 56.8528 138.064 57.0698 137.283 57.5326C136.429 58.0243 135.619 58.5739 134.838 59.1524C134.043 59.7454 133.146 60.2082 132.206 60.512C131.295 60.7434 130.34 60.7434 129.429 60.512C127.694 60.0925 126.305 59.2971 125.061 58.9066C124.092 58.5305 123.051 58.3859 122.01 58.4582C121.634 58.5016 121.258 58.5884 120.896 58.7185C120.983 58.6607 121.07 58.6173 121.171 58.5884C121.446 58.4871 121.72 58.4148 122.01 58.3714C123.065 58.2557 124.121 58.4003 125.119 58.7619C126.392 59.1524 127.795 59.9334 129.487 60.3239C130.355 60.5553 131.28 60.5553 132.148 60.3239C133.074 60.0202 133.942 59.5719 134.723 58.9789C135.518 58.3859 136.342 57.8363 137.196 57.3446C138.006 56.8673 138.946 56.6503 139.886 56.6937C140.725 56.795 141.535 57.0698 142.258 57.5036C142.952 57.8652 143.56 58.2557 144.152 58.5305C145.078 59.0223 146.134 59.1813 147.161 58.9789C147.522 58.8776 147.869 58.7041 148.159 58.4727Z" fill="white"/>
<path d="M162.969 81.4977L160.106 104.422L163.794 180.598H160.988L157.141 103.93L159.918 81.4977H162.969Z" fill="#37474F"/>
<path d="M165.399 78.0556C162.448 78.1424 152.324 77.318 150.531 75.8717L149.938 83.3635C149.938 83.3635 156.287 85.9958 162.637 85.4317C163.837 85.3305 164.951 84.1156 165.327 82.5247L166.05 79.473C166.223 78.7209 165.92 78.0411 165.399 78.0556Z" fill="#455A64"/>
<path d="M161.132 102.758L146.423 103.221C146.047 103.236 145.744 103.539 145.744 103.915V105.593C145.744 105.984 146.062 106.287 146.452 106.287C146.467 106.287 146.481 106.287 146.481 106.287L155.477 105.796L155.665 107.227C155.81 108.37 156.808 109.223 157.965 109.165L161.465 109.006L161.132 102.758Z" fill="#455A64"/>
<path d="M163.924 177.937L160.626 178.183L159.758 184.127L165.254 183.881L163.924 177.937Z" fill="#455A64"/>
<path d="M155.506 95.281L155.159 98.593L154.827 105.477C154.827 105.477 154.827 105.521 154.812 105.608C154.798 105.752 154.769 106.013 154.74 106.331V106.345C154.682 106.75 154.595 107.155 154.494 107.56C154.494 107.575 154.479 107.618 154.451 107.676C154.378 107.82 153.944 107.907 153.322 107.965C153.337 106.967 153.395 105.882 153.409 105.636C153.409 105.622 153.409 105.608 153.409 105.608V105.636L153.163 107.98C152.628 108.023 151.963 108.023 151.283 108.023L151.312 105.868L150.936 108.023C150.314 108.008 149.678 107.994 149.114 107.965C149.2 107.054 149.273 106.273 149.316 105.955C149.316 105.882 149.331 105.839 149.331 105.81L148.984 107.763C148.984 107.777 148.969 107.82 148.94 107.878C148.926 107.907 148.911 107.936 148.897 107.951C148.246 107.922 147.595 107.864 146.959 107.763C146.915 107.748 146.872 107.734 146.843 107.719C146.988 107.141 147.103 106.721 147.103 106.721L147.161 106.258C147.291 105.217 147.595 102.686 147.581 102.238C147.552 101.659 147.089 101.269 146.669 101.934C145.946 102.889 145.035 103.684 143.979 104.263C143.632 104.508 143.155 104.451 142.909 104.103C142.822 104.002 142.779 103.872 142.75 103.742C143.777 102.946 145.136 100.242 145.7 99.4897C146.264 98.7377 148.796 96.8141 148.796 96.8141L149.085 94.876L155.506 95.281Z" fill="#F0BCB3"/>
<path d="M149.302 105.796C149.302 105.825 149.287 105.868 149.287 105.94C149.258 106.273 149.172 107.039 149.085 107.951L148.854 107.936C148.868 107.907 148.882 107.893 148.897 107.864C148.926 107.806 148.94 107.763 148.94 107.748L149.302 105.796Z" fill="#263238"/>
<path d="M151.283 105.853L151.254 108.008H150.921L151.283 105.853Z" fill="#263238"/>
<path d="M153.38 105.636C153.366 105.882 153.308 106.967 153.293 107.965L153.134 107.979L153.38 105.636Z" fill="#263238"/>
<path d="M153.38 105.636L153.134 107.979C152.599 108.023 151.934 108.023 151.254 108.023L151.283 105.868L150.907 108.023C150.285 108.008 149.649 107.994 149.084 107.965C149.171 107.054 149.244 106.273 149.287 105.955C149.287 105.882 149.301 105.839 149.301 105.81L148.954 107.763C148.954 107.777 148.94 107.82 148.911 107.878C148.896 107.907 148.882 107.936 148.868 107.951C148.217 107.922 147.566 107.864 146.929 107.763C146.886 107.748 146.843 107.734 146.814 107.719C146.062 107.415 145.425 106.172 146.076 106.215C146.423 106.229 146.669 106.345 147.031 106.287L147.132 106.273C147.667 106.172 149.316 105.781 149.316 105.781L153.38 105.636Z" fill="#F0BCB3"/>
<path d="M154.826 105.593C154.826 105.622 154.812 105.665 154.812 105.752C154.797 105.882 154.768 106.085 154.725 106.316V106.331C154.667 106.736 154.58 107.141 154.479 107.546C154.479 107.56 154.465 107.603 154.436 107.661C154.363 107.806 153.93 107.893 153.308 107.951C153.322 106.953 153.38 105.868 153.394 105.622C154.132 105.593 154.696 105.579 154.812 105.579L154.826 105.593Z" fill="#F0BCB3"/>
</svg>
