<svg width="202" height="178" viewBox="0 0 202 178" fill="none" xmlns="http://www.w3.org/2000/svg">
<path d="M0 162.214L25.2317 162.098L50.4633 162.054L100.927 161.967L151.39 162.054L176.622 162.098L201.853 162.214L176.622 162.33L151.39 162.374L100.927 162.461L50.4633 162.374L25.2317 162.33L0 162.214Z" fill="#263238"/>
<path d="M166.041 11.4926H35.813V173.972H166.041V11.4926Z" fill="#455A64"/>
<path d="M158.643 29.5588H43.2109V144.991H158.643V29.5588Z" fill="white"/>
<path d="M47.9483 20.0677C47.9483 20.707 47.4397 21.2156 46.8003 21.2302C46.1609 21.2302 45.6523 20.7216 45.6523 20.0822C45.6523 19.4428 46.1609 18.9342 46.8003 18.9197C46.9456 18.9197 47.091 18.9487 47.2363 19.0069C47.6577 19.1812 47.9338 19.6027 47.9483 20.0677Z" fill="#37474F"/>
<path d="M48.7765 23.2505V23.7301C47.5559 24.4857 46.0156 24.4857 44.7949 23.7301V23.2505C44.7949 22.1461 45.6813 21.2597 46.7857 21.2597C47.8901 21.2597 48.7765 22.1461 48.7765 23.2505Z" fill="#37474F"/>
<path d="M48.7772 23.7161C47.004 24.8207 44.664 24.2684 43.5594 22.4952C42.4548 20.722 43.0071 18.382 44.7803 17.2774C46.5534 16.1728 48.8935 16.7251 49.9981 18.4983C50.6376 19.5302 50.7393 20.8092 50.2888 21.9284C49.9836 22.6696 49.4603 23.2946 48.7772 23.7161Z" fill="white"/>
<path d="M156.302 20.0679C156.404 20.0679 156.491 20.1115 156.549 20.1697C156.622 20.2423 156.651 20.3295 156.651 20.4167C156.636 20.6056 156.477 20.7654 156.273 20.7509C156.099 20.7364 155.953 20.6056 155.939 20.4167C155.939 20.3295 155.968 20.2278 156.041 20.1697C156.07 20.1406 156.113 20.1115 156.157 20.097C156.215 20.0825 156.259 20.0679 156.302 20.0679Z" fill="#C7C7C7"/>
<path d="M157.393 20.0679C157.494 20.0679 157.581 20.1115 157.64 20.1697C157.712 20.2423 157.741 20.3295 157.741 20.4167C157.741 20.4603 157.727 20.5039 157.712 20.5475C157.64 20.7218 157.422 20.809 157.247 20.7364C157.204 20.7218 157.16 20.6928 157.131 20.6637C157.073 20.5911 157.029 20.5039 157.029 20.4167C157.029 20.3295 157.058 20.2278 157.131 20.1697C157.16 20.1406 157.204 20.1115 157.247 20.097C157.291 20.0825 157.349 20.0679 157.393 20.0679Z" fill="#C7C7C7"/>
<path d="M158.483 20.0679C158.584 20.0679 158.672 20.1115 158.73 20.1697C158.875 20.3004 158.89 20.5184 158.759 20.6637C158.628 20.809 158.41 20.8236 158.265 20.6928C158.25 20.6783 158.25 20.6782 158.236 20.6637C158.192 20.6201 158.148 20.5475 158.134 20.4893C158.105 20.344 158.163 20.2132 158.279 20.1261C158.337 20.097 158.41 20.0679 158.483 20.0679Z" fill="#C7C7C7"/>
<path d="M91.3924 19.5737H54.9692V21.4196H91.3924V19.5737Z" fill="#37474F"/>
<path d="M50.812 153.639C50.2742 154.54 49.6056 155.339 48.8063 155.993C48.3848 156.371 47.9342 156.72 47.4691 157.054H47.1203C47.0185 156.982 44.7221 155.441 43.7628 153.624C43.0797 152.36 42.978 150.964 43.5303 150.049C43.85 149.482 44.4605 149.133 45.1145 149.148C46.0738 149.191 46.9313 149.787 47.2947 150.688C47.658 149.787 48.5156 149.191 49.4748 149.148C50.1289 149.133 50.7393 149.482 51.0591 150.049C51.5968 150.979 51.5096 152.36 50.812 153.639Z" fill="#FE5621"/>
<path d="M60.3032 157.112C58.094 157.112 56.3208 155.31 56.3208 153.115C56.3208 150.906 58.1231 149.133 60.3178 149.133C62.527 149.133 64.3002 150.935 64.3002 153.13C64.3002 153.508 64.242 153.9 64.1258 154.264L64.7362 156.72L64.3583 157.098L62.2654 156.618C61.6695 156.953 60.9863 157.127 60.3032 157.112ZM60.3032 149.787C58.4428 149.787 56.9458 151.284 56.9458 153.145C56.9458 155.005 58.4428 156.502 60.3032 156.502C60.9137 156.502 61.5096 156.342 62.0328 156.022L62.2654 155.993L63.9804 156.386L63.5008 154.351V154.176C63.6025 153.842 63.6607 153.508 63.6607 153.159C63.6607 152.723 63.5735 152.272 63.399 151.866C63.0502 151.037 62.3962 150.383 61.5822 150.049C61.1753 149.874 60.7393 149.787 60.3032 149.787Z" fill="#C7C7C7"/>
<path d="M153.206 157.054L152.698 156.793V150.02L153.018 149.7H158.512L158.831 150.02V156.793L158.323 157.054L155.765 154.729L153.206 157.054ZM153.352 150.339V156.168L155.59 154.075H155.968L158.221 156.168V150.339H153.352Z" fill="#C7C7C7"/>
<path d="M74.4013 157.519L73.8345 157.403L72.6863 153.13L70.041 150.252L70.2736 149.714H79.6046L79.8517 150.223L74.4013 157.519ZM71.0003 150.325L73.2095 152.723L73.2822 152.854L74.2851 156.575L78.9796 150.31L71.0003 150.325Z" fill="#C7C7C7"/>
<path d="M79.7792 149.613L72.5557 152.81L72.8173 153.392L80.0409 150.194L79.7792 149.613Z" fill="#C7C7C7"/>
<path d="M34.0687 173.987C34.0687 175.731 26.9759 177.141 18.2262 177.141C9.47656 177.141 2.38379 175.731 2.38379 173.987C2.38379 172.243 9.47656 170.833 18.2262 170.833C26.9759 170.833 34.0687 172.243 34.0687 173.987Z" fill="#EBEBEB"/>
<path d="M124.778 40.4887C124.4 44.1949 121.42 47.4216 121.42 47.4216C121.42 47.4216 117.045 46.9419 114.327 44.413C112.06 42.3055 111.828 39.1806 113.63 37.7998C116.217 35.8231 118.862 40.6195 118.862 40.6195C118.862 40.6195 117.699 35.2563 120.955 35.0528C123.208 34.8929 125.083 37.4074 124.778 40.4887Z" fill="#FE5621"/>
<path d="M116.871 16.5652C116.696 17.5971 116.231 18.5709 115.519 19.3558C114.472 19.2249 113.499 18.8035 112.67 18.1494C111.755 17.3064 111.667 16.0565 112.394 15.4896C113.426 14.7048 114.487 16.6233 114.487 16.6233C114.487 16.6233 114.007 14.4722 115.33 14.385C116.26 14.3269 116.987 15.3152 116.871 16.5652Z" fill="#FE5621"/>
<path d="M130.185 28.0327C128.542 30.2129 125.432 31.114 125.432 31.114C125.432 31.114 122.859 29.1518 122.118 26.5211C121.493 24.3264 122.525 22.2771 124.182 22.0881C126.58 21.8265 126.406 25.8526 126.406 25.8526C126.406 25.8526 127.714 22.0155 129.85 23.1346C131.333 23.9049 131.565 26.2159 130.185 28.0327Z" fill="#FE5621"/>
<path d="M54.9402 29.5298H8.06689V55.9969H54.9402V29.5298Z" fill="#FE5621"/>
<path d="M16.0023 55.9969L8.08105 64.1361V55.9969H16.0023Z" fill="#FE5621"/>
<path d="M42.6727 34.8494H14.8394V35.6633H42.6727V34.8494Z" fill="white"/>
<path d="M33.9084 37.3492H14.8394V38.1632H33.9084V37.3492Z" fill="white"/>
<path d="M48.1667 39.8492H14.8394V40.6777H48.1667V39.8492Z" fill="white"/>
<path d="M26.307 42.3491H14.8394V43.163H26.307V42.3491Z" fill="white"/>
<path d="M40.9867 44.8635H14.8394V45.6775H40.9867V44.8635Z" fill="white"/>
<path d="M42.6727 47.3634H14.8394V48.1773H42.6727V47.3634Z" fill="white"/>
<path d="M35.6962 49.8634H14.8394V50.6773H35.6962V49.8634Z" fill="white"/>
<path d="M17.3252 83.6994H64.1985V64.3397H17.3252V83.6994Z" fill="#DBDBDB"/>
<path d="M49.78 68.4383H24.5483V69.2813H49.78V68.4383Z" fill="white"/>
<path d="M56.6693 71.0254H24.5483V71.8684H56.6693V71.0254Z" fill="white"/>
<path d="M47.8905 73.598H24.5483V74.441H47.8905V73.598Z" fill="white"/>
<path d="M53.9078 76.1706H24.5483V77.0136H53.9078V76.1706Z" fill="white"/>
<path d="M43.8064 78.7577H24.5483V79.6007H43.8064V78.7577Z" fill="white"/>
<path d="M56.2627 83.6993L64.1839 91.8386V83.6993H56.2627Z" fill="#DBDBDB"/>
<path d="M163.279 0.446533H126.841V15.853H163.279V0.446533Z" fill="#FE5621"/>
<path d="M140.823 15.8384H149.282L145.053 21.6522L140.823 15.8384Z" fill="#FE5621"/>
<path d="M140.678 8.67293C140.14 9.57406 139.472 10.3735 138.672 11.042C138.251 11.4199 137.8 11.7688 137.335 12.103H136.986C136.885 12.0304 134.588 10.4897 133.629 8.68747C132.946 7.42298 132.844 6.02768 133.396 5.11201C133.716 4.54517 134.327 4.19635 134.981 4.21089C135.94 4.25449 136.798 4.8504 137.161 5.75153C137.524 4.86493 138.382 4.25449 139.341 4.21089C139.661 4.21089 139.981 4.28356 140.257 4.44344C140.533 4.60332 140.765 4.83586 140.925 5.11201C141.449 6.01314 141.361 7.40844 140.678 8.67293Z" fill="white"/>
<path d="M156.186 5.38819L151.84 11.1874L150.91 7.72822L150.372 7.96077L150.111 7.3794L150.619 7.16138L148.556 4.90855H155.677L157.116 4.26904H147.843L147.611 4.80682L150.256 7.68462L151.404 11.9577L151.971 12.0595L157.392 4.83588L156.186 5.38819Z" fill="white"/>
<path d="M156.186 5.38818L151.84 11.1874L150.91 7.72821L156.186 5.38818Z" fill="white"/>
<path d="M155.678 4.92316L150.62 7.17598L148.556 4.92316H155.678Z" fill="white"/>
<path d="M32.0339 133.232C26.4672 140.776 20.6535 149.54 19.2437 158.987C19.2437 159.133 19.4617 159.176 19.4907 159.031C20.1303 156.458 20.9587 153.915 21.9616 151.459C25.6242 150.456 29.2142 149.627 31.1473 145.994C33.1094 142.258 32.8623 137.36 32.4845 133.32C32.4409 133.102 32.1502 133.087 32.0339 133.232Z" fill="#FE5621"/>
<path d="M22.0048 151.4C24.5047 145.79 27.7168 140.151 31.801 135.529C31.8301 135.5 31.8737 135.529 31.8446 135.573C29.1703 138.857 27.1355 142.447 25.1588 146.081C27.0046 144.206 29.0249 142.534 30.769 140.543C30.7981 140.5 30.8563 140.543 30.8272 140.601C29.0976 142.68 27.1936 144.947 24.9408 146.488C24.3303 147.607 23.7199 148.726 23.0949 149.845C23.2402 149.758 23.4001 149.685 23.5745 149.598C23.6036 149.598 23.6327 149.627 23.6036 149.642C23.4292 149.729 23.2693 149.816 23.0804 149.903C22.7897 150.427 22.499 150.964 22.1938 151.502C22.1211 151.618 21.9467 151.517 22.0048 151.4Z" fill="#263238"/>
<path d="M23.8654 149.438C25.3624 148.595 26.7868 147.651 28.1385 146.59C28.1821 146.56 28.2257 146.59 28.1966 146.648C26.8885 147.781 25.4642 148.755 23.9235 149.555C23.909 149.555 23.8945 149.555 23.8799 149.555C23.8654 149.555 23.8509 149.54 23.8509 149.525C23.8363 149.482 23.8363 149.453 23.8654 149.438Z" fill="#263238"/>
<path d="M18.6038 157.578C18.6038 157.694 18.8073 157.694 18.8073 157.578C18.8363 154.467 18.8073 151.342 18.8654 148.203C19.6648 146.59 21.3653 145.703 22.5717 144.409C23.4292 143.479 24.1704 142.447 24.7809 141.343C26.2198 138.668 27.0918 135.732 27.3535 132.709C27.6878 129.381 26.3942 118.378 25.0134 118.771C24.2867 118.96 21.9322 124.41 21.3072 126.212C20.2898 129.177 19.5485 132.23 19.0834 135.325C17.9497 142.68 18.0369 150.209 18.6038 157.578Z" fill="#FE5621"/>
<path d="M18.575 144.148C18.7494 140.194 19.636 136.227 20.4644 132.404C21.3656 128.276 22.412 124.41 24.5341 120.733C24.5777 120.66 24.6794 120.733 24.6358 120.791C23.226 123.654 22.1214 126.648 21.3656 129.744C21.5109 129.526 21.6708 129.308 21.8452 129.105C21.9033 129.018 22.0487 129.105 21.9905 129.177C21.8016 129.512 21.5836 129.817 21.3365 130.108H21.3074C20.5807 133.044 20.0575 136.067 19.6069 139.061L19.7086 138.944H19.7232H19.7377C19.7377 138.944 19.7377 138.959 19.7522 138.959V138.974C19.6941 139.075 19.636 139.163 19.5778 139.264C19.3598 140.79 19.1418 142.302 18.9383 143.813C21.6562 141.488 23.9672 138.756 25.2753 135.398C23.9963 138.886 21.976 141.997 18.8657 144.119L18.6912 145.34C18.6912 145.427 18.5459 145.398 18.5459 145.34C18.5459 144.976 18.5459 144.613 18.575 144.264C18.5459 144.25 18.5314 144.191 18.575 144.148Z" fill="#263238"/>
<path d="M19.8539 138.436C21.9323 135.34 23.8654 132.331 25.377 128.916C25.377 128.872 25.4642 128.916 25.4496 128.945C24.1706 132.346 22.3829 135.791 19.9556 138.538C19.9266 138.567 19.8103 138.494 19.8539 138.436Z" fill="#263238"/>
<path d="M22.6154 128.145C23.4729 126.634 24.374 125.151 25.188 123.596C25.188 123.553 25.2752 123.596 25.2461 123.64C24.5921 125.253 23.7491 126.794 22.7462 128.233C22.7317 128.247 22.7171 128.262 22.7026 128.262C22.659 128.276 22.6154 128.247 22.6154 128.204C22.6009 128.189 22.6009 128.16 22.6154 128.145Z" fill="#263238"/>
<path d="M16.482 148.566C16.4384 150.63 16.1913 152.68 15.7553 154.7C15.7843 154.932 15.8134 155.15 15.857 155.383C16.4965 153.145 16.8599 150.848 16.9471 148.523C16.9616 148.494 16.9762 148.45 16.9762 148.421C16.9762 148.377 16.9616 148.348 16.9471 148.305C17.0343 145.194 16.8017 142.098 16.264 139.032C15.3047 133.305 13.1972 127.811 9.20028 123.524C9.17121 123.495 9.12761 123.48 9.084 123.465C9.0404 123.451 8.9968 123.451 8.95319 123.465C8.90959 123.48 8.86598 123.495 8.83692 123.524C8.80785 123.553 8.77878 123.582 8.74971 123.625C7.13639 127.724 7.70324 132.608 9.06947 136.692C9.81072 138.915 10.8863 141.008 12.238 142.927C13.6333 144.845 15.3774 146.473 16.482 148.566Z" fill="#FE5621"/>
<path d="M9.67979 125.471C13.4587 131.605 16.0749 138.886 16.4092 146.139C16.4092 146.27 16.1912 146.299 16.1766 146.168C16.0894 145.514 15.9877 144.875 15.886 144.235C14.3162 142.738 12.7175 141.154 11.5693 139.279C11.5693 139.264 11.5693 139.264 11.5693 139.25C11.5693 139.235 11.5692 139.235 11.5838 139.235L11.5983 139.221H11.6129C12.9064 140.819 14.3017 142.331 15.7842 143.755C15.5081 142.157 15.1883 140.572 14.8249 139.017L14.5197 138.668C14.4616 138.596 14.5633 138.479 14.636 138.552L14.7232 138.654C14.1854 136.517 13.5314 134.424 12.7465 132.375C11.7873 131.227 10.7117 130.238 9.99954 128.858C9.99954 128.858 9.99954 128.858 9.99954 128.843V128.829V128.814L10.0141 128.8H10.0286H10.0431C10.0431 128.8 10.0577 128.8 10.0577 128.814C10.0577 128.814 10.0577 128.814 10.0577 128.829C10.6245 129.613 11.1623 130.413 11.8018 131.154C12.0634 131.445 12.3396 131.721 12.6012 132.012C11.7291 129.788 10.7117 127.622 9.51991 125.544C9.50537 125.529 9.50537 125.5 9.50537 125.471C9.50537 125.442 9.53444 125.428 9.54897 125.413C9.56351 125.398 9.59258 125.398 9.62164 125.398C9.65071 125.442 9.67979 125.442 9.67979 125.471Z" fill="#263238"/>
<path d="M10.45 133.044C11.6709 134.686 13.0662 136.256 14.1999 137.956C14.2289 138 14.1563 138.058 14.1272 138.014C12.6737 136.532 11.4093 134.875 10.3628 133.087C10.3337 133.029 10.4209 133 10.45 133.044Z" fill="#263238"/>
<path d="M14.3747 138.349L14.4331 138.392C14.4623 138.436 14.4331 138.495 14.3747 138.451L14.3163 138.392C14.3163 138.378 14.3018 138.378 14.3018 138.363C14.3018 138.349 14.3018 138.349 14.3163 138.334C14.3309 138.334 14.3309 138.32 14.3455 138.32C14.3601 138.334 14.3747 138.334 14.3747 138.349Z" fill="#263238"/>
<path d="M3.76424 137.273C4.21481 140.703 5.59557 143.944 7.76119 146.633C8.64779 147.694 9.7524 148.552 11.0024 149.162C12.4122 149.86 13.8802 150.659 15.3191 151.226C16.0167 152.985 16.5254 154.816 16.8597 156.676C16.9033 156.517 16.9469 156.357 17.005 156.197C16.0748 148.174 10.9006 141.343 4.27294 136.953C4.21481 136.924 4.15667 136.895 4.09853 136.895C4.04039 136.895 3.96772 136.91 3.92412 136.953C3.86598 136.982 3.83691 137.04 3.80784 137.084C3.76424 137.142 3.74971 137.215 3.76424 137.273Z" fill="#FE5621"/>
<path d="M6.04605 139.628C6.01699 139.613 6.01698 139.57 6.03152 139.555C6.04605 139.526 6.08966 139.526 6.10419 139.54C9.73778 142.244 12.6447 145.819 14.5341 149.932C14.5777 150.049 14.4324 150.136 14.3742 150.034C14.069 149.496 13.7493 148.973 13.415 148.45C11.9034 148.174 10.479 147.098 9.35989 146.095C9.33082 146.066 9.35989 146.023 9.40349 146.052C9.98486 146.575 10.6244 147.026 11.322 147.389C11.9325 147.694 12.6011 147.898 13.2406 148.145C12.6737 147.258 12.0923 146.401 11.4819 145.572C9.86859 144.947 8.34248 144.09 6.97625 143.014C6.93265 142.985 6.97625 142.912 7.01985 142.941C8.38608 143.77 9.79592 144.526 11.2494 145.194C10.3337 143.973 9.33082 142.811 8.26981 141.721C7.76111 141.444 7.23787 141.183 6.7437 140.892C6.7001 140.863 6.7437 140.805 6.77277 140.819C7.19427 140.965 7.58669 141.168 7.95005 141.401C7.32508 140.805 6.7001 140.209 6.04605 139.628Z" fill="#263238"/>
<path d="M6.17695 142.389C6.26414 142.447 6.35132 142.505 6.43851 142.578C6.43851 142.578 6.43852 142.636 6.40945 142.622C6.32226 142.578 6.22054 142.534 6.13335 142.476C6.08976 142.433 6.14789 142.375 6.17695 142.389Z" fill="#263238"/>
<path d="M27.3103 173.987H9.17139L10.6394 157.461L10.9591 153.813H25.5371L25.8568 157.461L27.3103 173.987Z" fill="#455A64"/>
<path d="M25.8421 157.461H10.6392L10.9589 153.813H25.5369L25.8421 157.461Z" fill="#263238"/>
<path d="M26.3945 151.27H10.0869V154.874H26.3945V151.27Z" fill="#455A64"/>
<path d="M158.642 144.991H66.2329V172.795L158.642 144.991Z" fill="#37474F"/>
<path d="M114.487 87.1149C114.473 87.3329 114.298 87.4928 114.095 87.5073C113.615 87.4782 113.034 87.4347 112.38 87.391C111.377 83.2197 110.156 79.8477 110.418 81.1558C110.81 83.1761 110.912 85.24 110.694 87.2893L107.322 87.0131C106.915 79.8477 105.883 74.4409 105.796 76.0542C105.374 82.5656 104.72 84.5859 103.979 86.737C95.8252 86.0539 85.1425 85.0365 77.4393 84.1353C77.0614 80.1529 76.8288 75.8653 76.6544 76.1414C75.3172 78.1908 74.6196 81.3157 74.2562 83.7575C71.8145 83.4522 69.8523 83.1615 68.6605 82.929C68.6605 82.929 68.5152 79.6006 68.5733 78.5251C68.7186 75.749 69.3581 73.0311 70.4918 70.5021C71.6546 67.9005 73.3696 65.7058 75.0411 63.4093L75.0847 63.3512C76.1748 61.8687 77.0904 60.2699 77.8026 58.5839V58.5549C78.2968 57.334 78.6747 56.055 78.9508 54.7614C79.9101 50.0377 83.1658 46.2733 87.8168 45.5902C97.3368 38.73 105.374 43.192 107.133 49.6453C107.307 50.2703 107.453 50.9825 107.613 51.7673V51.7964C108.121 54.6742 108.427 58.3514 108.775 61.2001V61.2292C108.892 62.3483 109.095 63.4675 109.357 64.5576C110.868 69.819 115.388 73.2782 114.487 87.1149Z" fill="#263238"/>
<path d="M85.7236 46.6222C82.5842 47.7704 80.4767 49.7762 79.5756 53.1917C79.0378 55.1829 78.6454 57.1451 77.6134 58.9473C76.5815 60.7496 75.0699 62.2757 73.5438 63.7437C71.1457 66.0401 69.3434 68.4237 68.5585 71.7957C67.7737 75.1677 67.3958 79.3391 68.1516 82.7256H68.1806C67.6574 79.3245 68.2388 74.7753 69.2707 71.4033C70.4044 67.7116 72.8607 65.6041 75.4188 63.0315C77.4681 61.0258 78.9215 58.5113 79.6483 55.7352C80.0988 54.0347 80.3023 52.247 81.218 50.7209C82.2935 48.8896 84.0958 47.8722 85.8835 47.0001C85.9271 46.971 85.9707 46.942 85.9998 46.8838C86.0143 46.8402 86.0143 46.7821 85.9998 46.7239C85.9852 46.6803 85.9416 46.6367 85.8835 46.6077C85.8399 46.6077 85.7818 46.6077 85.7236 46.6222Z" fill="#263238"/>
<path d="M113.615 70.5458C111.9 67.5662 110.04 64.9791 109.269 61.4618C108.572 58.2642 108.354 54.9359 107.627 51.7383C107.627 51.6802 107.54 51.6947 107.554 51.7383C108.572 57.3922 108.194 62.9007 111.101 67.9296C112.685 70.662 114.284 73.2056 115.141 76.3304C116.013 79.6152 116.246 83.0308 115.824 86.3882C115.824 86.4028 115.824 86.4173 115.824 86.4318C115.824 86.4464 115.824 86.4609 115.839 86.4609C115.839 86.4754 115.854 86.4754 115.868 86.49C115.883 86.49 115.897 86.5045 115.897 86.5045C115.912 86.5045 115.926 86.5045 115.926 86.5045C115.941 86.5045 115.955 86.49 115.955 86.49C115.97 86.4754 115.97 86.4754 115.984 86.4609C115.984 86.4464 115.984 86.4318 115.984 86.4318C117.205 81.025 116.362 75.3566 113.615 70.5458Z" fill="#263238"/>
<path d="M102.017 89.4259C117.321 105.472 136.361 139.003 132.597 145.674C128.411 153.101 106.333 130.267 107.031 129.177C107.627 128.247 99.9819 108.059 94.4443 93.292C88.9067 78.5251 98.2378 85.458 102.017 89.4259Z" fill="#F0BCB3"/>
<path d="M120.78 108.669L98.79 112.623C98.79 112.623 93.296 97.0419 92.2205 88.3939C91.61 83.554 94.4588 83.3505 98.0342 85.9231C110.577 94.9489 120.78 108.669 120.78 108.669Z" fill="#FE5621"/>
<path d="M97.0895 91.141C96.9877 91.3009 96.8715 91.4462 96.7261 91.5625C96.6534 91.6352 96.5662 91.6933 96.479 91.7514H96.4209C96.1738 91.5916 95.9703 91.3735 95.8105 91.1264C95.6796 90.9375 95.6651 90.6904 95.7669 90.4724C95.7959 90.4288 95.8395 90.3852 95.8831 90.3561C95.9267 90.3271 95.9849 90.3125 96.043 90.3125C96.1012 90.4724 96.261 90.5887 96.4354 90.5887C96.5226 90.5887 96.6098 90.5596 96.6825 90.516C96.7552 90.4724 96.8133 90.3997 96.8424 90.3125C96.9587 90.3125 97.075 90.3707 97.1331 90.4724C97.1767 90.5741 97.2058 90.6904 97.1912 90.8067C97.1912 90.9375 97.1476 91.0392 97.0895 91.141ZM103.877 90.5887C103.833 90.7776 103.863 90.9666 103.964 91.141C104.124 91.3881 104.328 91.5916 104.56 91.766H104.633C104.72 91.7078 104.807 91.6497 104.88 91.577C104.894 91.5625 104.924 91.5479 104.938 91.5189C104.618 91.2137 104.284 90.8939 103.906 90.5887H103.877ZM93.078 85.2546C93.0199 85.1528 92.9036 85.0802 92.7873 85.0947C92.7292 85.0947 92.6565 85.1092 92.6129 85.1383C92.3803 85.5162 92.235 85.9522 92.1914 86.3882C92.2495 86.4319 92.3077 86.4755 92.3658 86.5191H92.4385C92.4385 86.5191 92.5548 86.4318 92.671 86.3301C92.8164 86.2138 92.9472 86.0685 93.0344 85.9086C93.0925 85.8069 93.1361 85.7051 93.1361 85.5889C93.1361 85.4726 93.1216 85.3563 93.078 85.2546ZM97.1476 100.966C97.0895 100.864 96.9732 100.792 96.8569 100.806C96.8279 100.894 96.7697 100.952 96.6971 101.01C96.6244 101.053 96.5372 101.082 96.45 101.082C96.3628 101.082 96.2756 101.053 96.2029 101.01C96.1302 100.966 96.0721 100.894 96.043 100.806C95.9849 100.806 95.9267 100.821 95.8831 100.85C95.8395 100.879 95.7959 100.923 95.7669 100.966C95.7233 101.068 95.6942 101.184 95.7087 101.301C95.7232 101.417 95.7523 101.519 95.8105 101.62C95.9703 101.867 96.1738 102.071 96.4209 102.231H96.4936C96.5808 102.173 96.6535 102.114 96.7407 102.042C96.886 101.911 97.0168 101.766 97.104 101.606C97.1622 101.504 97.2058 101.388 97.2058 101.271C97.2058 101.155 97.1912 101.039 97.1331 100.937L97.1476 100.966ZM105.301 100.966C105.272 100.923 105.229 100.879 105.185 100.85C105.142 100.821 105.083 100.806 105.025 100.806C104.938 100.806 104.851 100.835 104.778 100.894C104.705 100.937 104.647 101.01 104.618 101.097C104.589 101.024 104.531 100.952 104.458 100.894C104.386 100.85 104.313 100.821 104.226 100.806C104.168 100.806 104.11 100.821 104.066 100.85C104.008 100.879 103.979 100.923 103.95 100.966C103.906 101.068 103.877 101.184 103.892 101.301C103.906 101.417 103.935 101.519 103.993 101.62C104.153 101.867 104.357 102.071 104.604 102.231H104.662C104.749 102.173 104.836 102.114 104.909 102.042C105.054 101.911 105.171 101.766 105.272 101.606C105.345 101.504 105.374 101.402 105.389 101.286C105.403 101.17 105.374 101.053 105.33 100.952L105.301 100.966ZM113.441 100.966C113.412 100.923 113.368 100.879 113.324 100.85C113.281 100.821 113.223 100.806 113.15 100.806C113.063 100.806 112.976 100.835 112.917 100.894C112.845 100.937 112.801 101.01 112.758 101.097C112.728 101.01 112.67 100.952 112.598 100.894C112.525 100.85 112.438 100.821 112.351 100.806C112.292 100.806 112.234 100.821 112.191 100.85C112.147 100.879 112.103 100.923 112.074 100.966C112.031 101.068 112.002 101.184 112.016 101.301C112.016 101.417 112.06 101.519 112.118 101.62C112.278 101.867 112.481 102.071 112.728 102.231H112.801C112.888 102.173 112.961 102.114 113.048 102.042C113.194 101.911 113.31 101.766 113.412 101.606C113.542 101.402 113.571 101.155 113.47 100.937L113.441 100.966ZM101.217 95.6902C101.188 95.6466 101.145 95.603 101.101 95.574C101.043 95.5449 100.999 95.5304 100.927 95.5304C100.839 95.5304 100.752 95.5594 100.694 95.6176C100.621 95.6612 100.563 95.7338 100.534 95.8211C100.505 95.7484 100.447 95.6757 100.374 95.6176C100.302 95.574 100.214 95.5449 100.127 95.5304C100.069 95.5304 100.011 95.5449 99.9673 95.574C99.9237 95.603 99.8801 95.6466 99.851 95.6902C99.7493 95.8937 99.7783 96.1408 99.8946 96.3298C100.054 96.5768 100.258 96.7948 100.505 96.9547H100.563C100.65 96.8966 100.738 96.8385 100.81 96.7658C100.956 96.635 101.072 96.4896 101.174 96.3298C101.232 96.2426 101.275 96.1263 101.29 96.01C101.29 95.9082 101.275 95.8065 101.217 95.6902ZM109.371 95.6902C109.342 95.6466 109.298 95.603 109.255 95.574C109.211 95.5449 109.153 95.5304 109.095 95.5304C109.066 95.6176 109.008 95.6757 108.935 95.7339C108.862 95.7775 108.775 95.8065 108.688 95.8065C108.601 95.8065 108.513 95.7775 108.441 95.7339C108.368 95.6902 108.31 95.6176 108.281 95.5304C108.165 95.5304 108.048 95.5885 107.99 95.6902C107.947 95.792 107.918 95.9083 107.932 96.0245C107.932 96.1408 107.976 96.2425 108.034 96.3443C108.194 96.5914 108.397 96.7949 108.644 96.9693H108.717C108.717 96.9693 108.833 96.8821 108.964 96.7803C109.109 96.6495 109.226 96.5042 109.327 96.3443C109.386 96.2571 109.429 96.1408 109.444 96.0245C109.458 95.9083 109.444 95.792 109.4 95.6902H109.371ZM105.287 111.387C105.258 111.344 105.214 111.3 105.171 111.271C105.127 111.242 105.069 111.227 105.011 111.227C104.924 111.227 104.836 111.257 104.778 111.315C104.793 111.402 104.749 111.489 104.662 111.504C104.575 111.518 104.487 111.475 104.473 111.387C104.473 111.358 104.473 111.344 104.473 111.315C104.4 111.271 104.313 111.242 104.226 111.227C104.168 111.227 104.11 111.242 104.066 111.271C104.022 111.3 103.979 111.344 103.95 111.387C103.892 111.475 103.877 111.591 103.877 111.693L105.316 111.431C105.33 111.416 105.33 111.402 105.33 111.387H105.287ZM101.203 106.155C101.174 106.097 101.13 106.053 101.086 106.039C101.043 106.01 100.985 105.995 100.912 105.995C100.825 105.995 100.738 106.024 100.679 106.082C100.607 106.126 100.549 106.199 100.52 106.286C100.461 106.111 100.302 106.01 100.127 105.995C100.069 105.995 100.011 106.01 99.9528 106.039C99.9091 106.068 99.8655 106.111 99.8365 106.155C99.7347 106.358 99.7638 106.606 99.8801 106.795C100.04 107.042 100.243 107.245 100.491 107.405H100.549C100.636 107.347 100.723 107.289 100.796 107.216C100.941 107.1 101.072 106.954 101.159 106.795C101.217 106.707 101.261 106.591 101.275 106.475C101.29 106.358 101.275 106.242 101.232 106.14L101.203 106.155ZM109.356 106.155C109.327 106.111 109.284 106.068 109.24 106.039C109.182 106.01 109.138 105.995 109.066 105.995C109.037 106.082 108.993 106.155 108.92 106.199C108.848 106.257 108.761 106.271 108.673 106.271C108.586 106.271 108.499 106.242 108.426 106.199C108.354 106.14 108.31 106.068 108.281 105.995C108.223 105.995 108.165 106.01 108.107 106.039C108.048 106.068 108.019 106.111 107.99 106.155C107.947 106.257 107.918 106.373 107.932 106.489C107.947 106.606 107.976 106.707 108.034 106.809C108.194 107.056 108.397 107.26 108.644 107.419H108.717C108.804 107.361 108.891 107.303 108.964 107.231C109.109 107.114 109.226 106.969 109.327 106.809C109.386 106.722 109.429 106.606 109.444 106.489C109.458 106.373 109.444 106.257 109.4 106.155H109.356ZM117.51 106.155C117.481 106.097 117.438 106.068 117.394 106.039C117.35 106.01 117.292 105.995 117.22 105.995C117.132 105.995 117.045 106.024 116.987 106.082C116.914 106.126 116.871 106.199 116.827 106.286C116.754 106.126 116.609 106.01 116.435 105.995C116.377 105.995 116.318 106.01 116.275 106.039C116.231 106.068 116.188 106.111 116.159 106.155C116.057 106.358 116.086 106.606 116.202 106.795C116.362 107.042 116.566 107.245 116.813 107.405H116.871C116.958 107.347 117.045 107.289 117.118 107.216C117.263 107.1 117.379 106.954 117.481 106.795C117.612 106.606 117.641 106.373 117.568 106.155H117.51Z" fill="white"/>
<path d="M98.9356 109.018C102.264 108.132 111.363 105.981 117.467 105.356C117.511 105.356 117.54 105.486 117.496 105.501C112.496 106.78 102.351 108.626 98.9938 109.222C98.9211 109.222 98.8775 109.033 98.9356 109.018Z" fill="#263238"/>
<path opacity="0.1" d="M117.83 109.193L98.7898 112.623C98.7898 112.623 93.3104 97.0419 92.2203 88.4085C91.8279 85.3127 92.8598 84.0918 94.5894 84.3243L117.83 109.193Z" fill="#10253F"/>
<path d="M110.955 145.02H55.2451C55.2451 145.02 60.3176 106.155 78.253 85.7197C83.093 80.2111 91.8717 81.839 96.0285 85.5743C97.4965 86.9987 98.8482 88.5393 100.069 90.1672C103.848 95.0217 110.011 106.649 110.577 109.818C111.537 115.021 106.929 120.646 106.929 120.646L110.955 145.02Z" fill="#FE5621"/>
<path d="M80.7965 91.141C80.6948 91.3008 80.5785 91.4462 80.4332 91.5625C80.3605 91.6351 80.2733 91.6933 80.1861 91.7514H80.128C79.8809 91.5915 79.6774 91.3735 79.5175 91.1264C79.4594 91.0247 79.4303 90.923 79.4158 90.8067C79.4158 90.6904 79.4303 90.5741 79.4739 90.4724C79.5321 90.3706 79.6483 90.3125 79.7646 90.3125C79.8518 90.3125 79.939 90.3416 79.9972 90.3997C80.0698 90.4433 80.1134 90.516 80.157 90.5887C80.2297 90.4288 80.375 90.3125 80.5495 90.3125C80.6076 90.3125 80.6657 90.327 80.7093 90.3561C80.7529 90.3852 80.7966 90.4288 80.8256 90.4724C80.9419 90.7049 80.9274 90.952 80.7965 91.141ZM88.9939 90.4869C88.9649 90.4433 88.9213 90.3997 88.8777 90.3706C88.834 90.3416 88.7759 90.327 88.7032 90.327C88.5288 90.3416 88.3835 90.4433 88.3108 90.6032C88.2381 90.4433 88.0928 90.327 87.9184 90.327C87.8602 90.327 87.8021 90.3416 87.7585 90.3706C87.7149 90.3997 87.6713 90.4433 87.6422 90.4869C87.5986 90.5887 87.5696 90.7049 87.5841 90.8212C87.5986 90.9375 87.6277 91.0392 87.6858 91.141C87.8457 91.3881 88.0492 91.6061 88.2963 91.7659H88.3544C88.4416 91.7078 88.5143 91.6497 88.6015 91.577C88.7468 91.4607 88.8631 91.3154 88.9649 91.1555C89.023 91.0538 89.0666 90.952 89.0666 90.8357C89.0666 90.7049 89.0375 90.5887 88.9939 90.4869ZM97.1477 90.4869C97.1186 90.4433 97.075 90.3997 97.0314 90.3706C96.9878 90.3416 96.9297 90.327 96.8716 90.327C96.8134 90.4869 96.6535 90.6032 96.4791 90.6032C96.3919 90.6032 96.3047 90.5741 96.232 90.5305C96.1594 90.4869 96.1012 90.4142 96.0722 90.327C96.014 90.327 95.9559 90.3416 95.9123 90.3706C95.8687 90.3997 95.8251 90.4433 95.796 90.4869C95.7524 90.5887 95.7233 90.7049 95.7379 90.8212C95.7524 90.9375 95.7815 91.0392 95.8396 91.141C95.9995 91.3881 96.203 91.5915 96.4501 91.7659H96.5227C96.6099 91.7078 96.6826 91.6497 96.7698 91.577C96.9152 91.4607 97.046 91.3154 97.1332 91.1555C97.2204 90.952 97.2495 90.7049 97.1477 90.4869ZM84.9243 85.2545C84.8662 85.1528 84.7499 85.0947 84.6336 85.0947C84.5464 85.0947 84.4737 85.1237 84.4011 85.1819C84.3284 85.2255 84.2848 85.2982 84.2412 85.3708C84.1685 85.2109 84.0086 85.1092 83.8488 85.0947C83.7325 85.0947 83.6307 85.1528 83.5726 85.2545C83.4709 85.458 83.4854 85.7051 83.6162 85.9086C83.7761 86.1557 83.9796 86.3592 84.2267 86.519H84.2993C84.2993 86.519 84.4156 86.4318 84.5464 86.3301C84.6918 86.2138 84.808 86.0685 84.9098 85.9086C84.997 85.7196 85.0115 85.4726 84.9243 85.2545ZM93.0636 85.2545C93.0345 85.2109 92.9909 85.1673 92.9473 85.1383C92.8891 85.1092 92.8455 85.0947 92.7874 85.0947C92.7002 85.0947 92.6275 85.1383 92.5549 85.1819C92.4822 85.2255 92.424 85.2982 92.395 85.3708C92.3659 85.2982 92.3078 85.2255 92.2351 85.1819C92.1624 85.1383 92.0897 85.1092 92.0025 85.0947C91.8863 85.0947 91.77 85.1528 91.7119 85.2545C91.6683 85.3563 91.6392 85.4726 91.6537 85.5888C91.6537 85.7051 91.6973 85.8069 91.7555 85.9086C91.9153 86.1557 92.1188 86.3592 92.3659 86.519H92.424C92.5112 86.4609 92.5839 86.4028 92.6711 86.3301C92.8165 86.2138 92.9327 86.0685 93.0345 85.9086C93.0926 85.8069 93.1362 85.7051 93.1362 85.5888C93.1362 85.4726 93.1217 85.3563 93.0636 85.2545ZM72.6718 100.966C72.6137 100.864 72.4974 100.792 72.3811 100.806C72.2939 100.806 72.2067 100.835 72.1486 100.894C72.0759 100.937 72.0178 101.01 71.9887 101.097C71.9597 101.01 71.9015 100.952 71.8288 100.894C71.7562 100.85 71.669 100.821 71.5818 100.806C71.5236 100.806 71.4655 100.821 71.4219 100.85C71.3783 100.879 71.3347 100.923 71.3056 100.966C71.262 101.068 71.2329 101.184 71.2475 101.3C71.262 101.417 71.2911 101.519 71.3492 101.62C71.5091 101.867 71.7126 102.071 71.9597 102.245H72.0323C72.1195 102.187 72.1922 102.129 72.2794 102.056C72.4248 101.94 72.5556 101.78 72.6428 101.62C72.7736 101.417 72.8026 101.17 72.7009 100.952L72.6718 100.966ZM80.8256 100.966C80.7966 100.923 80.7529 100.879 80.7093 100.85C80.6657 100.821 80.6076 100.806 80.5495 100.806C80.4623 100.806 80.375 100.835 80.3024 100.894C80.3169 100.981 80.2733 101.068 80.1861 101.082C80.0989 101.097 80.0117 101.053 79.9972 100.966C79.9972 100.937 79.9972 100.923 79.9972 100.894C79.9245 100.85 79.8518 100.821 79.7646 100.806C79.6483 100.806 79.5321 100.864 79.4739 100.966C79.4303 101.068 79.4012 101.184 79.4158 101.3C79.4303 101.417 79.4594 101.519 79.5175 101.62C79.6774 101.867 79.8809 102.071 80.128 102.245H80.1861C80.2733 102.187 80.3605 102.129 80.4332 102.056C80.5785 101.925 80.6948 101.78 80.7965 101.62C80.8692 101.519 80.8983 101.417 80.9128 101.3C80.9274 101.184 80.8983 101.068 80.8547 100.966H80.8256ZM88.9794 100.966C88.9213 100.864 88.805 100.792 88.6887 100.806C88.6015 100.806 88.5143 100.835 88.4562 100.894C88.3835 100.937 88.3253 101.01 88.2963 101.097C88.2236 100.937 88.0783 100.821 87.9039 100.821C87.8457 100.821 87.7876 100.835 87.744 100.864C87.6858 100.894 87.6568 100.937 87.6277 100.981C87.526 101.184 87.5405 101.431 87.6713 101.62C87.8312 101.867 88.0347 102.071 88.2817 102.245H88.3399C88.4271 102.187 88.5143 102.129 88.587 102.056C88.7323 101.925 88.8486 101.78 88.9503 101.62C89.0957 101.431 89.1102 101.17 89.023 100.952L88.9794 100.966ZM97.1186 100.966C97.0896 100.923 97.046 100.879 97.0024 100.85C96.9588 100.821 96.9006 100.806 96.8425 100.806C96.8134 100.894 96.7553 100.952 96.6826 101.01C96.5373 101.112 96.3483 101.112 96.203 101.01C96.1303 100.966 96.0722 100.894 96.0431 100.806C95.985 100.806 95.9268 100.821 95.8832 100.85C95.8396 100.879 95.796 100.923 95.7669 100.966C95.7233 101.068 95.6943 101.184 95.7088 101.3C95.7233 101.417 95.7524 101.519 95.8105 101.62C95.9704 101.867 96.1739 102.071 96.421 102.245H96.4937C96.5809 102.187 96.6535 102.129 96.7407 102.056C96.8861 101.925 97.0169 101.78 97.1041 101.62C97.1768 101.519 97.2204 101.417 97.2204 101.3C97.2349 101.184 97.2058 101.068 97.1622 100.952L97.1186 100.966ZM105.272 100.966C105.243 100.923 105.2 100.879 105.156 100.85C105.113 100.821 105.054 100.806 104.996 100.806C104.822 100.821 104.662 100.923 104.604 101.082C104.546 100.923 104.386 100.806 104.211 100.806C104.153 100.806 104.095 100.821 104.052 100.85C103.993 100.879 103.964 100.923 103.935 100.966C103.892 101.068 103.863 101.184 103.877 101.3C103.877 101.417 103.921 101.519 103.979 101.62C104.139 101.867 104.342 102.071 104.589 102.245H104.647C104.735 102.187 104.822 102.129 104.895 102.056C105.04 101.925 105.156 101.78 105.258 101.62C105.403 101.431 105.432 101.17 105.345 100.952L105.272 100.966ZM76.7269 95.6902C76.6979 95.6466 76.6543 95.603 76.6107 95.5739C76.5671 95.5449 76.5089 95.5303 76.4508 95.5303C76.3636 95.5303 76.2764 95.5594 76.2182 95.6175C76.1456 95.6612 76.0874 95.7338 76.0583 95.821C75.9857 95.6612 75.8403 95.5449 75.6659 95.5449C75.6078 95.5449 75.5496 95.5594 75.506 95.5885C75.4624 95.6176 75.4188 95.6611 75.3898 95.7048C75.288 95.9082 75.3171 96.1553 75.4334 96.3443C75.5932 96.5914 75.7967 96.8094 76.0438 96.9693H76.1019C76.1019 96.9693 76.2182 96.882 76.349 96.7803C76.4944 96.664 76.6107 96.5041 76.7124 96.3443C76.7851 96.2571 76.8287 96.1408 76.8287 96.039C76.8432 95.9228 76.8287 95.8065 76.7851 95.7048L76.7269 95.6902ZM84.8662 95.6902C84.808 95.5885 84.6918 95.5158 84.5755 95.5303C84.4883 95.5303 84.4011 95.5594 84.3429 95.6175C84.3575 95.7048 84.3139 95.792 84.2267 95.8065C84.1394 95.821 84.0522 95.7774 84.0377 95.6902C84.0377 95.6612 84.0377 95.6466 84.0377 95.6175C83.965 95.5739 83.8778 95.5449 83.8052 95.5303C83.6889 95.5303 83.5726 95.5885 83.5145 95.6902C83.4709 95.792 83.4418 95.9082 83.4563 96.0245C83.4563 96.1408 83.4999 96.2425 83.5581 96.3443C83.718 96.5914 83.9214 96.7948 84.1685 96.9693H84.2412C84.3284 96.9111 84.4011 96.853 84.4883 96.7803C84.6336 96.664 84.7644 96.5041 84.8516 96.3443C84.997 96.1553 85.026 95.9228 84.9388 95.7048L84.8662 95.6902ZM93.0199 95.6902C92.9909 95.6466 92.9473 95.603 92.9037 95.5739C92.8601 95.5449 92.8019 95.5303 92.7438 95.5303C92.5694 95.5303 92.4095 95.6466 92.3514 95.8065C92.3223 95.7193 92.2642 95.6612 92.1915 95.603C92.1188 95.5594 92.0461 95.5303 91.9589 95.5158C91.9008 95.5158 91.8427 95.5303 91.7845 95.5594C91.7409 95.5885 91.6973 95.6321 91.6683 95.6757C91.5665 95.8792 91.581 96.1263 91.7119 96.3152C91.8717 96.5623 92.0752 96.7803 92.3223 96.9402H92.3804C92.3804 96.9402 92.4967 96.853 92.6275 96.7512C92.7729 96.6204 92.8891 96.4751 92.9909 96.3152C93.0636 96.228 93.1072 96.1117 93.1217 96.01C93.1362 95.8937 93.1217 95.7774 93.0926 95.6757L93.0199 95.6902ZM101.174 95.6902C101.145 95.6466 101.101 95.603 101.057 95.5739C100.999 95.5449 100.956 95.5303 100.883 95.5303C100.709 95.5303 100.549 95.6466 100.491 95.8065C100.418 95.6466 100.273 95.5303 100.098 95.5303C100.04 95.5303 99.9819 95.5449 99.9383 95.5739C99.8947 95.603 99.8511 95.6466 99.822 95.6902C99.7784 95.792 99.7494 95.9082 99.7639 96.0245C99.7784 96.1408 99.8075 96.2425 99.8656 96.3443C100.026 96.5914 100.229 96.8094 100.476 96.9693H100.534C100.621 96.9111 100.694 96.853 100.781 96.7803C100.927 96.6495 101.043 96.5041 101.145 96.3443C101.29 96.1553 101.319 95.9228 101.246 95.7048L101.174 95.6902ZM64.4745 111.387C64.4454 111.344 64.4018 111.3 64.3582 111.271C64.3146 111.242 64.2564 111.227 64.1983 111.227C64.1111 111.227 64.0239 111.257 63.9512 111.315C63.8785 111.358 63.8204 111.431 63.7913 111.518V111.475C63.6751 111.78 63.5588 112.085 63.4571 112.39C63.5588 112.492 63.6751 112.579 63.7913 112.666H63.864C63.864 112.666 63.9803 112.579 64.1111 112.477C64.2564 112.361 64.3727 112.216 64.4745 112.056C64.6053 111.867 64.6343 111.62 64.5471 111.416L64.4745 111.387ZM72.6137 111.387C72.5846 111.344 72.541 111.3 72.4974 111.271C72.4538 111.242 72.3957 111.227 72.3375 111.227C72.2503 111.227 72.1631 111.257 72.105 111.315C72.0323 111.358 71.9887 111.431 71.9451 111.518C71.916 111.445 71.8579 111.373 71.7852 111.329C71.7126 111.286 71.6399 111.257 71.5527 111.242C71.4946 111.242 71.4364 111.257 71.3928 111.286C71.3492 111.315 71.3056 111.358 71.2765 111.402C71.2329 111.504 71.2039 111.62 71.2184 111.736C71.2184 111.852 71.262 111.954 71.3201 112.056C71.48 112.303 71.6835 112.506 71.9306 112.666H72.0033C72.0905 112.608 72.1631 112.55 72.2503 112.477C72.3957 112.361 72.512 112.216 72.6137 112.056C72.6864 111.969 72.7445 111.867 72.759 111.751C72.7736 111.634 72.7736 111.518 72.73 111.416L72.6137 111.387ZM80.7675 111.387C80.7384 111.344 80.6948 111.3 80.6512 111.271C80.6076 111.242 80.5495 111.227 80.4913 111.227C80.3169 111.242 80.1716 111.344 80.0989 111.504C80.0698 111.431 80.0117 111.358 79.939 111.3C79.8663 111.257 79.7937 111.227 79.7065 111.213C79.6483 111.213 79.5902 111.227 79.5466 111.257C79.503 111.286 79.4594 111.329 79.4303 111.373C79.3867 111.475 79.3576 111.591 79.3722 111.707C79.3867 111.823 79.4158 111.925 79.4739 112.027C79.6338 112.274 79.8373 112.477 80.0844 112.637H80.1425C80.2297 112.579 80.3169 112.521 80.3896 112.448C80.5349 112.332 80.6512 112.187 80.7529 112.027C80.8256 111.94 80.8692 111.838 80.8983 111.722C80.9128 111.605 80.9128 111.489 80.8692 111.387H80.7675ZM88.9213 111.387C88.8922 111.344 88.8486 111.3 88.805 111.271C88.7614 111.242 88.7032 111.227 88.6451 111.227C88.5579 111.227 88.4707 111.257 88.4126 111.315C88.3399 111.358 88.2817 111.431 88.2527 111.518C88.18 111.358 88.0347 111.257 87.8602 111.242C87.8021 111.242 87.744 111.257 87.7004 111.286C87.6422 111.315 87.6132 111.358 87.5841 111.402C87.4824 111.62 87.5114 111.852 87.6277 112.056C87.7876 112.303 87.9911 112.506 88.2381 112.666H88.2963C88.3835 112.608 88.4707 112.55 88.5434 112.477C88.6887 112.361 88.8195 112.216 88.9067 112.056C88.9794 111.969 89.023 111.867 89.0521 111.751C89.0811 111.634 89.0666 111.518 89.023 111.416L88.9213 111.387ZM97.0605 111.387C97.0314 111.344 96.9878 111.3 96.9442 111.271C96.8861 111.242 96.8425 111.227 96.7698 111.227C96.6826 111.445 96.4501 111.562 96.232 111.475C96.203 111.46 96.1594 111.445 96.1303 111.416C96.0576 111.373 95.9995 111.3 95.9704 111.213C95.9123 111.213 95.8541 111.227 95.8105 111.257C95.7669 111.286 95.7233 111.329 95.6943 111.373C95.6507 111.475 95.6216 111.591 95.6361 111.707C95.6507 111.823 95.6797 111.925 95.7379 112.027C95.8978 112.274 96.1012 112.477 96.3483 112.637H96.421C96.5082 112.579 96.5809 112.521 96.6681 112.448C96.8134 112.332 96.9442 112.187 97.0314 112.027C97.1041 111.94 97.1477 111.838 97.1768 111.722C97.2058 111.605 97.1913 111.489 97.1477 111.387H97.0605ZM105.214 111.387C105.185 111.344 105.142 111.3 105.098 111.271C105.04 111.242 104.996 111.227 104.924 111.227C104.836 111.227 104.764 111.257 104.691 111.315C104.706 111.402 104.647 111.489 104.56 111.504C104.473 111.518 104.386 111.46 104.371 111.373C104.371 111.358 104.371 111.329 104.371 111.315C104.299 111.271 104.211 111.242 104.139 111.227C104.022 111.227 103.906 111.286 103.848 111.387C103.804 111.489 103.775 111.605 103.79 111.722C103.804 111.838 103.834 111.94 103.892 112.041C104.052 112.288 104.255 112.492 104.502 112.652H104.56C104.647 112.594 104.735 112.536 104.807 112.463C104.953 112.347 105.069 112.201 105.171 112.041C105.331 111.867 105.374 111.62 105.316 111.402L105.214 111.387ZM68.6022 106.155C68.5731 106.111 68.5295 106.068 68.4859 106.039C68.4423 106.01 68.3842 105.995 68.3261 105.995C68.2534 106.213 68.0063 106.329 67.7883 106.257C67.7447 106.242 67.7156 106.228 67.6865 106.199C67.6139 106.14 67.5703 106.082 67.5412 105.995C67.4831 105.995 67.4249 106.01 67.3668 106.039C67.3232 106.068 67.2796 106.111 67.2505 106.155C67.2069 106.257 67.1779 106.373 67.1924 106.489C67.2069 106.606 67.236 106.707 67.2941 106.809C67.454 107.056 67.6575 107.26 67.9046 107.434H67.9772C68.0644 107.376 68.1517 107.318 68.2243 107.245C68.3697 107.129 68.4859 106.983 68.5877 106.824C68.6458 106.722 68.6894 106.62 68.6894 106.504C68.6749 106.373 68.6603 106.257 68.6022 106.155ZM76.756 106.155C76.7269 106.111 76.6833 106.068 76.6397 106.039C76.5816 106.01 76.538 105.995 76.4653 105.995C76.3781 105.995 76.2909 106.024 76.2328 106.082C76.1601 106.126 76.1165 106.199 76.0729 106.286C76.0438 106.213 75.9857 106.14 75.913 106.097C75.8403 106.053 75.7677 106.01 75.6805 106.01C75.6223 106.01 75.5642 106.024 75.506 106.053C75.4624 106.082 75.4188 106.126 75.3898 106.169C75.3462 106.271 75.3171 106.388 75.3316 106.504C75.3316 106.62 75.3752 106.722 75.4334 106.824C75.5932 107.071 75.7967 107.274 76.0438 107.449H76.1019C76.1892 107.39 76.2764 107.332 76.349 107.26C76.4944 107.143 76.6107 106.998 76.7124 106.838C76.8432 106.62 76.8577 106.373 76.756 106.155ZM84.9098 106.155C84.8807 106.097 84.8371 106.068 84.7935 106.039C84.7354 106.01 84.6918 105.995 84.6191 105.995C84.5319 105.995 84.4447 106.024 84.3865 106.082C84.3139 106.126 84.2557 106.199 84.2267 106.286C84.1976 106.213 84.1395 106.14 84.0668 106.097C83.9941 106.039 83.9069 106.024 83.8197 106.01C83.7616 106.01 83.7034 106.024 83.6598 106.053C83.6162 106.082 83.5726 106.126 83.5435 106.169C83.4418 106.373 83.4563 106.62 83.5871 106.809C83.747 107.056 83.9505 107.26 84.1976 107.434H84.2703C84.3575 107.376 84.4301 107.318 84.5173 107.245C84.6627 107.129 84.7935 106.983 84.8807 106.824C84.9388 106.736 84.9824 106.62 84.997 106.504C85.0115 106.388 84.9824 106.271 84.9388 106.169L84.9098 106.155ZM93.049 106.155C93.0199 106.097 92.9763 106.068 92.9327 106.039C92.8891 106.01 92.831 105.995 92.7729 105.995C92.6857 105.995 92.5984 106.039 92.5403 106.082C92.4676 106.126 92.4095 106.199 92.3804 106.271C92.3514 106.199 92.2932 106.126 92.2206 106.082C92.1479 106.039 92.0752 106.01 91.988 105.995C91.9299 105.995 91.8717 106.01 91.8136 106.039C91.77 106.068 91.7264 106.111 91.6973 106.155C91.5956 106.358 91.6101 106.606 91.7409 106.794C91.9008 107.042 92.1043 107.245 92.3514 107.419H92.4095C92.4967 107.361 92.5839 107.303 92.6566 107.231C92.8019 107.114 92.9182 106.969 93.0199 106.809C93.1508 106.62 93.1798 106.373 93.0926 106.169L93.049 106.155ZM101.203 106.155C101.174 106.097 101.13 106.068 101.087 106.039C101.028 106.01 100.985 105.995 100.912 105.995C100.825 105.995 100.738 106.024 100.68 106.082C100.607 106.126 100.563 106.199 100.52 106.286C100.491 106.199 100.432 106.14 100.36 106.082C100.287 106.039 100.2 106.01 100.113 105.995C100.055 105.995 99.9964 106.01 99.9528 106.039C99.9092 106.068 99.8656 106.111 99.8366 106.155C99.7348 106.358 99.7639 106.606 99.8802 106.794C100.04 107.042 100.244 107.245 100.491 107.419H100.549C100.636 107.361 100.723 107.303 100.796 107.231C100.941 107.114 101.072 106.969 101.159 106.809C101.232 106.722 101.261 106.606 101.275 106.489C101.29 106.373 101.275 106.257 101.232 106.155H101.203ZM109.168 106.01C109.139 106.01 109.109 106.01 109.066 106.01C108.979 106.01 108.906 106.053 108.833 106.097C108.761 106.14 108.703 106.213 108.673 106.286C108.601 106.126 108.455 106.01 108.281 106.01C108.165 106.01 108.048 106.068 107.99 106.169C107.947 106.271 107.918 106.388 107.932 106.504C107.932 106.62 107.976 106.722 108.034 106.824C108.194 107.071 108.412 107.274 108.644 107.449H108.703C108.79 107.39 108.862 107.318 108.95 107.26C109.095 107.143 109.226 106.998 109.313 106.838C109.357 106.765 109.386 106.678 109.4 106.591L109.168 106.01ZM64.5035 121.867C64.4454 121.765 64.3291 121.707 64.2128 121.707C64.1256 121.707 64.0384 121.736 63.9658 121.794C63.8931 121.838 63.8349 121.91 63.8059 121.997C63.7768 121.925 63.7187 121.852 63.646 121.794C63.5733 121.75 63.5007 121.721 63.4135 121.707C63.3553 121.707 63.2972 121.721 63.239 121.75C63.1954 121.779 63.1518 121.823 63.1228 121.867C63.021 122.07 63.0356 122.317 63.1664 122.506C63.3262 122.753 63.5297 122.971 63.7768 123.131H63.8349C63.9221 123.073 63.9948 123.015 64.082 122.942C64.2274 122.826 64.3436 122.681 64.4454 122.521C64.5035 122.419 64.5471 122.317 64.5617 122.201C64.5762 122.085 64.5617 121.968 64.5181 121.867H64.5035ZM72.6573 121.867C72.6282 121.823 72.5846 121.779 72.541 121.75C72.4829 121.721 72.4393 121.707 72.3666 121.707C72.2794 121.707 72.1922 121.736 72.1341 121.794C72.0614 121.838 72.0178 121.91 71.9742 121.997C71.9451 121.925 71.887 121.852 71.8143 121.794C71.7416 121.75 71.6544 121.721 71.5672 121.707C71.5091 121.707 71.451 121.721 71.4074 121.75C71.3637 121.779 71.3201 121.823 71.2911 121.867C71.2475 121.968 71.2184 122.085 71.2329 122.201C71.2329 122.317 71.2765 122.419 71.3347 122.521C71.4946 122.768 71.698 122.986 71.9451 123.146H72.0178C72.0178 123.146 72.1341 123.058 72.2649 122.957C72.4102 122.84 72.5265 122.695 72.6282 122.535C72.7009 122.448 72.73 122.332 72.7445 122.215C72.759 122.099 72.7445 121.983 72.7009 121.881H72.6573V121.867ZM80.7965 121.867C80.7675 121.823 80.7239 121.779 80.6803 121.75C80.6367 121.721 80.5785 121.707 80.5204 121.707C80.5349 121.867 80.4332 121.997 80.2733 122.026C80.128 122.041 79.9826 121.939 79.9681 121.794C79.8954 121.75 79.8082 121.721 79.7355 121.707C79.6774 121.707 79.6193 121.721 79.5757 121.75C79.5321 121.779 79.4885 121.823 79.4594 121.867C79.3576 122.07 79.3722 122.317 79.503 122.506C79.6629 122.753 79.8663 122.971 80.1134 123.131H80.1716C80.2588 123.073 80.3315 123 80.4187 122.942C80.564 122.811 80.6803 122.681 80.782 122.521C80.8547 122.433 80.8983 122.317 80.9128 122.201C80.9274 122.085 80.9128 121.968 80.8692 121.867H80.7965ZM88.9503 121.867C88.9213 121.823 88.8777 121.779 88.834 121.75C88.7904 121.721 88.7323 121.707 88.6742 121.707C88.587 121.707 88.4998 121.736 88.4416 121.794C88.3689 121.838 88.3253 121.91 88.2817 121.997C88.2091 121.838 88.0637 121.721 87.8748 121.721C87.7585 121.721 87.6422 121.779 87.5841 121.881C87.4824 122.085 87.5114 122.332 87.6277 122.521C87.7876 122.768 87.9911 122.986 88.2381 123.146H88.2963C88.3835 123.087 88.4562 123.029 88.5434 122.957C88.6887 122.84 88.805 122.695 88.9067 122.535C88.9794 122.448 89.023 122.332 89.0375 122.215C89.0521 122.099 89.0375 121.983 88.9939 121.881L88.9503 121.867ZM97.1041 121.867C97.075 121.808 97.0314 121.779 96.9878 121.75C96.9442 121.721 96.8861 121.707 96.8279 121.707C96.7989 121.794 96.7407 121.852 96.6681 121.91C96.5954 121.954 96.5082 121.983 96.421 121.983C96.2466 121.983 96.0867 121.867 96.0286 121.707C95.9704 121.707 95.9123 121.721 95.8687 121.75C95.8251 121.779 95.7815 121.823 95.7524 121.867C95.7088 121.968 95.6797 122.085 95.6943 122.201C95.7088 122.317 95.7379 122.419 95.796 122.521C95.9559 122.768 96.1594 122.971 96.4065 123.146H96.4791C96.5663 123.087 96.639 123.015 96.7262 122.957C96.8716 122.84 97.0024 122.695 97.0896 122.535C97.1622 122.448 97.2058 122.332 97.2204 122.215C97.2349 122.099 97.2204 121.983 97.1768 121.881L97.1041 121.867ZM105.243 121.867C105.214 121.823 105.171 121.779 105.127 121.75C105.083 121.721 105.025 121.707 104.953 121.707C104.865 121.707 104.778 121.736 104.72 121.794C104.735 121.881 104.691 121.968 104.604 121.983C104.517 121.997 104.429 121.954 104.415 121.867C104.415 121.838 104.415 121.823 104.415 121.794C104.342 121.75 104.255 121.721 104.182 121.707C104.066 121.707 103.95 121.765 103.892 121.867C103.79 122.07 103.804 122.317 103.935 122.506C104.095 122.753 104.299 122.971 104.546 123.131H104.604C104.691 123.073 104.764 123 104.851 122.942C104.996 122.826 105.113 122.681 105.214 122.521C105.287 122.433 105.331 122.317 105.345 122.201C105.36 122.085 105.345 121.968 105.316 121.867H105.243ZM68.5441 116.605C68.515 116.562 68.4714 116.518 68.4278 116.489C68.3842 116.46 68.3261 116.445 68.2679 116.445C68.2389 116.533 68.1807 116.591 68.108 116.649C67.9191 116.78 67.6575 116.736 67.5267 116.547C67.5121 116.518 67.4831 116.489 67.4831 116.445C67.3668 116.445 67.2505 116.503 67.1924 116.605C67.1488 116.707 67.1197 116.823 67.1342 116.939C67.1488 117.056 67.1779 117.157 67.236 117.259C67.3959 117.506 67.5993 117.71 67.8464 117.884H67.9191C68.0063 117.826 68.0935 117.768 68.1662 117.695C68.3115 117.579 68.4278 117.434 68.5295 117.274C68.6022 117.187 68.6458 117.07 68.6604 116.954C68.6749 116.838 68.6604 116.721 68.6313 116.62H68.5441V116.605ZM76.6979 116.605C76.6688 116.562 76.6252 116.518 76.5816 116.489C76.538 116.46 76.4798 116.445 76.4217 116.445C76.3345 116.445 76.2473 116.474 76.1892 116.532C76.1165 116.576 76.0583 116.649 76.0293 116.736C75.9566 116.576 75.8113 116.46 75.6368 116.46C75.5787 116.46 75.5206 116.474 75.477 116.503C75.4334 116.532 75.3898 116.576 75.3607 116.62C75.3171 116.721 75.288 116.838 75.3026 116.954C75.3171 117.07 75.3462 117.172 75.4043 117.274C75.5642 117.521 75.7677 117.739 76.0147 117.899H76.0729C76.1601 117.841 76.2328 117.782 76.32 117.71C76.4653 117.594 76.5816 117.448 76.6833 117.288C76.8287 117.099 76.8723 116.852 76.7996 116.634H76.6979V116.605ZM84.8371 116.605C84.808 116.562 84.7644 116.518 84.7208 116.489C84.6627 116.46 84.6191 116.445 84.5464 116.445C84.4592 116.445 84.372 116.474 84.3139 116.532C84.3284 116.62 84.2848 116.707 84.1976 116.721C84.1104 116.736 84.0232 116.692 84.0086 116.605C84.0086 116.576 84.0086 116.562 84.0086 116.532C83.936 116.489 83.8488 116.46 83.7616 116.445C83.7034 116.445 83.6453 116.46 83.6017 116.489C83.5581 116.518 83.5145 116.562 83.4854 116.605C83.4418 116.707 83.4127 116.823 83.4127 116.939C83.4273 117.056 83.4563 117.157 83.5145 117.259C83.6744 117.506 83.8778 117.71 84.1249 117.884H84.1976C84.1976 117.884 84.3139 117.797 84.4447 117.695C84.59 117.579 84.7208 117.434 84.808 117.274C84.9534 117.085 84.997 116.838 84.9243 116.62H84.8371V116.605ZM92.9909 116.605C92.9618 116.562 92.9182 116.518 92.8746 116.489C92.831 116.46 92.7729 116.445 92.7147 116.445C92.5403 116.46 92.3804 116.562 92.3223 116.721C92.2932 116.649 92.2351 116.576 92.1624 116.518C92.0898 116.474 92.0025 116.445 91.9299 116.431C91.8717 116.431 91.8136 116.445 91.7555 116.474C91.7119 116.503 91.6683 116.547 91.6392 116.591C91.5374 116.794 91.552 117.041 91.6828 117.245C91.8427 117.492 92.0461 117.71 92.2932 117.87H92.3514C92.4386 117.812 92.5112 117.753 92.5985 117.681C92.7438 117.564 92.8601 117.419 92.9618 117.259C93.0345 117.172 93.0781 117.07 93.1072 116.954C93.1362 116.838 93.1217 116.721 93.0926 116.605H92.9909ZM101.145 116.605C101.087 116.503 100.97 116.445 100.854 116.445C100.767 116.445 100.68 116.474 100.621 116.532C100.549 116.576 100.491 116.649 100.462 116.736C100.432 116.663 100.374 116.591 100.302 116.532C100.229 116.489 100.142 116.46 100.055 116.445C99.9964 116.445 99.9383 116.46 99.8947 116.489C99.8511 116.518 99.8075 116.562 99.7784 116.605C99.7348 116.707 99.7058 116.823 99.7203 116.939C99.7348 117.056 99.7639 117.157 99.822 117.259C99.9819 117.506 100.185 117.724 100.432 117.884H100.505C100.592 117.826 100.665 117.768 100.752 117.695C100.898 117.579 101.014 117.434 101.116 117.274C101.188 117.187 101.246 117.085 101.261 116.969C101.29 116.852 101.275 116.736 101.246 116.62H101.145V116.605ZM109.008 116.445C108.921 116.445 108.833 116.474 108.761 116.532C108.688 116.576 108.63 116.649 108.601 116.736C108.572 116.649 108.514 116.591 108.441 116.532C108.368 116.489 108.281 116.46 108.194 116.445C108.136 116.445 108.078 116.46 108.034 116.489C107.99 116.518 107.947 116.562 107.918 116.605C107.816 116.809 107.83 117.056 107.961 117.259C108.121 117.506 108.325 117.724 108.572 117.884H108.63C108.848 117.492 109.066 117.07 109.269 116.605C109.255 116.562 109.226 116.532 109.197 116.503C109.168 116.474 109.124 116.46 109.08 116.445H109.008ZM64.4309 132.317C64.3727 132.215 64.2564 132.142 64.1402 132.142C63.9658 132.157 63.8059 132.273 63.7477 132.433C63.7187 132.36 63.6605 132.288 63.5879 132.23C63.5152 132.171 63.4425 132.142 63.3553 132.142C63.2972 132.142 63.239 132.157 63.1809 132.186C63.1373 132.215 63.0937 132.259 63.0646 132.302C62.9629 132.506 62.9774 132.753 63.1082 132.942C63.2681 133.189 63.4716 133.392 63.7187 133.552H63.7768C63.864 133.494 63.9512 133.436 64.0239 133.363C64.1692 133.247 64.2855 133.102 64.3872 132.942C64.4599 132.855 64.5181 132.753 64.5471 132.637C64.5762 132.52 64.5762 132.404 64.5326 132.302L64.4309 132.317ZM72.5846 132.317C72.5556 132.259 72.512 132.23 72.4684 132.201C72.4248 132.171 72.3666 132.157 72.3085 132.157C72.2213 132.157 72.1341 132.186 72.0759 132.244C72.0033 132.288 71.9451 132.36 71.9161 132.448C71.887 132.36 71.8288 132.302 71.7562 132.244C71.6835 132.201 71.5963 132.171 71.5091 132.157C71.3928 132.157 71.2765 132.215 71.2184 132.331C71.1748 132.433 71.1457 132.549 71.1603 132.666C71.1748 132.782 71.2039 132.884 71.262 132.985C71.4219 133.232 71.6254 133.436 71.8724 133.596H71.9451C72.0323 133.538 72.105 133.48 72.1922 133.407C72.3375 133.291 72.4684 133.145 72.5556 132.985C72.7154 132.811 72.7736 132.564 72.7009 132.346H72.5846V132.317ZM80.7239 132.317C80.6657 132.215 80.5495 132.142 80.4332 132.142C80.2588 132.157 80.0989 132.259 80.0408 132.433C80.0117 132.346 79.9536 132.288 79.8809 132.23C79.8082 132.171 79.7355 132.142 79.6483 132.142C79.5902 132.142 79.5321 132.157 79.4739 132.186C79.4303 132.215 79.3867 132.259 79.3576 132.302C79.2559 132.506 79.2704 132.753 79.4013 132.942C79.5611 133.189 79.7646 133.392 80.0117 133.552H80.0698C80.157 133.494 80.2442 133.436 80.3169 133.363C80.4623 133.247 80.5785 133.102 80.6803 132.942C80.7529 132.855 80.8111 132.753 80.8401 132.637C80.8692 132.52 80.8692 132.404 80.8401 132.288L80.7239 132.317ZM88.8777 132.317C88.8195 132.215 88.7032 132.142 88.587 132.142C88.4126 132.157 88.2527 132.273 88.1945 132.433C88.1655 132.36 88.1073 132.288 88.0347 132.244C87.962 132.201 87.8748 132.171 87.8021 132.157C87.744 132.157 87.6858 132.171 87.6422 132.201C87.5986 132.23 87.555 132.273 87.526 132.317C87.4242 132.52 87.4533 132.767 87.5696 132.956C87.7294 133.203 87.9329 133.407 88.18 133.567H88.2381C88.3254 133.509 88.4126 133.451 88.4852 133.378C88.6306 133.262 88.7468 133.116 88.8486 132.956C88.9358 132.869 88.9794 132.767 89.023 132.651C89.0521 132.535 89.0521 132.419 89.023 132.302L88.8777 132.317ZM97.0314 132.317C97.0024 132.259 96.9588 132.23 96.9152 132.201C96.8716 132.171 96.8134 132.157 96.7553 132.157C96.6826 132.375 96.4501 132.491 96.232 132.419C96.1884 132.404 96.1594 132.389 96.1158 132.36C96.0431 132.302 95.9995 132.23 95.9704 132.157C95.8542 132.157 95.7379 132.215 95.6943 132.331C95.5925 132.535 95.6071 132.782 95.7379 132.971C95.8978 133.218 96.1012 133.421 96.3483 133.581H96.421C96.5082 133.523 96.5809 133.465 96.6681 133.392C96.8134 133.276 96.9442 133.131 97.0314 132.971C97.1913 132.796 97.264 132.549 97.1913 132.331H97.0314V132.317ZM105.171 132.317C105.142 132.273 105.098 132.23 105.054 132.201C105.011 132.171 104.953 132.157 104.895 132.157C104.807 132.171 104.72 132.201 104.662 132.244C104.589 132.288 104.531 132.36 104.502 132.433C104.473 132.346 104.415 132.288 104.342 132.23C104.27 132.171 104.197 132.142 104.11 132.142C104.052 132.142 103.993 132.157 103.935 132.186C103.892 132.215 103.848 132.259 103.819 132.302C103.775 132.404 103.746 132.52 103.761 132.637C103.775 132.753 103.804 132.855 103.863 132.956C104.022 133.203 104.226 133.407 104.473 133.567H104.531C104.618 133.509 104.706 133.451 104.778 133.378C104.924 133.262 105.04 133.116 105.142 132.956C105.229 132.869 105.287 132.767 105.316 132.651C105.345 132.535 105.345 132.419 105.316 132.302H105.171V132.317ZM60.3176 127.07C60.2886 127.026 60.245 126.983 60.2014 126.954C60.1577 126.925 60.0996 126.91 60.0415 126.91C59.9543 126.91 59.8671 126.939 59.8089 126.997C59.7363 127.041 59.6781 127.114 59.649 127.201C59.62 127.114 59.5618 127.055 59.4892 126.997C59.4165 126.954 59.3293 126.925 59.2421 126.91C59.1839 126.91 59.1258 126.925 59.0822 126.954C59.0386 126.983 58.995 127.026 58.9659 127.07C58.9223 127.172 58.8933 127.288 58.9078 127.404C58.9078 127.52 58.9514 127.622 59.0095 127.724C59.1694 127.971 59.3729 128.189 59.62 128.349H59.6781C59.7653 128.291 59.838 128.218 59.9252 128.16C60.0705 128.044 60.2014 127.884 60.2886 127.724C60.3758 127.637 60.4339 127.535 60.463 127.419C60.492 127.302 60.492 127.186 60.463 127.07H60.3176ZM68.4714 127.07C68.4423 127.012 68.3987 126.983 68.3551 126.954C68.3115 126.925 68.2534 126.91 68.1953 126.91C68.1662 126.997 68.108 127.055 68.0354 127.114C67.9627 127.157 67.8755 127.186 67.7883 127.186C67.7011 127.186 67.6139 127.157 67.5412 127.114C67.4685 127.07 67.4104 126.997 67.3813 126.91C67.3232 126.91 67.2651 126.925 67.2214 126.954C67.1778 126.983 67.1342 127.026 67.1052 127.07C67.0034 127.273 67.018 127.52 67.1488 127.709C67.3087 127.957 67.5121 128.16 67.7592 128.334H67.8319C67.8319 128.334 67.9482 128.247 68.079 128.145C68.2243 128.015 68.3406 127.869 68.4423 127.709C68.6168 127.535 68.6749 127.288 68.6168 127.07H68.4714ZM76.6107 127.07C76.5816 127.026 76.538 126.983 76.4944 126.954C76.4362 126.925 76.3926 126.91 76.32 126.91C76.2328 126.91 76.1455 126.939 76.0874 126.997C76.0147 127.041 75.9566 127.114 75.9275 127.201C75.8985 127.128 75.8403 127.055 75.7677 126.997C75.695 126.954 75.6078 126.925 75.5206 126.91C75.4624 126.91 75.4043 126.925 75.3607 126.954C75.3026 126.983 75.2735 127.026 75.2444 127.07C75.1427 127.273 75.1717 127.52 75.288 127.709C75.4479 127.957 75.6514 128.175 75.8985 128.334H75.9566C75.9566 128.334 76.0729 128.247 76.2037 128.145C76.349 128.015 76.4653 127.869 76.5671 127.709C76.6543 127.637 76.7124 127.535 76.756 127.419C76.7851 127.302 76.7996 127.186 76.7705 127.07H76.6107ZM84.7644 127.07C84.7354 127.026 84.6918 126.983 84.6482 126.954C84.6046 126.925 84.5464 126.91 84.4883 126.91C84.4011 126.91 84.3139 126.939 84.2557 126.997C84.1831 127.041 84.1395 127.114 84.0958 127.201C84.0232 127.041 83.8778 126.925 83.6889 126.925C83.6308 126.925 83.5726 126.939 83.529 126.968C83.4854 126.997 83.4418 127.041 83.4127 127.084C83.311 127.288 83.3255 127.535 83.4563 127.724C83.6162 127.971 83.8197 128.175 84.0668 128.349H84.1395C84.2267 128.291 84.2993 128.218 84.3865 128.16C84.5319 128.044 84.6627 127.884 84.7499 127.724C84.8371 127.651 84.8952 127.55 84.9388 127.433C84.9679 127.317 84.9824 127.201 84.9534 127.084H84.7644V127.07ZM92.9182 127.07C92.8891 127.026 92.8455 126.983 92.8019 126.954C92.7583 126.925 92.7002 126.91 92.6421 126.91C92.5548 126.91 92.4676 126.939 92.395 126.997C92.3223 127.041 92.2642 127.114 92.2351 127.201C92.206 127.128 92.1479 127.055 92.0752 126.997C92.0025 126.954 91.9299 126.925 91.8427 126.91C91.7845 126.91 91.7264 126.925 91.6683 126.954C91.6246 126.983 91.581 127.026 91.552 127.07C91.5084 127.172 91.4793 127.288 91.4938 127.404C91.5084 127.52 91.5374 127.622 91.5956 127.724C91.7555 127.971 91.9589 128.189 92.206 128.349H92.2642C92.2642 128.349 92.3804 128.262 92.5112 128.16C92.6566 128.029 92.7729 127.884 92.8746 127.724C93.049 127.564 93.1362 127.317 93.0781 127.084L92.9182 127.07ZM101.057 127.07C101.028 127.012 100.985 126.983 100.941 126.954C100.898 126.925 100.839 126.91 100.767 126.91C100.68 126.91 100.592 126.939 100.534 126.997C100.549 127.084 100.505 127.172 100.418 127.186C100.331 127.201 100.244 127.157 100.229 127.07C100.229 127.041 100.229 127.026 100.229 126.997C100.156 126.954 100.069 126.925 99.9819 126.91C99.9238 126.91 99.8656 126.925 99.822 126.954C99.7639 126.983 99.7348 127.026 99.7058 127.07C99.604 127.273 99.6331 127.52 99.7494 127.709C99.9092 127.957 100.113 128.175 100.36 128.334H100.418C100.505 128.276 100.578 128.204 100.665 128.145C100.81 128.029 100.941 127.869 101.028 127.709C101.116 127.637 101.188 127.535 101.217 127.419C101.261 127.302 101.261 127.186 101.232 127.07H101.057ZM107.83 127.128C107.801 127.23 107.787 127.332 107.801 127.433C107.816 127.535 107.845 127.637 107.903 127.724C107.918 127.753 107.932 127.782 107.961 127.811L107.83 127.128ZM56.3788 142.782C56.3497 142.723 56.3061 142.694 56.2625 142.665C56.2189 142.636 56.1608 142.622 56.1027 142.622C55.9282 142.622 55.7684 142.738 55.7102 142.898C55.6812 142.84 55.6521 142.796 55.6085 142.752C55.5358 143.174 55.4777 143.552 55.4341 143.872C55.5068 143.944 55.594 144.002 55.6812 144.061H55.7393L55.9864 143.872C56.1317 143.755 56.2625 143.595 56.3497 143.436C56.4515 143.232 56.466 142.985 56.3788 142.782ZM64.5326 142.782C64.5035 142.738 64.4599 142.694 64.4163 142.665C64.3727 142.636 64.3146 142.622 64.2564 142.622C64.1692 142.622 64.082 142.651 64.0239 142.709C63.9512 142.752 63.8931 142.825 63.864 142.898C63.8349 142.825 63.7768 142.752 63.7041 142.694C63.6315 142.651 63.5588 142.622 63.4716 142.607C63.4134 142.607 63.3553 142.622 63.2972 142.651C63.2536 142.68 63.21 142.723 63.1809 142.767C63.1373 142.869 63.1082 142.985 63.1228 143.101C63.1373 143.218 63.1664 143.319 63.2245 143.421C63.3844 143.668 63.5879 143.872 63.8349 144.032H63.8931C63.9803 143.973 64.053 143.915 64.1402 143.843C64.2855 143.726 64.4018 143.581 64.5035 143.421C64.5907 143.232 64.6198 142.985 64.5326 142.782ZM72.6718 142.782C72.6428 142.738 72.5992 142.694 72.5556 142.665C72.4974 142.636 72.4538 142.622 72.3811 142.622C72.2939 142.622 72.2067 142.651 72.1486 142.709C72.0759 142.752 72.0323 142.825 71.9887 142.912C71.9597 142.84 71.9015 142.767 71.8288 142.723C71.7562 142.68 71.6835 142.651 71.5963 142.636C71.5382 142.636 71.48 142.651 71.4364 142.68C71.3928 142.709 71.3492 142.752 71.3201 142.796C71.2765 142.898 71.2475 143.014 71.262 143.13C71.2765 143.247 71.3056 143.348 71.3637 143.45C71.5236 143.697 71.7271 143.901 71.9742 144.061H72.0469C72.0469 144.061 72.1631 143.973 72.2939 143.872C72.4393 143.755 72.5556 143.61 72.6573 143.45C72.7881 143.261 72.8027 143.014 72.7154 142.796L72.6718 142.782ZM80.8256 142.782C80.7966 142.738 80.7529 142.694 80.7093 142.665C80.6657 142.636 80.6076 142.622 80.5495 142.622C80.564 142.782 80.4477 142.912 80.2878 142.927C80.1425 142.941 80.0262 142.84 79.9972 142.709C79.9245 142.665 79.8373 142.636 79.7646 142.622C79.7065 142.622 79.6483 142.636 79.6047 142.665C79.5611 142.694 79.5175 142.738 79.4885 142.782C79.4449 142.883 79.4158 143 79.4303 143.116C79.4448 143.232 79.4739 143.334 79.5321 143.436C79.6919 143.683 79.8954 143.886 80.1425 144.046H80.2006C80.2878 143.988 80.3605 143.93 80.4477 143.857C80.5931 143.741 80.7093 143.595 80.8111 143.436C80.8692 143.334 80.9128 143.232 80.9274 143.116C80.9419 143 80.9274 142.883 80.8838 142.782H80.8256ZM88.9794 142.782C88.9503 142.738 88.9067 142.694 88.8631 142.665C88.8195 142.636 88.7614 142.622 88.7032 142.622C88.616 142.622 88.5288 142.651 88.4707 142.709C88.398 142.752 88.3399 142.825 88.3108 142.912C88.2817 142.84 88.2236 142.767 88.1509 142.723C88.0783 142.68 88.0056 142.651 87.9184 142.636C87.8602 142.636 87.8021 142.651 87.7585 142.68C87.7149 142.709 87.6713 142.752 87.6422 142.796C87.5986 142.898 87.5696 143.014 87.5841 143.13C87.5841 143.247 87.6277 143.348 87.6858 143.45C87.8457 143.697 88.0492 143.901 88.2963 144.061H88.3544C88.4416 144.002 88.5143 143.944 88.6015 143.872C88.7468 143.755 88.8777 143.61 88.9649 143.45C89.0375 143.363 89.0666 143.247 89.0811 143.13C89.0957 143.014 89.0811 142.898 89.0375 142.796H88.9794V142.782ZM97.1186 142.782C97.0896 142.738 97.046 142.694 97.0024 142.665C96.9442 142.636 96.9006 142.622 96.8279 142.622C96.7698 142.782 96.6099 142.898 96.4355 142.898C96.2611 142.898 96.1012 142.782 96.0431 142.622C95.9268 142.622 95.8105 142.68 95.7669 142.782C95.7233 142.883 95.6943 143 95.7088 143.116C95.7233 143.232 95.7524 143.334 95.8105 143.436C95.9704 143.683 96.1739 143.886 96.421 144.046H96.4937C96.5809 143.988 96.6535 143.93 96.7407 143.857C96.8861 143.741 97.0169 143.595 97.1041 143.436C97.2349 143.247 97.264 143 97.1768 142.782H97.1186ZM105.272 142.782C105.214 142.68 105.098 142.622 104.982 142.622C104.996 142.782 104.88 142.912 104.72 142.927C104.575 142.941 104.458 142.84 104.429 142.709C104.357 142.665 104.284 142.636 104.197 142.622C104.139 142.622 104.081 142.636 104.022 142.665C103.979 142.694 103.935 142.738 103.906 142.782C103.804 142.985 103.819 143.232 103.95 143.436C104.11 143.683 104.313 143.886 104.56 144.046H104.618C104.706 143.988 104.778 143.93 104.865 143.857C105.011 143.741 105.127 143.595 105.229 143.436C105.301 143.348 105.345 143.232 105.36 143.116C105.374 143 105.36 142.883 105.316 142.782H105.272ZM60.463 137.506C60.4048 137.404 60.2886 137.346 60.1723 137.346C60.0851 137.346 59.9979 137.375 59.9397 137.433C59.8671 137.477 59.8235 137.549 59.7799 137.622C59.7508 137.549 59.6926 137.477 59.62 137.433C59.5473 137.389 59.4746 137.36 59.3874 137.346C59.3293 137.346 59.2712 137.36 59.2275 137.389C59.1839 137.418 59.1403 137.462 59.1113 137.506C59.0677 137.607 59.0386 137.724 59.0531 137.84C59.0531 137.956 59.0967 138.058 59.1549 138.16C59.3148 138.407 59.5182 138.61 59.7653 138.785H59.8235C59.9107 138.726 59.9979 138.668 60.0705 138.596C60.2159 138.479 60.3467 138.334 60.4339 138.174C60.5211 137.956 60.5502 137.724 60.463 137.506ZM68.6022 137.506C68.5441 137.404 68.4423 137.346 68.3261 137.346C68.297 137.433 68.2389 137.491 68.1662 137.549C68.0935 137.593 68.0063 137.622 67.9191 137.622C67.8319 137.622 67.7447 137.593 67.672 137.549C67.5993 137.506 67.5412 137.433 67.5121 137.346C67.454 137.346 67.3959 137.36 67.3377 137.389C67.2796 137.418 67.2505 137.462 67.2214 137.506C67.1778 137.607 67.1488 137.724 67.1633 137.84C67.1633 137.956 67.2069 138.058 67.2651 138.16C67.4249 138.407 67.6284 138.61 67.8755 138.785H67.9482C68.0354 138.726 68.1226 138.668 68.1953 138.596C68.3406 138.479 68.4569 138.334 68.5586 138.174C68.6167 138.072 68.6604 137.971 68.6604 137.854C68.6749 137.724 68.6603 137.607 68.6022 137.506ZM76.756 137.506C76.7269 137.462 76.6833 137.418 76.6397 137.389C76.5961 137.36 76.538 137.346 76.4798 137.346C76.3926 137.346 76.3054 137.375 76.2473 137.433C76.1746 137.477 76.131 137.549 76.0874 137.622C76.0583 137.549 76.0002 137.477 75.9275 137.433C75.8549 137.389 75.7822 137.36 75.695 137.346C75.6369 137.346 75.5787 137.36 75.5206 137.389C75.477 137.418 75.4334 137.462 75.4043 137.506C75.3607 137.607 75.3316 137.724 75.3462 137.84C75.3462 137.956 75.3898 138.058 75.4479 138.16C75.6078 138.407 75.8113 138.61 76.0583 138.785H76.1165C76.2037 138.726 76.2909 138.668 76.3636 138.596C76.5089 138.479 76.6397 138.334 76.7269 138.174C76.7851 138.072 76.8287 137.971 76.8432 137.854C76.8577 137.738 76.8287 137.622 76.7851 137.52L76.756 137.506ZM84.9098 137.506C84.8516 137.404 84.7354 137.346 84.6191 137.346C84.4447 137.346 84.2848 137.462 84.2121 137.622C84.1831 137.549 84.1249 137.477 84.0522 137.433C83.9796 137.389 83.9069 137.36 83.8197 137.346C83.7616 137.346 83.7034 137.36 83.6598 137.389C83.6162 137.418 83.5726 137.462 83.5435 137.506C83.4999 137.607 83.4709 137.724 83.4709 137.84C83.4709 137.956 83.5145 138.058 83.5726 138.16C83.7325 138.407 83.936 138.61 84.1831 138.785H84.2557C84.3429 138.726 84.4156 138.668 84.4883 138.596C84.6336 138.479 84.7644 138.334 84.8516 138.174C84.9824 137.971 84.997 137.724 84.9098 137.506ZM93.049 137.506C92.9909 137.404 92.8746 137.346 92.7583 137.346C92.6711 137.346 92.5985 137.389 92.5258 137.433C92.4531 137.477 92.395 137.549 92.3659 137.622C92.2932 137.462 92.1479 137.346 91.9735 137.346C91.8572 137.346 91.7409 137.404 91.6828 137.506C91.6392 137.607 91.6101 137.724 91.6246 137.84C91.6246 137.956 91.6683 138.058 91.7264 138.16C91.8863 138.407 92.0898 138.61 92.3368 138.785H92.395C92.4822 138.726 92.5694 138.668 92.6421 138.596C92.7874 138.479 92.9037 138.334 93.0054 138.174C93.0781 138.087 93.1072 137.971 93.1217 137.854C93.1362 137.738 93.1217 137.622 93.0781 137.52L93.049 137.506ZM101.203 137.506C101.174 137.447 101.13 137.418 101.087 137.389C101.043 137.36 100.985 137.346 100.927 137.346C100.839 137.346 100.752 137.375 100.694 137.433C100.621 137.477 100.578 137.549 100.534 137.622C100.505 137.549 100.447 137.477 100.374 137.433C100.302 137.389 100.229 137.36 100.142 137.346C100.084 137.346 100.026 137.36 99.9819 137.389C99.9383 137.418 99.8947 137.462 99.8656 137.506C99.822 137.607 99.793 137.724 99.8075 137.84C99.822 137.956 99.8511 138.058 99.9092 138.16C100.069 138.407 100.273 138.61 100.52 138.785H100.578C100.665 138.726 100.752 138.668 100.825 138.596C100.97 138.479 101.087 138.334 101.188 138.174C101.319 137.985 101.348 137.738 101.261 137.52L101.203 137.506ZM109.342 137.506C109.313 137.462 109.269 137.418 109.226 137.389C109.182 137.36 109.124 137.346 109.066 137.346C109.037 137.433 108.979 137.491 108.906 137.549C108.761 137.651 108.572 137.651 108.426 137.549C108.354 137.506 108.296 137.433 108.266 137.346C108.208 137.346 108.15 137.36 108.092 137.389C108.048 137.418 108.005 137.462 107.976 137.506C107.874 137.709 107.889 137.956 108.019 138.16C108.179 138.407 108.383 138.625 108.63 138.785H108.703C108.79 138.726 108.862 138.668 108.95 138.596C109.095 138.479 109.211 138.334 109.313 138.174C109.444 137.985 109.487 137.738 109.4 137.52L109.342 137.506Z" fill="white"/>
<path d="M111.144 109.512C110.621 107.361 109.429 105.399 108.383 103.495C107.278 101.46 106.115 99.4692 104.923 97.4925L104.793 97.289C104.604 96.6495 104.313 96.039 104.066 95.4286C103.761 94.6437 103.426 93.8734 103.107 93.074C103.107 93.045 103.049 93.074 103.063 93.074C103.31 93.888 103.543 94.7164 103.862 95.5158L104.095 96.1408C103.688 95.4867 103.296 94.8327 102.874 94.1786C102.162 93.074 101.435 91.984 100.709 90.8794C100.709 90.8503 100.65 90.8793 100.665 90.9084C101.799 92.856 102.889 94.8182 104.022 96.7658C105.156 98.7134 106.261 100.661 107.336 102.652C107.859 103.641 108.368 104.629 108.862 105.632C109.342 106.576 109.778 107.55 110.141 108.539C110.81 110.472 110.824 112.565 110.185 114.498C109.502 116.692 108.266 118.684 107.118 120.66C107.075 120.733 107.191 120.835 107.249 120.762C109.705 117.55 112.162 113.727 111.144 109.512Z" fill="#263238"/>
<path d="M132.597 145.659C129.007 150.616 119.458 151.415 95.5781 155.674C92.2642 156.269 81.8431 134.061 85.3313 133.262C89.7352 132.23 107.046 129.221 108.339 129.163C119.255 128.669 135.024 142.302 132.597 145.659Z" fill="#F0BCB3"/>
<path d="M90.113 132.273C90.113 132.273 79.997 133.625 74.91 135.979C68.0934 139.133 63.5005 144.671 61.7273 147.098C58.0066 152.185 52.5271 167.025 56.524 169.365C60.1431 171.472 64.983 155.993 64.983 155.993C64.983 155.993 57.4542 170.949 62.2797 172.679C67.1051 174.408 71.6834 156.139 71.6834 156.139C71.6834 156.139 64.2854 171.676 69.5468 172.679C73.5292 173.435 78.6163 157.112 78.6163 157.112C78.6163 157.112 72.352 170.513 76.4071 171.458C80.9127 172.49 86.5375 157.752 86.5375 157.752C97.2639 158.435 102.642 154.395 106.115 151.037C106.987 150.238 90.113 132.273 90.113 132.273Z" fill="#F0BCB3"/>
<path d="M118.876 131.852C117.292 130.849 112.801 128.494 108.382 129.134C108.368 129.134 108.339 129.148 108.339 129.177C108.339 129.192 108.339 129.192 108.353 129.206C108.368 129.221 108.368 129.221 108.382 129.221C112.031 129.221 117.234 131.067 118.847 131.924C118.876 131.939 118.905 131.881 118.876 131.852Z" fill="#263238"/>
<path d="M85.7817 83.1035C86.0288 84.0191 90.5926 89.9056 94.8221 89.5858C96.2029 89.4841 95.9558 81.9553 95.9558 81.9553L96.072 81.3884L97.5982 73.5544L88.2962 67.9296L86.959 67.1884C86.959 67.1884 86.6829 69.354 86.3631 72.0574C86.3486 72.1882 86.334 72.319 86.3195 72.4353C86.305 72.5661 86.2759 72.7259 86.2614 72.8713C86.2032 73.2782 86.1596 73.6852 86.116 74.0922C86.0869 74.4119 86.0433 74.7026 86.0288 75.0514C86.0143 75.4003 85.9707 75.7055 85.9416 76.0398C85.7236 78.4089 85.68 80.7489 85.7817 83.1035Z" fill="#F0BCB3"/>
<path d="M86.3633 72.0719C88.0783 76.4467 91.6247 79.8623 96.0722 81.3884L97.5983 73.5544L88.2964 67.9296L86.9592 67.1884C86.9592 67.2029 86.683 69.383 86.3633 72.0719Z" fill="#263238"/>
<path d="M109.182 60.2118C111.435 74.034 103.427 76.9554 100.433 77.435C97.7291 77.8711 88.4417 79.0338 84.779 65.5169C81.1164 51.9999 86.8284 46.5786 92.9619 45.256C99.0954 43.9333 106.929 46.3896 109.182 60.2118Z" fill="#F0BCB3"/>
<path d="M105.897 57.4064C105.578 57.3919 105.258 57.3628 104.938 57.3192C104.604 57.3338 104.255 57.232 103.979 57.0431C103.892 56.9705 103.848 56.8688 103.834 56.7525C103.819 56.6362 103.848 56.5345 103.906 56.4328C104.052 56.2584 104.226 56.1422 104.444 56.055C104.648 55.9823 104.88 55.9678 105.083 56.0114C105.534 56.0259 105.97 56.2148 106.29 56.52C106.362 56.5927 106.406 56.6944 106.42 56.7961C106.449 56.9995 106.362 57.2175 106.188 57.3338C106.101 57.3774 105.999 57.4064 105.897 57.4064Z" fill="#263238"/>
<path d="M96.9442 58.4819C97.2639 58.4093 97.5545 58.293 97.8597 58.1768C98.1939 58.1186 98.499 57.9443 98.7315 57.6972C98.8623 57.5083 98.8333 57.2467 98.6589 57.0869C98.3101 56.8108 97.8306 56.7527 97.4237 56.9271C96.9878 57.0433 96.6099 57.3194 96.3629 57.6972C96.2176 57.9588 96.3193 58.2785 96.5809 58.4238C96.6971 58.4819 96.8279 58.4965 96.9442 58.4819Z" fill="#263238"/>
<path d="M99.1969 61.7816C99.1969 61.738 99.1242 61.8397 99.1387 61.8688C99.2986 62.8278 99.3131 63.9177 98.5139 64.3391C98.4848 64.3391 98.5139 64.3972 98.5139 64.3972C99.5311 64.1066 99.4875 62.6535 99.1969 61.7816Z" fill="#263238"/>
<path d="M98.2084 60.9095C96.6681 60.9967 96.9732 64.0628 98.3828 63.9756C99.7923 63.8885 99.4872 60.8078 98.2084 60.9095Z" fill="#263238"/>
<path d="M97.6271 61.1275C97.3655 61.3309 97.1476 61.6651 96.8279 61.7233C96.5082 61.7814 96.1449 61.5053 95.8688 61.2147C95.8397 61.1856 95.8252 61.2147 95.8252 61.2583C95.8688 61.8395 96.1594 62.4208 96.7843 62.4498C97.4091 62.4789 97.7433 61.9122 97.816 61.3164C97.8451 61.2001 97.7288 61.0548 97.6271 61.1275Z" fill="#263238"/>
<path d="M104.633 60.8513C104.633 60.8077 104.706 60.8949 104.706 60.924C104.764 61.8831 104.982 62.9584 105.868 63.1909C105.897 63.1909 105.897 63.249 105.868 63.249C104.793 63.2054 104.517 61.7814 104.633 60.8513Z" fill="#263238"/>
<path d="M105.389 59.7903C106.915 59.5433 107.307 62.5949 105.897 62.8274C104.488 63.0599 104.11 59.9938 105.389 59.7903Z" fill="#263238"/>
<path d="M106.043 59.9066C106.305 60.0373 106.581 60.2989 106.871 60.2844C107.162 60.2699 107.409 59.9066 107.598 59.5578C107.598 59.5288 107.641 59.5578 107.641 59.5869C107.729 60.1681 107.612 60.793 107.075 60.9819C106.537 61.1708 106.116 60.6913 105.927 60.1245C105.883 60.0373 105.941 59.863 106.043 59.9066Z" fill="#263238"/>
<path d="M99.4877 69.2958C99.7202 69.5138 99.9672 69.8044 100.316 69.819C100.679 69.8044 101.013 69.7027 101.333 69.5283H101.348C101.362 69.5283 101.362 69.5283 101.362 69.5429L101.377 69.5574V69.5719C101.115 69.9643 100.665 70.1968 100.185 70.1532C99.7783 70.066 99.4732 69.7463 99.4005 69.3539C99.3569 69.2958 99.4296 69.2668 99.4877 69.2958Z" fill="#263238"/>
<path d="M103.485 65.2407C103.485 65.2407 103.834 66.6505 103.906 67.3191C102.656 67.7696 101.261 67.4935 100.273 66.6069C100.214 66.5487 100.302 66.4615 100.36 66.5051C101.275 66.9993 102.336 67.1737 103.368 67.0284C103.368 66.8394 102.685 64.6302 102.787 64.6302C103.31 64.6157 103.834 64.6883 104.357 64.8046C103.703 61.8687 102.598 59.049 102.002 56.1131C101.988 56.084 101.988 56.0695 102.002 56.0404C102.017 56.0113 102.031 55.9968 102.06 55.9968C102.089 55.9823 102.104 55.9823 102.133 55.9968C102.162 56.0113 102.177 56.0259 102.177 56.0404C103.543 58.9182 104.357 62.2756 105.098 65.2988C105.2 65.6767 103.761 65.3279 103.485 65.2407Z" fill="#263238"/>
<path d="M102.976 67.3335C102.656 67.8421 102.206 68.249 101.682 68.5396C101.392 68.685 101.058 68.7431 100.723 68.685C100.026 68.5687 99.9531 67.9438 100.026 67.3917C100.069 67.101 100.142 66.8104 100.258 66.5343C101.058 67.0865 102.017 67.3626 102.976 67.3335Z" fill="#263238"/>
<path d="M101.682 68.5398C101.392 68.6851 101.058 68.7432 100.723 68.6851C100.026 68.5688 99.9531 67.944 100.026 67.3918C100.781 67.3918 101.552 67.8277 101.682 68.5398Z" fill="#FF9ABB"/>
<path d="M85.2003 64.8047C87.8455 65.0372 88.2816 58.9909 88.2816 58.9909C88.2816 58.9909 99.4294 56.6654 100.04 47.4797C100.04 47.4797 102.191 53.2353 108.194 55.6335C108.194 55.6335 107.423 45.6338 99.4004 43.9914C99.4004 43.9914 89.4153 40.7794 84.1684 48.8023C78.9214 56.8253 83.4271 64.6448 85.2003 64.8047Z" fill="#263238"/>
<path d="M100.054 46.8112C100.243 48.221 100.127 49.6454 99.7202 50.9971C99.3277 52.3778 98.6446 53.6568 97.729 54.7615C97.4964 55.0376 97.2639 55.2992 97.0022 55.5463L96.6389 55.9387C96.5081 56.055 96.3627 56.1567 96.2174 56.273C95.9412 56.491 95.6651 56.7236 95.3744 56.9271C95.0837 57.1306 94.7639 57.2904 94.4587 57.4648C94.2988 57.5521 94.1535 57.6393 93.9791 57.7265L93.4995 57.9445L92.5402 58.366C91.8716 58.584 91.1885 58.7584 90.5054 58.9328C91.1449 58.6276 91.7844 58.395 92.4239 58.0898L93.3396 57.6102L93.7901 57.3631C93.9355 57.2759 94.0808 57.1596 94.2116 57.0724C94.4878 56.8689 94.7785 56.68 95.0546 56.491C95.3162 56.2876 95.5779 56.055 95.8395 55.837L96.2319 55.5172L96.5807 55.1539C96.8133 54.9213 97.0458 54.6597 97.2638 54.3981C98.1359 53.3516 98.819 52.1598 99.2841 50.8808C99.5167 50.2413 99.7056 49.5727 99.8364 48.9041C99.9527 48.1919 100.04 47.4943 100.054 46.8112Z" fill="#263238"/>
<path d="M87.1481 65.7349C87.1481 65.7349 83.7761 61.6071 81.8866 62.8571C79.9972 64.107 82.7587 70.2405 85.1423 70.9237C86.3632 71.3742 87.7294 70.7492 88.18 69.5138C88.1945 69.4848 88.2091 69.4557 88.2091 69.4121L87.1481 65.7349Z" fill="#F0BCB3"/>
<path d="M82.715 64.5867C82.686 64.5867 82.6714 64.6448 82.715 64.6448C84.3865 65.1826 85.3603 66.6215 86.0725 68.1476C85.5347 67.5807 84.8516 67.3046 84.0958 67.9296C84.0812 67.9441 84.0812 67.9877 84.0958 68.0022C84.1103 68.0168 84.1249 68.0168 84.1394 68.0168C84.7062 67.7842 85.3603 67.9441 85.7818 68.4092C86.1161 68.7871 86.4067 69.2086 86.6393 69.6446C86.7265 69.79 86.9881 69.6882 86.9154 69.5284V69.4993C86.7992 67.4063 84.9678 64.6448 82.715 64.5867Z" fill="#263238"/>
<path d="M86.4505 70.1968C86.4505 70.4293 86.3197 70.6328 86.1017 70.7345C86 70.7781 85.8838 70.7926 85.7675 70.7636C85.4624 70.7054 85.2589 70.4003 85.317 70.0951C85.317 70.0661 85.3316 70.0225 85.3461 69.9934C85.3897 69.8917 85.4624 69.8045 85.5641 69.7318C85.8257 69.5575 86.1744 69.6301 86.3633 69.8917C86.4214 69.9789 86.4505 70.0806 86.4505 70.1968Z" fill="white"/>
<path d="M84.6481 69.6735C84.8661 69.6735 85.055 69.4846 85.055 69.2666C85.055 69.0486 84.8661 68.8597 84.6481 68.8597C84.4301 68.8597 84.2412 69.0486 84.2412 69.2666C84.2412 69.4846 84.4301 69.6735 84.6481 69.6735Z" fill="white"/>
<path d="M81.9152 63.8454L81.0578 63.7728C80.898 63.7582 80.7672 63.8745 80.7527 64.0343V64.0634C80.7382 64.2232 80.8544 64.354 81.0143 64.3686L81.8861 64.4412C82.046 64.4557 82.1768 64.3395 82.1913 64.1797V64.1506C82.1768 63.9907 82.0605 63.86 81.9152 63.8454Z" fill="#FE5621"/>
<path d="M81.8719 64.2669L81.0145 64.3832C80.8547 64.4122 80.753 64.543 80.7675 64.7029V64.7319C80.7966 64.8918 80.9273 64.9935 81.0872 64.979L81.9445 64.8627C82.1044 64.8336 82.2061 64.7029 82.1916 64.543V64.514C82.177 64.3686 82.0317 64.2524 81.8719 64.2669Z" fill="#FE5621"/>
<path d="M81.509 56.244L80.7241 57.5084L84.7937 61.1856L86.5233 58.3078L81.509 56.244ZM84.6193 59.7903L81.7706 57.5084L81.945 57.2032L85.2443 58.7875L84.6193 59.7903Z" fill="#FE5621"/>
<path d="M81.9447 53.9039L81.6831 55.3864L86.8428 57.2613L87.366 53.962L81.9447 53.9039ZM86.1597 56.0114L82.6569 54.9649L82.7151 54.6161L86.3632 54.8486L86.1597 56.0114Z" fill="#FE5621"/>
<path d="M86.959 45.6484C88.0346 45.256 89.0374 39.2824 85.1277 36.4481C81.218 33.6139 76.1891 36.8551 78.282 41.7241C79.6192 44.8199 84.7062 46.4914 86.959 45.6484Z" fill="#263238"/>
<path d="M79.6339 36.0993C78.4712 37.0731 77.6863 38.3957 77.3811 39.8782C77.0613 41.2735 77.5119 42.7415 78.5729 43.7153C79.6775 44.6891 81.0147 45.3577 82.4681 45.6338C83.2094 45.7937 83.9506 45.8809 84.7064 45.91C85.4622 45.9681 86.2325 45.8809 86.9592 45.6629C86.2761 46.0408 85.5058 46.2734 84.721 46.3315C83.9361 46.4187 83.1367 46.4042 82.3519 46.2879C80.724 46.1135 79.1979 45.4449 77.977 44.3694C77.3666 43.788 76.916 43.0467 76.6835 42.2328C76.48 41.4189 76.4945 40.5614 76.7271 39.762C77.1631 38.1777 78.2096 36.8551 79.6339 36.0993Z" fill="#263238"/>
<path d="M122.35 100.254L129.022 99.3528L126.42 80.0367L117.976 81.1704L122.35 100.254Z" fill="#FE5621"/>
<path d="M117.976 81.1849L119.647 88.4667L122.35 100.269L129.022 99.3674L126.42 80.0513L117.976 81.1849Z" fill="#FE5621"/>
<path opacity="0.1" d="M117.976 81.1849L119.647 88.4667L127.423 87.4202L126.42 80.0513L117.976 81.1849Z" fill="#10253F"/>
<path d="M117.568 84.1499L128.077 82.7256L127.001 74.7462L116.493 76.1706L117.568 84.1499Z" fill="#FE5621"/>
<path d="M109.066 74.1939L117.336 73.9032L115.592 60.9967L107.554 62.9152L109.066 74.1939Z" fill="#FE5621"/>
<path d="M119.443 57.8718L122.016 76.9264L135.925 76.7229L169.34 84.1354L163.163 38.3812L132.917 54.3981L119.443 57.8718Z" fill="#FE5621"/>
<path d="M170.11 84.1354C174.194 83.5831 176.113 72.8422 174.398 60.1392C172.683 47.4361 167.988 37.5964 163.904 38.1487C159.82 38.701 157.901 49.4419 159.616 62.1449C161.331 74.848 166.026 84.6877 170.11 84.1354Z" fill="#FE5621"/>
<path opacity="0.2" d="M170.081 81.1123C173.424 80.6617 174.907 71.1563 173.38 59.8921C171.854 48.628 167.915 39.8492 164.573 40.2998C161.23 40.7504 159.762 50.2558 161.273 61.5345C162.785 72.8132 166.738 81.5629 170.081 81.1123Z" fill="#10253F"/>
<path d="M162.276 61.3891C162.479 62.8861 162.712 64.3396 163.003 65.7349C165.183 67.043 168.003 66.3453 169.325 64.1797C169.863 63.2786 170.081 62.2321 169.95 61.1856L169.659 59.0345C169.311 56.5201 166.985 54.7614 164.471 55.1103C163.453 55.2556 162.509 55.7207 161.796 56.462C161.869 58.0462 162.029 59.7031 162.276 61.3891Z" fill="#FE5621"/>
<path d="M114.778 78.9756L130.765 78.4233L127.393 53.4533L111.827 57.1596L114.778 78.9756Z" fill="#FE5621"/>
<path opacity="0.2" d="M114.778 78.9756L130.765 78.4233L127.393 53.4533L111.827 57.1596L114.778 78.9756Z" fill="#10253F"/>
<path opacity="0.2" d="M161.448 41.7968C160.561 43.2938 159.937 44.9507 159.646 46.6658C159.297 48.3808 159.094 50.1104 159.021 51.8545C158.963 52.7266 158.977 53.5987 158.963 54.4707C158.948 55.3428 159.006 56.2148 159.064 57.0724C159.123 57.9299 159.181 58.8165 159.268 59.674C159.355 60.5315 159.457 61.4036 159.573 62.2611C160.024 65.7203 160.794 69.1214 161.87 72.4352C162.422 74.0921 163.12 75.6909 163.948 77.2315C164.82 78.7286 165.823 80.2111 167.247 81.2285C165.954 80.0803 164.907 78.685 164.181 77.1153C163.41 75.5746 162.756 73.9758 162.262 72.3189C161.245 69.0196 160.518 65.6186 160.096 62.1885C159.573 58.7729 159.341 55.3137 159.399 51.8545C159.428 50.1249 159.588 48.4099 159.878 46.6948C160.125 44.9943 160.649 43.3374 161.448 41.7968Z" fill="#10253F"/>
<path d="M178.192 38.5266C177.232 39.2387 176.273 39.9655 175.357 40.7503C174.442 41.5352 173.512 42.2909 172.61 43.0903C171.709 43.8897 170.808 44.6891 169.951 45.5176L168.657 46.7675C168.236 47.2036 167.8 47.6105 167.393 48.0611C167.872 47.7123 168.352 47.3344 168.831 46.971L170.241 45.8373C171.172 45.0815 172.087 44.2967 172.988 43.4973C173.889 42.6979 174.776 41.8985 175.648 41.0701C176.52 40.2416 177.363 39.3986 178.192 38.5266Z" fill="#263238"/>
<path d="M170.066 73.3655C171.36 73.7579 172.683 74.0922 173.991 74.4265C175.299 74.7608 176.621 75.0515 177.944 75.3421C179.267 75.6328 180.589 75.8945 181.926 76.1415L183.932 76.4904C184.601 76.5921 185.269 76.7084 185.952 76.7811C185.298 76.5776 184.644 76.4177 183.99 76.2287L182.028 75.7346C180.72 75.4003 179.397 75.1096 178.075 74.8189C176.752 74.5282 175.43 74.2666 174.092 74.0195C172.755 73.7724 171.418 73.5399 170.066 73.3655Z" fill="#263238"/>
<path d="M195.182 69.6446C193.206 69.4121 191.214 69.2377 189.238 69.0632C187.261 68.8888 185.27 68.758 183.293 68.6272C181.316 68.4964 179.325 68.3947 177.334 68.322L174.354 68.2057C173.366 68.2057 172.363 68.1476 171.36 68.1476C172.349 68.2639 173.337 68.3656 174.325 68.4673L177.29 68.729C179.282 68.9034 181.258 69.0342 183.249 69.165C185.241 69.2958 187.217 69.3975 189.209 69.4702C191.2 69.5429 193.191 69.6446 195.182 69.6446Z" fill="#263238"/>
<path d="M189.281 39.3696C187.537 40.387 185.822 41.4625 184.121 42.5381C182.421 43.6136 180.735 44.7182 179.049 45.8374C177.363 46.9565 175.691 48.0757 174.035 49.2384L171.549 50.968C170.735 51.5639 169.907 52.1453 169.107 52.7557C169.979 52.247 170.837 51.7092 171.709 51.186L174.282 49.5727C175.982 48.4971 177.668 47.3925 179.354 46.2734C181.04 45.1542 182.712 44.0206 184.369 42.8723C186.025 41.7241 187.653 40.5759 189.281 39.3696Z" fill="#263238"/>
<path d="M170.866 60.4589C173.192 60.2409 175.503 59.9502 177.814 59.6595C180.125 59.3688 182.436 59.0345 184.747 58.7002C187.057 58.3659 189.354 58.0026 191.65 57.6247L195.095 57.0433C196.243 56.8253 197.391 56.6364 198.54 56.4038C197.377 56.5201 196.214 56.6509 195.066 56.7817L191.592 57.2032C189.281 57.4939 186.97 57.8427 184.659 58.1625C182.348 58.4822 180.052 58.8601 177.756 59.238C175.459 59.6159 173.148 60.0083 170.866 60.4589Z" fill="#263238"/>
<path d="M73.093 92.5944C65.8403 104.483 53.5588 130.122 58.2389 139.453C62.7445 148.435 108.164 123.814 113.905 119.323C116.405 117.375 104.691 94.324 101.842 96.1553C98.0049 98.5971 79.4736 113.713 79.0666 113.785C78.2091 113.96 80.7817 105.414 82.5258 94.8327C85.0548 79.4408 78.3108 84.0627 73.093 92.5944Z" fill="#F0BCB3"/>
<path d="M132.19 86.7516C133.89 88.7573 132.437 91.0683 132.437 91.0683C133.687 91.4607 134.748 92.2891 135.46 93.3938C136.608 95.3995 133.963 98.0884 133.963 98.0884C135.169 98.7715 136.143 99.8034 136.754 101.053C137.655 103.088 135.388 106.169 135.388 106.169C136.143 107.405 136.434 108.887 136.201 110.326C135.417 114.163 129.85 116.256 126.304 117.564C121.028 119.512 111.493 119.454 109.342 119.774L100.461 97.1872C100.461 97.1872 114.574 86.6062 118.949 85.6179C122.655 84.7458 130.271 84.4987 132.19 86.7516Z" fill="#F0BCB3"/>
<path d="M132.146 90.7486C128.004 90.7049 124.08 91.8822 120.097 92.8415C120.083 92.8415 120.068 92.856 120.054 92.8706C120.039 92.8851 120.039 92.8996 120.054 92.9287C120.054 92.9432 120.068 92.9578 120.083 92.9723C120.097 92.9869 120.112 92.9868 120.141 92.9868C124.094 91.9985 128.193 91.795 132.176 90.952C132.205 90.952 132.219 90.9375 132.234 90.9084C132.248 90.8939 132.248 90.8648 132.248 90.8358C132.248 90.8067 132.234 90.7922 132.219 90.7776C132.19 90.7631 132.176 90.7486 132.146 90.7486Z" fill="#263238"/>
<path d="M133.774 97.8123C132.829 97.8995 131.914 98.103 131.027 98.4227C130.068 98.6989 129.109 99.0041 128.149 99.3238C126.231 99.9488 124.356 100.617 122.496 101.344C122.408 101.373 122.437 101.504 122.525 101.475C124.414 100.864 126.318 100.269 128.237 99.7163C129.196 99.4546 130.155 99.1785 131.114 98.9314C132.045 98.757 132.946 98.4663 133.803 98.0884C133.832 98.0739 133.847 98.0448 133.861 98.0303C133.876 98.0012 133.876 97.9721 133.876 97.9431C133.876 97.914 133.861 97.8849 133.832 97.8704C133.832 97.8268 133.803 97.8123 133.774 97.8123Z" fill="#263238"/>
<path d="M135.315 106.169C134.501 106.169 133.614 106.576 132.859 106.853C132.001 107.158 131.143 107.463 130.271 107.754C128.542 108.335 126.812 108.931 125.068 109.454C125.054 109.469 125.039 109.469 125.039 109.483C125.039 109.498 125.039 109.512 125.039 109.527C125.039 109.541 125.054 109.556 125.068 109.571C125.083 109.585 125.097 109.585 125.112 109.585C126.885 109.062 128.673 108.553 130.446 108.015C131.318 107.754 132.175 107.478 133.047 107.201C133.789 106.969 134.733 106.751 135.344 106.242C135.344 106.242 135.344 106.228 135.344 106.213C135.344 106.213 135.344 106.199 135.344 106.184L135.329 106.169C135.329 106.184 135.315 106.169 135.315 106.169Z" fill="#263238"/>
<path d="M90.607 132.07C87.671 133.509 84.706 134.875 81.6684 136.11C78.6307 137.346 75.593 138.465 72.5117 139.424C70.7821 139.976 69.0235 140.5 67.2357 140.965C67.1921 140.965 67.2357 141.052 67.2648 141.037C70.4769 140.427 73.6454 139.599 76.7557 138.567C78.2964 138.043 79.8225 137.462 81.3341 136.837C82.8311 136.227 84.3136 135.587 85.7525 134.846C87.3949 134.003 89.0518 133.131 90.6361 132.157C90.6506 132.157 90.6506 132.142 90.6506 132.128C90.6506 132.113 90.6506 132.113 90.6506 132.099C90.6506 132.084 90.6361 132.084 90.6361 132.07C90.6361 132.084 90.6215 132.07 90.607 132.07Z" fill="#263238"/>
<path d="M122.975 118.393C119.458 119.352 113.862 119.091 113.818 119.12C112.757 120.05 108.397 122.884 107.278 123.509C107.234 123.538 107.278 123.596 107.321 123.582C109.72 122.477 112.728 120.849 113.993 119.643C118.963 119.817 121.449 118.96 122.989 118.509C123.077 118.466 123.062 118.364 122.975 118.393Z" fill="#263238"/>
<path d="M57.9922 111.94L80.317 112.71C80.317 112.71 83.5145 96.5041 83.3547 87.7835C83.2674 82.9 80.4187 83.1035 77.2357 86.1702C66.1169 96.8966 57.9922 111.94 57.9922 111.94Z" fill="#FE5621"/>
<path d="M72.7302 90.9229C72.7157 90.9956 72.6866 91.0683 72.643 91.141C72.5413 91.3008 72.425 91.4462 72.2797 91.5624C72.207 91.6351 72.1198 91.6933 72.0326 91.7514H72.0035L72.7302 90.9229ZM80.8404 90.4869C80.8113 90.4433 80.7677 90.3997 80.7241 90.3706C80.6805 90.3416 80.6224 90.327 80.5642 90.327C80.3898 90.3416 80.2299 90.4433 80.1718 90.6032C80.1427 90.5305 80.0846 90.4578 80.0119 90.4142C79.9393 90.3706 79.8521 90.3416 79.7794 90.327C79.7212 90.327 79.6631 90.3416 79.605 90.3706C79.5614 90.3997 79.5178 90.4433 79.4887 90.4869C79.4451 90.5887 79.416 90.7049 79.4306 90.8212C79.4451 90.9375 79.4742 91.0392 79.5323 91.141C79.6922 91.388 79.8957 91.6061 80.1427 91.7659H80.2009C80.2881 91.7078 80.3753 91.6497 80.448 91.577C80.5933 91.4607 80.7096 91.3154 80.8113 91.1555C80.8695 91.0537 80.9131 90.952 80.9131 90.8357C80.9131 90.7049 80.884 90.5887 80.8404 90.4869ZM64.2421 101.896C64.3439 101.809 64.4311 101.707 64.4892 101.577C64.5038 101.548 64.5328 101.504 64.5328 101.46C64.4456 101.62 64.3439 101.766 64.2421 101.896ZM72.6866 100.952C72.6285 100.85 72.5122 100.792 72.3959 100.792C72.2215 100.806 72.0762 100.908 72.0035 101.068C71.9744 100.995 71.9163 100.923 71.8436 100.864C71.7709 100.821 71.6837 100.792 71.5965 100.777C71.4803 100.777 71.364 100.835 71.3058 100.937C71.2622 101.039 71.2332 101.155 71.2477 101.271C71.2477 101.388 71.2913 101.489 71.3494 101.591C71.5093 101.838 71.7128 102.042 71.9599 102.216H72.0326C72.1198 102.158 72.1924 102.1 72.2797 102.027C72.425 101.896 72.5413 101.751 72.643 101.591C72.7011 101.489 72.7447 101.388 72.7447 101.271C72.7447 101.155 72.7302 101.053 72.6866 100.952ZM80.8404 100.952C80.8113 100.908 80.7677 100.864 80.7241 100.835C80.6805 100.806 80.6224 100.792 80.5642 100.792C80.477 100.792 80.3898 100.821 80.3172 100.879C80.2445 100.923 80.1863 100.995 80.1573 101.082C80.1282 101.01 80.0701 100.937 79.9974 100.894C79.9247 100.85 79.8375 100.821 79.7649 100.806C79.7067 100.806 79.6486 100.821 79.605 100.85C79.5614 100.879 79.5178 100.923 79.4887 100.966C79.4451 101.068 79.416 101.184 79.4306 101.3C79.4451 101.417 79.4742 101.518 79.5323 101.62C79.6922 101.867 79.8957 102.071 80.1427 102.245H80.2009C80.2881 102.187 80.3753 102.129 80.448 102.056C80.5933 101.925 80.7096 101.78 80.8113 101.62C80.8695 101.518 80.9131 101.417 80.9131 101.3C80.9131 101.155 80.884 101.039 80.8404 100.952ZM67.8612 96.9256L67.9193 96.9692H67.992C68.0792 96.9111 68.1664 96.853 68.2391 96.7803C68.3844 96.664 68.5007 96.5187 68.6025 96.3588C68.6897 96.2134 68.7187 96.0536 68.7042 95.8792C68.3844 96.2135 68.1083 96.5623 67.8612 96.9256ZM76.7853 95.7047C76.7562 95.6611 76.7126 95.6175 76.669 95.5885C76.6254 95.5594 76.5673 95.5449 76.5091 95.5449C76.4219 95.5449 76.3347 95.5739 76.2766 95.6321C76.2039 95.6757 76.1603 95.7483 76.1167 95.8356C76.044 95.6757 75.8987 95.5594 75.7243 95.5594C75.6662 95.5594 75.608 95.5739 75.5499 95.603C75.5063 95.6321 75.4627 95.6757 75.4336 95.7193C75.39 95.821 75.3609 95.9373 75.3755 96.0536C75.39 96.1698 75.4191 96.2716 75.4772 96.3733C75.6371 96.6204 75.8406 96.8384 76.0876 96.9983H76.1458C76.1458 96.9983 76.2621 96.9111 76.3929 96.8093C76.5382 96.6931 76.669 96.5332 76.7562 96.3733C76.8725 96.1698 76.887 95.9373 76.7853 95.7338V95.7047ZM64.5474 111.402C64.5183 111.358 64.4747 111.315 64.4311 111.286C64.3875 111.257 64.3293 111.242 64.2712 111.242C64.184 111.242 64.0968 111.271 64.0241 111.329C63.9515 111.373 63.8933 111.445 63.8643 111.533C63.8061 111.373 63.6462 111.257 63.4718 111.257C63.4137 111.257 63.3556 111.271 63.3119 111.3C63.2538 111.329 63.2247 111.373 63.1957 111.416C63.0939 111.62 63.1085 111.867 63.2393 112.056L63.2829 112.129L64.4602 112.172C64.4892 112.143 64.5038 112.1 64.5183 112.07C64.5764 111.969 64.6055 111.867 64.6055 111.751C64.6055 111.634 64.5764 111.518 64.5328 111.416H64.5474V111.402ZM72.7011 111.402C72.643 111.3 72.5267 111.242 72.4105 111.242C72.3814 111.329 72.3233 111.387 72.2506 111.445C72.1779 111.489 72.0907 111.518 72.0035 111.518C71.8291 111.518 71.6692 111.402 71.6111 111.242C71.5529 111.242 71.4948 111.257 71.4512 111.286C71.3931 111.315 71.364 111.358 71.3349 111.402C71.2913 111.504 71.2622 111.62 71.2768 111.736C71.2768 111.852 71.3204 111.954 71.3785 112.056C71.4512 112.187 71.5529 112.303 71.6692 112.419L72.3523 112.448C72.4686 112.332 72.5703 112.216 72.6575 112.07C72.7738 111.852 72.7884 111.605 72.7011 111.402ZM80.5642 111.227C80.5352 111.315 80.477 111.373 80.4044 111.431C80.3317 111.475 80.2445 111.504 80.1573 111.504C79.9829 111.504 79.823 111.387 79.7649 111.227C79.7067 111.227 79.6486 111.242 79.605 111.271C79.5614 111.3 79.5178 111.344 79.4887 111.387C79.4451 111.489 79.416 111.605 79.4306 111.722C79.4451 111.838 79.4742 111.94 79.5323 112.041C79.6922 112.288 79.8957 112.506 80.1427 112.666H80.2009L80.3608 112.55C80.4044 112.332 80.4916 111.881 80.6078 111.242L80.5642 111.227ZM68.617 106.14C68.5879 106.082 68.5443 106.053 68.5007 106.024C68.4571 105.995 68.399 105.981 68.3408 105.981C68.3118 106.068 68.2682 106.14 68.1955 106.184C68.0501 106.286 67.8612 106.286 67.7159 106.184C67.6432 106.126 67.585 106.068 67.5705 105.981C67.5124 105.981 67.4542 105.995 67.4106 106.024C67.367 106.053 67.3234 106.097 67.2944 106.14C67.2508 106.242 67.2217 106.358 67.2362 106.475C67.2362 106.591 67.2798 106.693 67.338 106.794C67.4978 107.042 67.7013 107.245 67.9484 107.419H68.0211C68.1083 107.361 68.1955 107.303 68.2682 107.23C68.4135 107.114 68.5298 106.969 68.6315 106.809C68.7042 106.591 68.7187 106.358 68.617 106.14ZM76.7708 106.14C76.7417 106.082 76.6981 106.053 76.6545 106.024C76.6109 105.995 76.5528 105.981 76.4946 105.981C76.4074 105.981 76.3202 106.01 76.2621 106.068C76.1894 106.111 76.1458 106.184 76.1022 106.271C76.0731 106.199 76.015 106.14 75.9423 106.097C75.8696 106.053 75.797 106.01 75.7098 106.01C75.6516 106.01 75.5935 106.024 75.5499 106.053C75.5063 106.082 75.4627 106.126 75.4336 106.169C75.39 106.271 75.3609 106.388 75.3755 106.504C75.39 106.62 75.4191 106.722 75.4772 106.824C75.6371 107.071 75.8406 107.274 76.0876 107.449H76.1458C76.233 107.39 76.3202 107.332 76.3929 107.26C76.5382 107.143 76.669 106.998 76.7562 106.838C76.8144 106.736 76.858 106.635 76.858 106.518C76.8434 106.373 76.8144 106.257 76.7708 106.14Z" fill="white"/>
<path d="M79.663 109.164C76.2474 108.757 66.9163 107.943 60.7974 108.204C60.7537 108.204 60.7537 108.35 60.7974 108.35C65.928 108.902 76.2183 109.28 79.663 109.382C79.7066 109.382 79.7211 109.178 79.663 109.164Z" fill="#263238"/>
<path d="M83.3398 96.1117C83.0782 97.071 82.8457 98.0448 82.6131 99.0186C82.6131 98.9023 82.6422 98.786 82.6567 98.6697C82.8021 97.318 82.9183 95.9663 83.0201 94.6001C83.0201 94.5856 83.0055 94.571 82.991 94.571C82.9765 94.571 82.9619 94.5856 82.9619 94.6001C82.3079 99.3528 80.433 111.329 80.3167 112.637C80.2149 112.637 79.1975 112.666 78.9505 112.637C78.8923 112.637 78.9069 112.71 78.9505 112.724C78.9941 112.739 80.5928 112.913 80.6074 112.884C81.276 110.573 82.2788 101.838 82.4968 99.9051C82.8457 98.6552 83.1364 97.4052 83.3544 96.1262C83.3689 96.0971 83.3398 96.0971 83.3398 96.1117Z" fill="#263238"/>
<path d="M67.2651 150.645C66.3058 152.374 65.3466 154.104 64.5472 155.921C63.7478 157.737 63.0211 159.554 62.3961 161.429C60.87 166.022 60.6374 169.118 60.681 168.929C61.524 164.423 64.2565 157.912 65.0413 156.124C65.8262 154.336 66.5384 152.491 67.3232 150.688C67.3814 150.63 67.2796 150.616 67.2651 150.645Z" fill="#263238"/>
<path d="M73.8201 153.392C72.7009 155.644 71.5091 157.839 70.5063 160.15C69.5034 162.461 68.7331 164.714 67.8901 167.069C67.8174 167.257 67.9482 167.228 68.0063 167.069C68.9656 164.743 70.0121 162.679 70.9714 160.354C71.9306 158.028 72.8318 155.688 73.8782 153.435C73.8928 153.377 73.8346 153.363 73.8201 153.392Z" fill="#263238"/>
<path d="M79.8809 154.729C77.9914 158.086 76.7415 161.793 75.5642 165.441C75.5061 165.63 75.6514 165.571 75.7241 165.397C77.0758 161.807 78.1222 158.973 79.9681 154.787C79.9826 154.758 79.9826 154.729 79.9681 154.714C79.939 154.7 79.91 154.7 79.8809 154.729Z" fill="#263238"/>
</svg>
